<?xml version="1.0" standalone="no"?>
<!DOCTYPE svg PUBLIC "-//W3C//DTD SVG 1.1//EN" "http://www.w3.org/Graphics/SVG/1.1/DTD/svg11.dtd" >
<svg xmlns="http://www.w3.org/2000/svg" xmlns:xlink="http://www.w3.org/1999/xlink" version="1.1">
<metadata>
Created by FontForge 20161013 at Wed Oct 22 09:02:20 2003
 By ,,,
Copyright (c) Graham Meade, 2003. All rights reserved.
</metadata>
<defs>
<font id="GosmickSansOblique" horiz-adv-x="666" >
  <font-face 
    font-family="GosmickSans"
    font-weight="500"
    font-style="oblique"
    font-stretch="normal"
    units-per-em="1000"
    panose-1="2 0 6 6 2 0 0 2 0 4"
    ascent="800"
    descent="-200"
    x-height="484"
    cap-height="692"
    bbox="-168 -269 1125.96 962"
    underline-thickness="50"
    underline-position="-175"
    slope="-12"
    unicode-range="U+0008-E003"
  />
<missing-glyph horiz-adv-x="522" 
d="M412 125l-3 -2q-27 -20 -58.5 -37t-57.5 -19q-37 -3 -63.5 8.5t-42 34t-19.5 55.5t5 74q7 34 24 67t39.5 59.5t49 43t53.5 16.5q29 0 45.5 -15t30.5 -40q-2 -8 6.5 -12t16.5 -4q4 0 13 4.5t19 12.5q-11 -45 -20 -88t-20 -80q-6 -19 -9.5 -38t-8.5 -39v-1zM590 452
q15 61 -26 61q-4 0 -13.5 -2.5t-20.5 -8.5t-21 -16.5t-15 -27.5q-2 -4 -3 -7.5t-3 -8.5q-14 26 -52 42.5t-87 12.5q-47 -4 -91.5 -28.5t-81.5 -63t-62.5 -87.5t-33.5 -102q-8 -52 2 -96t35 -75.5t64.5 -47.5t91.5 -12q32 2 64 14t58 29q-2 -30 4.5 -45.5t26.5 -15.5
q6 0 17 5t22 14t19.5 20t10.5 23q4 30 11.5 71t17.5 88q14 63 31.5 129t34.5 135z" />
    <glyph glyph-name=".notdef" horiz-adv-x="522" 
d="M412 125l-3 -2q-27 -20 -58.5 -37t-57.5 -19q-37 -3 -63.5 8.5t-42 34t-19.5 55.5t5 74q7 34 24 67t39.5 59.5t49 43t53.5 16.5q29 0 45.5 -15t30.5 -40q-2 -8 6.5 -12t16.5 -4q4 0 13 4.5t19 12.5q-11 -45 -20 -88t-20 -80q-6 -19 -9.5 -38t-8.5 -39v-1zM590 452
q15 61 -26 61q-4 0 -13.5 -2.5t-20.5 -8.5t-21 -16.5t-15 -27.5q-2 -4 -3 -7.5t-3 -8.5q-14 26 -52 42.5t-87 12.5q-47 -4 -91.5 -28.5t-81.5 -63t-62.5 -87.5t-33.5 -102q-8 -52 2 -96t35 -75.5t64.5 -47.5t91.5 -12q32 2 64 14t58 29q-2 -30 4.5 -45.5t26.5 -15.5
q6 0 17 5t22 14t19.5 20t10.5 23q4 30 11.5 71t17.5 88q14 63 31.5 129t34.5 135z" />
    <glyph glyph-name=".null" horiz-adv-x="0" 
 />
    <glyph glyph-name="nonmarkingreturn" horiz-adv-x="333" 
 />
    <glyph glyph-name="ring" horiz-adv-x="315" 
d="M259 514q27 0 53.5 9.5t49 26t38.5 38.5t21 46q5 22 -0.5 41t-19.5 33.5t-34.5 22.5t-45.5 8q-26 0 -49.5 -8.5t-43.5 -22.5t-35 -33t-23 -41q-8 -24 -6 -46t13.5 -38.5t32 -26t49.5 -9.5zM304 688q29 0 41.5 -16t9.5 -41q-2 -12 -9 -23.5t-18.5 -20t-25 -13.5t-26.5 -5
q-27 0 -38.5 16.5t-9.5 38.5q4 24 26 44t50 20z" />
    <glyph glyph-name="fi" horiz-adv-x="465" 
 />
    <glyph glyph-name="fl" horiz-adv-x="465" 
 />
    <glyph glyph-name="space" unicode=" " horiz-adv-x="278" 
 />
    <glyph glyph-name="exclam" unicode="!" horiz-adv-x="187" 
d="M298 669q8 26 0 44.5t-30 18.5q-13 0 -26.5 -4t-24.5 -11.5t-19 -17.5t-9 -21q-2 -18 -5.5 -41t-9.5 -53q-6 -29 -15 -67t-19 -81t-21 -88t-21 -88q-16 -68 34 -57q16 7 27.5 13t19 15t13 24.5t10.5 42.5q18 95 43 189t53 182zM172 62q-1 23 -15 40.5t-40 17.5t-46 -17
t-24 -42q-4 -29 11.5 -50.5t43.5 -22.5q22 -1 36 10.5t21.5 25.5t10 26z" />
    <glyph glyph-name="quotedbl" unicode="&#x22;" horiz-adv-x="385" 
d="M497 668q11 29 1 50t-38 21q-26 0 -44.5 -18.5t-27.5 -44.5q-3 -14 -7 -45.5t-5 -63.5t3.5 -56.5t18.5 -24.5q12 0 27.5 23t30 54t25.5 61t16 44zM287 668q11 29 1 50t-38 21q-26 0 -44.5 -18.5t-27.5 -44.5q-3 -14 -7 -45.5t-5 -63.5t3.5 -56.5t18.5 -24.5q12 0 27.5 23
t30 54t25.5 61t16 44z" />
    <glyph glyph-name="numbersign" unicode="#" horiz-adv-x="550" 
d="M551 254q4 9 -9 12.5t-31.5 4.5t-37 -0.5t-25.5 -1.5q8 21 16 41.5t16 41.5q9 0 25.5 -0.5t34.5 1.5t33 8t20 20q9 8 15 21t3 21q-2 6 -15 8t-29.5 1.5t-32.5 -2t-23 -1.5q9 23 21 50.5t17.5 52t-1 43.5t-34.5 25q-9 -2 -17 -12.5t-12 -18.5l-53 -140q-21 0 -41.5 0.5
t-41.5 0.5q2 4 8 18t13 32t13.5 37.5t9.5 36t1 27t-13 10.5q-5 8 -17.5 8.5t-24.5 -7.5q-8 -5 -18 -26.5t-20 -48t-18 -51t-12 -35.5h-32q-36 0 -60 -12.5t-34 -27.5t-4.5 -27.5t26.5 -12.5q18 0 37 1t37 1q-8 -20 -16.5 -41t-16.5 -41q-15 0 -30.5 0.5t-30.5 -2.5t-29 -11
t-26 -26q-10 -7 -11 -15q-3 -15 7.5 -20.5t26 -7t33 0.5t28.5 2l-27 -70q-17 -46 -13.5 -69.5t17 -28.5t30.5 7.5t28 39.5q11 31 22 61t22 61q20 -1 41 -1q22 0 43 -1q-6 -17 -17 -41t-18.5 -47t-6.5 -42t19 -26q5 -11 14 -8.5t18 11.5t16.5 20.5t10.5 18.5q11 29 21 57
t21 57q18 0 33 -0.5t29 2.5t27.5 11.5t29.5 27.5q4 5 8.5 10.5t6.5 11.5zM370 269h-42t-42 1l32 83h42t41 -1z" />
    <glyph glyph-name="dollar" unicode="$" horiz-adv-x="530" 
d="M547 218q23 72 -19 117.5t-134 59.5q-4 2 -9 2.5t-10 2.5q5 21 9.5 42.5t9.5 43.5l2 12q5 19 10.5 43t12.5 49q13 -2 25.5 -5.5t21.5 -9t14 -14t3 -19.5q4 -18 19 -18t29.5 12t22 33.5t-2.5 46.5q-5 13 -17.5 22t-29 14.5t-34 8t-33.5 2.5q3 14 5 23t2 11q1 34 -25 31
t-35 -19.5t-18 -51.5q-40 -8 -79 -25.5t-70.5 -42t-51.5 -55t-23 -66.5q-5 -57 30.5 -89t116.5 -51q-8 -37 -16 -73.5t-16 -73.5q-11 -48 -18 -84q-38 3 -66.5 19t-36.5 52q2 8 -7 13.5t-15 5.5q-20 0 -33.5 -17t-17.5 -34q-5 -26 6.5 -47t34.5 -36.5t55 -24t68 -9.5
q-3 -39 21 -39q2 0 10 -2.5t16 6.5q9 4 12.5 16.5t7.5 23.5q44 5 88 19.5t86 54.5q13 6 25 20.5t22.5 32t18.5 35.5t13 32zM350 589q-11 -44 -20.5 -87t-19.5 -87q-39 11 -57 29t-18 42q0 36 32.5 65t82.5 38zM463 223q-1 -23 -14 -43t-34 -36t-48.5 -27t-56.5 -16l10 45
l28 134l8 34q22 -6 41.5 -13.5t34.5 -18t23.5 -25t7.5 -34.5z" />
    <glyph glyph-name="percent" unicode="%" horiz-adv-x="760" 
d="M765 159q11 37 8.5 70t-16.5 57.5t-39 38.5t-60 14q-36 0 -69.5 -14t-61 -38t-47 -57t-27.5 -71q-7 -34 -3 -64t18.5 -52.5t39 -35.5t57.5 -13t64.5 13t58.5 35t47 52t30 65zM743 676q2 10 -5 17t-18 7q-10 0 -24.5 -5.5t-29 -14.5t-27 -19.5t-18.5 -20.5
q-14 -20 -35 -51t-38 -56q-36 -51 -72 -101.5t-74.5 -105t-81 -116t-92.5 -134.5q-17 -24 -29.5 -36t-11.5 -21q-2 -8 5.5 -15.5t18.5 -7.5q18 0 33 9.5t29.5 25t28.5 36.5t30 44q34 48 65.5 96t66.5 96q70 99 134 185t113 150q16 17 25 25t7 13zM458 525q11 37 8.5 70
t-16.5 57.5t-39 39t-60 14.5q-36 0 -69.5 -14t-61 -38.5t-47 -57.5t-27.5 -71q-7 -34 -3 -64t18.5 -52t39 -35t58.5 -13q33 0 64.5 12.5t58 35t46.5 52t30 64.5zM695 167q-5 -23 -15.5 -43t-25 -34t-32.5 -22t-37 -8q-39 0 -53.5 32t-5.5 77q5 23 16 43t25.5 35t32.5 23.5
t37 8.5q38 0 53.5 -31t4.5 -81zM388 533q-5 -23 -15.5 -43t-25 -34t-32.5 -22t-37 -8q-38 0 -53 32.5t-6 77.5q5 23 15.5 43t25.5 35t33 23.5t37 8.5q38 0 53.5 -31t4.5 -82z" />
    <glyph glyph-name="ampersand" unicode="&#x26;" horiz-adv-x="677" 
d="M614 305q-18 6 -36.5 -6.5t-37 -35t-39 -49.5t-42.5 -51q-16 -23 -41 -40t-52 -28.5t-53.5 -17t-45.5 -3.5q-22 1 -41.5 9.5t-34 22.5t-22.5 33t-7 42q2 43 34 88t105 88q3 3 20 13t38 22t40 22.5t27 15.5q66 41 94 77.5t31 77.5q2 26 -6.5 44.5t-23.5 30t-35.5 17
t-42.5 5.5q-32 0 -64.5 -9t-59.5 -23.5t-47 -33t-28 -37.5q-14 -24 -6 -63.5t35 -95.5q-16 -13 -35 -26.5t-37.5 -28t-35.5 -28.5t-30 -29q-25 -29 -41 -60t-21 -65q-6 -43 4.5 -78.5t34.5 -61.5t59.5 -40.5t79.5 -14.5q30 0 67.5 7.5t74 22.5t69 37t53.5 50
q13 -13 29.5 -33t33.5 -38.5t33 -31.5t30 -13q7 0 19.5 4t24 10t20 13.5t7.5 14.5q0 5 -9.5 17t-24.5 27l-32 32t-31 31.5t-23 24.5t-7 12q16 18 24.5 28.5t13 19t6.5 18t6 25.5q4 14 -2 24.5t-19 14.5zM462 568q-2 -12 -12 -26.5t-24.5 -28.5t-32 -25t-32.5 -17
q-7 7 -15.5 18.5t-14.5 24t-9 24.5t0 20q5 17 19 35t43 22l11 2.5t22 1.5q23 -2 36.5 -15.5t8.5 -35.5z" />
    <glyph glyph-name="quotesingle" unicode="'" horiz-adv-x="175" 
d="M287 668q11 29 1 50t-38 21q-26 0 -44.5 -18.5t-27.5 -44.5q-3 -14 -7 -45.5t-5 -63.5t3.5 -56.5t18.5 -24.5q12 0 27.5 23t30 54t25.5 61t16 44z" />
    <glyph glyph-name="parenleft" unicode="(" horiz-adv-x="315" 
d="M269 -84q0 1 -9 19.5t-20 43t-22 49.5t-15 40q-20 63 -19 142t18 156q23 97 72.5 181t109.5 149q10 14 17 22t11.5 13.5t6 9t1.5 8.5q0 9 -7.5 15t-16.5 6q-27 0 -56.5 -20.5t-58.5 -55t-56 -79t-50 -91t-40 -92.5t-26 -83q-17 -71 -20.5 -142.5t6 -134.5t32 -112
t58.5 -75q11 -3 21.5 -5.5t18.5 0.5q6 1 14 5t14.5 9.5t11 11t4.5 10.5z" />
    <glyph glyph-name="parenright" unicode=")" horiz-adv-x="315" 
d="M361 349q7 37 9 83t-1 92.5t-12 91t-23.5 79t-35 55t-47.5 20.5q-9 0 -18.5 -6t-12.5 -15q-3 -5 -3 -9q0 -3 2.5 -8.5t5.5 -13.5t6 -22q33 -65 47.5 -149t-4.5 -181q-14 -77 -46.5 -156t-80.5 -142q-11 -15 -32.5 -40t-43 -49.5t-38 -43t-16.5 -19.5q-2 -5 -0.5 -10.5
t6 -11t10.5 -9.5t12 -5q7 -3 18 -0.5t23 5.5q47 26 91 75t80.5 112t63.5 134.5t40 142.5z" />
    <glyph glyph-name="asterisk" unicode="*" horiz-adv-x="379" 
d="M445 480q15 20 13.5 31.5t-21.5 20.5q-11 5 -36 15t-50 18q29 8 57.5 18t42.5 15q23 9 30 20.5t0 31.5q-8 20 -16.5 23t-31.5 -6q-6 -3 -16 -9t-22 -14.5t-25.5 -17.5t-26.5 -18q11 26 20.5 51.5t13.5 36.5q8 24 2.5 33.5t-28.5 9.5q-22 0 -31 -6.5t-16 -29.5
q-2 -12 -5 -40.5t-4 -57.5q-16 18 -31.5 35t-23.5 24q-17 15 -29.5 12.5t-27.5 -22.5q-16 -20 -15.5 -29.5t14.5 -23.5q10 -6 31 -16.5t45 -19.5q-28 -10 -54 -20.5t-37 -15.5q-20 -14 -25 -23.5t3 -29.5q7 -20 18.5 -22.5t34.5 12.5q10 7 33.5 24t46.5 35
q-11 -29 -20.5 -57.5t-12.5 -40.5q-2 -23 4 -29.5t28 -6.5q23 0 33 9t12 34q1 11 2 36.5t0 51.5q18 -19 37.5 -36t28.5 -23q18 -9 28.5 -6t26.5 23z" />
    <glyph glyph-name="plus" unicode="+" horiz-adv-x="519" 
d="M557 314q2 8 -6 11.5t-14 4.5q-15 2 -37 2q-21 0 -44 -0.5t-45.5 -1.5t-39.5 -1q8 23 12 47t9 47q2 9 7 24.5t7 30.5t-1.5 26t-18.5 11q-4 2 -17.5 3.5t-18.5 0.5q-10 -2 -14.5 -9.5t-6.5 -15.5q-5 -16 -10 -37t-9 -43.5t-8 -44.5t-7 -39h-79q-15 0 -31.5 1t-31.5 -1.5
t-28.5 -11t-22.5 -26.5q-8 -8 -9 -15q1 -16 10 -21.5t24 -5.5q29 0 57.5 1.5t57.5 1.5h35l-17 -80q-2 -11 -8 -29.5t-9 -37t0.5 -33t18.5 -16.5q21 -3 39.5 9t23.5 35q8 38 14.5 75t14.5 75h95h30t24.5 3.5t21.5 12t21 25.5q3 5 6.5 10.5t4.5 11.5z" />
    <glyph glyph-name="comma" unicode="," horiz-adv-x="201" 
d="M184 59q7 28 -11 49t-46 21q-26 0 -46.5 -18.5t-25.5 -44.5q-3 -33 15 -53q-8 -16 -18 -35.5t-19 -37t-15 -30.5t-6 -15q-2 -14 8.5 -19.5t27.5 -3.5q26 5 41.5 20t25.5 32q10 18 23 39t23.5 40.5t17 34.5t5.5 21z" />
    <glyph glyph-name="hyphen" unicode="-" horiz-adv-x="419" 
d="M457 314q1 11 -5.5 12t-14.5 4h-42q-12 0 -21 -0.5t-21 -0.5h-39h-34q-10 0 -17.5 0.5t-17.5 0.5h-29q-7 1 -12 1h-6q-41 0 -62 -6t-34 -33q-11 -9 -9 -15q0 -27 34 -27h3q22 0 46 1.5t66 1.5q16 0 22 -0.5t10 -0.5q5 0 12 -0.5t26 -0.5h37q20 0 34.5 1t25.5 5t20 12
t17 23q5 5 8 12.5t3 9.5z" />
    <glyph glyph-name="period" unicode="." horiz-adv-x="194" 
d="M176 49q6 29 -11.5 49.5t-45.5 20.5q-26 0 -47 -18.5t-26 -44.5q-2 -28 12 -49t43 -21q25 0 47 17.5t28 45.5z" />
    <glyph glyph-name="slash" unicode="/" horiz-adv-x="439" 
d="M560 703q2 11 -9.5 18t-24.5 2q-26 0 -45.5 -14.5t-36.5 -38t-33 -51.5t-33 -55q-36 -58 -74.5 -121.5t-78.5 -128t-79.5 -127.5t-77.5 -119l-9 -13q-8 -14 -11.5 -20.5t-7.5 -9.5q-4 -11 5.5 -18.5t17.5 -7.5q22 0 41 15t37 39.5t35.5 56t38.5 64.5l126 201
q66 105 118.5 186.5t94.5 132.5q2 2 3 4.5t3 4.5z" />
    <glyph glyph-name="zero" unicode="0" horiz-adv-x="587" 
d="M634 353q18 78 12 142.5t-31.5 111.5t-68 73t-97.5 26q-54 0 -108 -26.5t-100 -74t-81 -114t-52 -146.5t-12 -146t29 -113.5t65.5 -73.5t96.5 -26q56 0 110 25t100 72.5t81.5 115.5t55.5 154zM535 329q-12 -56 -32.5 -102t-49 -79t-63 -51t-73.5 -18q-41 0 -69.5 23
t-43 63.5t-14.5 95.5q0 56 17 122q13 52 34.5 96t49 76t61 50.5t69.5 18.5q25 0 50.5 -8.5t45.5 -27t31.5 -47.5t10.5 -69q1 -6 -1.5 -23.5t-6 -39t-8.5 -43.5t-8 -37z" />
    <glyph glyph-name="one" unicode="1" horiz-adv-x="300" 
d="M277 23q2 5 -2.5 6t-6.5 6l-9 18q1 14 4 35t7 45t8.5 50t10.5 50q7 31 16.5 70t21 81t24 84.5t24.5 82.5l11 39q7 26 11 51.5t-9 39.5q0 16 -17 19q-7 0 -17 -6q-28 -10 -62.5 -23t-64 -27.5t-49 -29.5t-18.5 -28q-2 -14 7 -23t23 -9q11 0 29.5 8t36.5 8q8 2 22 4
q-1 -15 -11 -53t-24.5 -86.5t-29 -102t-24.5 -100.5l-37 -169q-2 -8 -14 -19t-23 -20.5t-14 -16.5t13 -7h74q15 0 30 -1t27 0t20.5 6.5t11.5 17.5z" />
    <glyph glyph-name="two" unicode="2" horiz-adv-x="562" 
d="M546 60q2 17 -20.5 26.5t-75.5 8.5q-18 0 -41 1t-48 2t-49 1t-45 -1l-45 -3q-3 -1 -9 -1q-7 -1 -14.5 -0.5t-12.5 1.5q6 18 24 38.5t43.5 43t55 45.5t58.5 46q48 37 85 69.5t63 63t42 62t24 66.5q8 36 -1.5 66t-31.5 51.5t-53.5 33.5t-68.5 12q-41 0 -88.5 -15.5
t-89 -40.5t-71 -56t-32.5 -62q-3 -34 33 -32q9 0 18.5 10t22 24t28.5 29.5t37 28.5q30 18 58.5 26t57.5 4q13 -2 27.5 -8.5t25.5 -17t17.5 -24t3.5 -28.5q-2 -33 -22 -65.5t-58.5 -71.5t-96 -88.5t-133.5 -116.5q-16 -15 -34.5 -34.5t-35 -39.5t-28.5 -38t-14 -30
q-3 -20 7.5 -27t24.5 -16q5 -2 8 -4t7 -2t14 2q32 3 71.5 4t81 1.5t82.5 0.5h76q10 0 20 -0.5t21 -1.5q10 0 24 5t27 13.5t21.5 19t8.5 19.5z" />
    <glyph glyph-name="three" unicode="3" horiz-adv-x="555" 
d="M569 201l2 7q11 56 -18 97t-82 64q-13 5 -18.5 8t-10.5 7q5 4 10.5 7.5t11.5 7.5q44 23 72 52t40 67q11 38 3 69.5t-31.5 54.5t-60.5 35.5t-85 12.5q-31 0 -66.5 -9t-68 -24.5t-57 -36.5t-33.5 -45q-8 -15 -1 -27.5t22 -12.5q8 0 16.5 3.5t12.5 11.5q45 32 86 48.5
t83 11.5t65 -29t14 -66q-6 -26 -22.5 -43.5t-40.5 -29.5t-52 -19.5t-56 -13.5q-37 -3 -56.5 -20t-20.5 -33q-2 -13 7 -19t26 -8h4q16 2 28.5 3.5t22.5 1.5q37 -1 67.5 -11.5t51.5 -30t30 -47t2 -61.5q-6 -27 -22.5 -49.5t-41 -38.5t-56 -24t-67.5 -5q-27 2 -47 9.5t-35 20
t-26.5 28.5t-22.5 35q-5 14 -10.5 18.5t-16.5 4.5q-9 0 -19.5 -4.5t-19 -12t-14 -17.5t-5.5 -20q-2 -29 15.5 -54.5t46.5 -45.5t68 -31.5t81 -11.5q54 0 103.5 17t89 46t66.5 68.5t36 83.5z" />
    <glyph glyph-name="four" unicode="4" horiz-adv-x="626" 
d="M649 240q1 14 -7 20t-21 8q-20 0 -41.5 -3.5t-46.5 -3.5h-8q-2 2 -4 2q-1 0 -1.5 1.5t0.5 6.5t4 19l5 18.5t12 45t14.5 56t12.5 51.5q15 56 -27 56q-5 0 -14.5 -2t-20 -7.5t-20 -15.5t-14.5 -25q-7 -23 -15 -55t-15 -61.5t-12.5 -51t-6.5 -22.5q-2 -8 -4.5 -11.5t-5 -5
t-5.5 -2t-5 -1.5q-49 -2 -89 -2h-65q-24 0 -31 5q5 11 13 20q36 48 75 98.5t78 107.5q21 31 31 45.5t16 23t11.5 17t16.5 27.5q17 29 24 46t7 27q2 11 -7 19.5t-20 8.5q-8 0 -22 -6.5t-30 -19t-31.5 -31.5t-25.5 -43q-20 -35 -34 -60.5t-27 -47t-26.5 -42t-32 -43.5t-43 -52
t-59.5 -69l-39 -45q-8 -10 -10 -14t-2 -8q-3 -8 -2.5 -17.5t6 -18t16 -14.5t28.5 -6h54q46 0 93 1t101 3q10 -1 13.5 -6t3.5 -8l-3.5 -24t-4.5 -53t3 -53t20 -24q7 0 18 4.5t21.5 12.5t19 18t9.5 21q1 9 4 26.5t5.5 34.5t5 30.5t4.5 14.5q1 5 6.5 7.5l5.5 2.5q20 1 27 1.5
t9 -0.5h13t15 -1q5 -2 17 3.5t25 15.5t23 23t12 27z" />
    <glyph glyph-name="five" unicode="5" horiz-adv-x="543" 
d="M571 264q10 46 0.5 85t-33.5 67t-61.5 44t-83.5 16q-25 0 -46 -3.5t-40.5 -9.5t-39.5 -14.5t-43 -18.5q1 6 1.5 12.5t1.5 12.5q2 8 6 20t15 41q10 27 16.5 43t13.5 24.5t17 11.5t28 3q22 0 48.5 -1l53 -2t51.5 -0.5t46 3.5h11q15 2 31.5 8t30.5 14t24 18t12 21t-5 18
t-18 7q-51 0 -111.5 0.5t-117.5 0.5h-45q-8 -1 -15 -1h-12q-5 0 -14 0.5t-14 0.5q-17 0 -29.5 -3.5t-22.5 -15t-19.5 -31.5t-20.5 -53q-14 -42 -30 -86.5t-34 -98.5q-8 -20 -11 -32t-4 -17q0 -13 9.5 -23.5t23.5 -10.5q6 0 18 6t26.5 14t30 16.5t27.5 13.5q28 12 55 19t55 7
q64 0 95 -40.5t21 -106.5q-5 -37 -24.5 -69t-49 -54.5t-66.5 -34t-78 -8.5q-38 3 -65.5 19t-38.5 43q-18 28 -34 28q-17 0 -29.5 -13.5t-18.5 -31.5q-8 -27 5.5 -52.5t40 -45t62.5 -31t74 -11.5q51 0 103 21.5t97 59.5t78 89.5t46 111.5z" />
    <glyph glyph-name="six" unicode="6" horiz-adv-x="567" 
d="M582 210q15 50 11 93t-25 75t-57 51t-84 22q-17 1 -39 1t-46 -4t-49.5 -14t-48.5 -29q-2 -2 -1.5 -2.5t0.5 -1.5t-2.5 -2.5t-9.5 -4.5q17 51 35.5 84t42.5 55.5t56.5 38t77.5 31.5q71 9 114 26t59 33.5t5.5 27.5t-46.5 9q-5 2 -26.5 -1t-48.5 -8.5t-55 -12.5t-46 -12
q-59 -17 -108.5 -53t-88 -84.5t-64.5 -106t-39 -117.5q-15 -70 -10 -129t30 -102t68.5 -67t105.5 -24q49 0 95 17.5t84.5 48.5t66.5 72.5t43 89.5zM483 208q-6 -30 -21.5 -56t-37 -45t-49.5 -30t-59 -11q-34 0 -60 13.5t-42 37t-21 56t3 70.5q6 30 22 54.5t38.5 41t50 25.5
t56.5 9q71 0 104 -43t16 -122z" />
    <glyph glyph-name="seven" unicode="7" horiz-adv-x="546" 
d="M654 640q3 8 2.5 16.5t-5.5 16t-15 12.5t-28 5h-54q-47 0 -95.5 -1.5t-89 -3.5t-68 -3.5t-32.5 -0.5h-13t-15 1q-5 2 -17 -3.5t-25 -15.5t-23 -23.5t-11 -26.5q-2 -14 6 -20t21 -8q20 0 45.5 2.5t50.5 4.5q54 3 106.5 4.5t94.5 1.5q22 0 31 -5l-6 -10t-8 -10
q-35 -48 -74 -98.5t-78 -107.5q-21 -31 -47.5 -71.5t-52 -80t-47 -74t-33.5 -53.5q-17 -29 -23.5 -46t-7.5 -27q-1 -11 7.5 -19.5t19.5 -8.5q7 0 24.5 9t36.5 23t36 32t24 36q29 52 62 111t71.5 121.5t83 125t97.5 122.5l40 45q8 10 8 17t1 11z" />
    <glyph glyph-name="eight" unicode="8" horiz-adv-x="556" 
d="M569 196q1 6 1.5 30.5t-6.5 53t-23.5 54.5t-48.5 37q-21 10 -31 16q19 13 37 26t34 28.5t28.5 34.5t20.5 46q12 40 5.5 73t-27.5 56.5t-55 36.5t-76 13q-45 0 -88.5 -14t-79.5 -39t-62 -59t-36 -74q-6 -26 -5.5 -46t7 -38t20 -35.5t33.5 -37.5q-5 -3 -10.5 -5.5
t-13.5 -6.5q-50 -26 -81.5 -71t-39.5 -98q-6 -45 6.5 -81t40 -61.5t67.5 -39t89 -13.5q54 0 103.5 17.5t88.5 47t66 68.5t36 81zM483 522q-10 -46 -47 -76.5t-92 -34.5q-53 3 -79 30t-17 72q11 50 50 83t95 33q50 0 75.5 -29t14.5 -78zM471 191q-6 -29 -22 -53t-39.5 -41
t-53 -26.5t-62.5 -9.5q-32 0 -57.5 10.5t-42 30t-22.5 46.5t1 59q5 23 20 44.5t37 39t48 28t53 10.5q34 1 63.5 -6t49 -23.5t27.5 -43t0 -65.5z" />
    <glyph glyph-name="nine" unicode="9" horiz-adv-x="556" 
d="M617 420q13 61 5 112t-33 88.5t-64.5 58.5t-89.5 21q-54 0 -104 -18t-90.5 -50t-68.5 -75t-39 -94q-11 -53 -2.5 -95.5t33.5 -72t65.5 -44.5t93.5 -11q13 2 33.5 9t41 16.5t39 20.5t29.5 22q4 0 6.5 1t3.5 1q2 0 2 -3q0 -2 -3 -11q-44 -103 -115 -157.5t-153 -54.5
q-11 -2 -21.5 -1t-19.5 1t-15.5 -2t-9.5 -10q-5 -3 -9 -10t-6.5 -15t-2.5 -16t4 -12q3 -14 21 -21.5t43 -7.5q54 0 103.5 18.5t93.5 50t81 73.5t66.5 90t50 98.5t31.5 99.5zM514 471q-7 -35 -26.5 -62t-45.5 -45t-55 -27.5t-53 -9.5q-62 0 -92 38.5t-19 101.5q6 33 21 61
t38.5 48.5t53.5 32.5t65 12q20 0 41 -5.5t37.5 -17t26.5 -28.5t9 -40q6 -9 3.5 -26t-4.5 -33z" />
    <glyph glyph-name="colon" unicode=":" horiz-adv-x="196" 
d="M246 382l-2 13q1 26 -11 37.5t-40 11.5q-26 0 -46 -17.5t-25 -42.5q-6 -31 8.5 -54.5t43.5 -23.5q15 0 28.5 6t24 16.5t15.5 24.5t4 29zM175 76l1 19q2 29 -11 38t-41 9h-2q-29 0 -48.5 -19.5t-23.5 -48.5q-2 -14 0 -27.5t8 -24t16.5 -17t27.5 -6.5q15 0 28.5 6.5
t23.5 17.5t15.5 24.5t5.5 28.5z" />
    <glyph glyph-name="semicolon" unicode=";" horiz-adv-x="202" 
d="M239 384l2 19q0 25 -13 34t-42 9q-26 0 -45 -17.5t-24 -42.5q-6 -31 6.5 -54.5t44.5 -23.5q15 0 28.5 6t23 16.5t15 24.5t4.5 29zM185 59q7 28 -11 49t-46 21q-26 0 -46.5 -18.5t-25.5 -44.5q-3 -33 15 -53q-8 -16 -18 -35.5t-19 -37t-15 -30.5t-6 -15q-2 -14 8.5 -19.5
t27.5 -3.5q26 5 41.5 20t25.5 32q10 18 23 39t23.5 40.5t17 34.5t5.5 21z" />
    <glyph glyph-name="less" unicode="&#x3c;" horiz-adv-x="496" 
d="M491 132q9 14 -2 26.5t-29 22t-37 16.5t-26 10t-33.5 14t-56 24t-53.5 23.5t-26 12.5q-9 9 5 18q2 1 19 7.5t42 15.5t54 20t55.5 20.5t46.5 17t26 9.5q8 3 23 7.5t29.5 11.5t24.5 15.5t8 19.5q4 9 2 18t-8 15.5t-15.5 9t-20.5 -1.5h-1q-35 -14 -69.5 -27.5t-69.5 -27.5
q-54 -20 -107.5 -39t-107.5 -39q-19 -7 -32.5 -15.5t-27.5 -24.5q-6 -6 -11 -18t0 -18q2 -17 16 -28.5t28 -17.5q55 -25 110.5 -48.5t111.5 -46.5q20 -8 38 -18.5t38 -18.5l1 -1q18 -6 36.5 5.5t18.5 30.5z" />
    <glyph glyph-name="equal" unicode="=" horiz-adv-x="523" 
d="M575 403q-2 5 -8.5 7t-11.5 2h-1q-35 0 -58.5 -1.5t-34.5 -1.5h-47q-47 0 -92.5 1t-92.5 1h-27q-25 0 -42 -6t-28 -14.5t-15.5 -17t-4.5 -14.5q-2 -12 7.5 -20t24.5 -8h3q17 0 30.5 1t39.5 1q56 1 111 0t111 -1h42q13 0 27 0.5t26 3t20.5 8.5t10.5 17q10 11 11.5 24
t-1.5 18zM545 234q1 11 -5.5 12t-14.5 4h-47q-17 0 -31.5 -0.5t-31.5 -0.5h-43q-45 0 -86 0.5t-82 0.5q-7 1 -12 1h-6q-41 0 -62 -6t-34 -33q-11 -9 -9 -15q0 -27 34 -27h3q22 0 46 1.5t66 1.5q33 0 67.5 -1t72.5 -1h67q20 0 34.5 1t25.5 5t20 12t17 23q5 5 8 12.5t3 9.5z
" />
    <glyph glyph-name="greater" unicode="&#x3e;" horiz-adv-x="490" 
d="M521 275q8 6 7.5 18t-2.5 18q-8 15 -18 24t-25 16q-46 20 -91.5 38.5t-90.5 39.5q-29 14 -57.5 27.5t-58.5 27.5h-1q-9 4 -18 1.5t-17 -9t-13 -15.5t-5 -18q-8 -14 2.5 -25.5t27.5 -20.5t35.5 -15t25.5 -9t34 -14.5t57 -24.5t54 -23.5t25 -11.5q11 -9 -4 -18
q-3 -2 -31.5 -12.5t-63.5 -23.5t-66 -24t-40 -14q-8 -3 -29.5 -10t-43 -16.5t-37 -22t-12.5 -26.5q-8 -19 4 -30.5t33 -5.5l1 1q23 8 46 18.5t46 18.5q66 23 130.5 46.5t131.5 48.5q16 6 35.5 17.5t28.5 28.5z" />
    <glyph glyph-name="question" unicode="?" horiz-adv-x="458" 
d="M540 520q-2 -9 -0.5 -2.5t3.5 20t2.5 31t-2.5 31.5q-6 28 -24 50t-44.5 37t-59 21t-67.5 1q-27 -4 -50 -8.5t-43 -13t-39 -21t-39 -32.5q-7 -8 -11.5 -23.5t-7 -32t-3 -30t0.5 -16.5q-2 -12 4 -21t17 -10q10 -2 13.5 4.5t5 17t4 22.5t11.5 23q25 38 64 51.5t76 9.5
q49 -5 75 -38t17 -78q-8 -35 -37 -61.5t-65.5 -49.5t-72.5 -44t-57 -43q-12 -9 -18 -20.5t-9 -23t-4 -23.5t-3 -23q-3 -15 1.5 -22t12 -9.5t17 -1.5t17.5 1q15 0 23.5 2.5t13 7.5t5.5 11.5t2 15.5l1 5t2.5 10.5t2 10.5l0.5 5q6 14 12 22.5t19 17.5t35 22t58 36q61 38 94 77
t47 84zM259 50q1 7 0 15l1 2q-2 20 -15 32t-35 12q-14 0 -27 -6.5t-22.5 -17t-15 -23.5t-4.5 -27q1 -22 16.5 -33.5t35.5 -11.5q25 0 43.5 17.5t22.5 40.5z" />
    <glyph glyph-name="at" unicode="@" horiz-adv-x="625" 
d="M616 120q9 9 9 17t-5.5 12t-15.5 3t-21 -10q-18 -14 -45 -25t-57.5 -18.5t-60.5 -11t-53 -3.5q-68 0 -113.5 18.5t-71 50t-32.5 74t4 91.5q11 53 37 98t62.5 77.5t82 50.5t95.5 18q69 0 116 -28t61 -83q5 -36 6 -74t-19 -80q-18 -36 -36 -47t-33 -8t-24.5 13.5t-9.5 16.5
q1 4 0.5 7.5t1.5 8.5q1 6 1.5 8t1 4.5t1.5 7t3 15.5q5 25 8 36.5t5.5 19.5t6 19t9.5 34q6 19 3 29t-20 9q-5 -2 -13.5 -1.5t-11.5 -4.5q-9 -4 -11 -12q-2 -5 -2.5 -8.5t-3.5 -11.5q-16 10 -32.5 16.5t-39.5 6.5q-31 0 -59.5 -11t-51 -29.5t-38 -43t-21.5 -51.5t-0.5 -49.5
t20.5 -38.5t38 -23.5t52 -5.5q22 2 48.5 11t43.5 21q3 -19 26 -33t55.5 -13t67 20.5t60.5 67.5q20 38 28.5 90.5t-2.5 105.5q-14 65 -72 103.5t-143 38.5q-59 0 -116 -23.5t-104.5 -64.5t-82 -97t-48.5 -121q-12 -56 -1.5 -105t42.5 -85t84.5 -57t124.5 -21q29 0 65.5 5
t73 15t70 25t57.5 34zM446 333q-8 -40 -35 -64.5t-70 -24.5q-32 0 -50 22.5t-11 56.5q9 44 37.5 69t70.5 25q38 0 52 -23t6 -61z" />
    <glyph glyph-name="A" unicode="A" horiz-adv-x="632" 
d="M620 31q1 9 -1.5 25.5t-6 36t-7.5 38.5t-5 31q-12 111 -24 219.5t-24 217.5q-2 15 -1.5 34t-2.5 35t-11.5 27t-26.5 11q-11 0 -33 -9t-40 -23q-14 -10 -33 -34.5t-41 -57t-47 -72t-49.5 -79.5t-48.5 -79t-45 -71q-26 -42 -48.5 -77.5t-39.5 -71.5q-27 -43 -42 -66
t-23 -38q-3 -17 6 -27t22 -10q19 0 39 18.5t39.5 45t36.5 56t29 50.5q9 9 12 16t10 12.5t20.5 9.5t43.5 7q21 2 48 1.5t54.5 -1t52.5 -1.5t42 -1q12 0 17.5 -6t7 -16t1 -20.5t0.5 -19.5q4 -33 8 -60.5t10 -47.5t14.5 -31t20.5 -11q5 0 16.5 4.5t23 10.5t19.5 12.5t7 11.5z
M486 289q-74 -5 -125.5 -2.5t-89.5 -1.5q36 62 78 122t84 130q5 8 11 17.5t8 9.5q7 -67 16.5 -137.5t17.5 -137.5z" />
    <glyph glyph-name="B" unicode="B" horiz-adv-x="615" 
d="M627 196q1 0 2.5 10.5t1.5 25.5t-3 32t-10 31q-14 28 -43 48.5t-67 30.5q-17 5 -23.5 7.5t-11.5 6.5q20 11 41 26.5t39.5 34t33 39t21.5 42.5q12 35 6 66.5t-27.5 55.5t-56 38.5t-77.5 17.5q-14 1 -40.5 -0.5t-58 -6t-64 -11t-60 -16t-45 -22t-18.5 -27.5
q3 -13 11.5 -19.5t16.5 -11t11.5 -10t-3.5 -16.5q-4 -14 -8 -28.5t-8 -28.5q-7 -26 -15 -56.5t-15.5 -63.5t-15 -66.5t-14.5 -64.5q-10 -47 -19.5 -89.5t-11.5 -76t6.5 -56t34.5 -29.5q35 -9 78 -15t90 -4q52 3 104.5 18t97 41.5t76.5 63.5t44 83zM515 542q-1 -5 -5 -16.5
t-11 -25.5t-18 -28t-26 -25q-14 -11 -33.5 -20.5t-40.5 -16t-42.5 -10t-40.5 -1.5q-9 0 -18 2.5t-17 6.5q2 8 3.5 18.5t3.5 22.5q9 42 22 85t19 72q17 12 44 19t63 7q47 0 76 -25t21 -65zM517 167q-25 -45 -76 -68.5t-114 -26.5q-45 -2 -77 3t-51 16q2 26 8 62t14 73
q7 32 13 52t17 37q26 0 54 4t54 4q33 0 65.5 -9t56.5 -28t35 -48.5t1 -70.5z" />
    <glyph glyph-name="C" unicode="C" horiz-adv-x="587" 
d="M679 566q8 37 -15.5 62.5t-60 40.5t-76 21t-63.5 5q-65 -3 -124 -34.5t-107.5 -84.5t-83.5 -124.5t-51 -154.5q-13 -67 -3 -123t39 -96.5t74 -63t103 -22.5q65 0 128 27.5t115 81.5q4 6 11 17t14 23t12 23.5t5 17.5q1 11 -7.5 19.5t-21.5 6.5q-13 -1 -26 -11t-26 -23
t-25 -26t-22 -21q-29 -23 -54 -32t-56 -11q-45 -3 -78.5 11t-54 44t-27 76t3.5 106q9 57 30 107.5t51 89t68 62.5t82 28q15 1 35.5 -1t39.5 -7t34 -11t20 -12q9 -9 12.5 -23.5t3.5 -28.5t-1.5 -25t-0.5 -12q6 -10 22 -10q17 0 30.5 8t23.5 20.5t17 28t10 31.5z" />
    <glyph glyph-name="D" unicode="D" horiz-adv-x="638" 
d="M684 349q12 59 5.5 113.5t-32 99t-71 75t-110.5 40.5q-29 8 -64 10t-80 2q-31 0 -60 -3t-52 -10.5t-37.5 -19.5t-15.5 -31q1 -14 7.5 -19t12.5 -9.5t9 -12t-3 -25.5l-47 -164q-4 -14 -10 -40.5t-12.5 -56.5t-13 -58.5t-10.5 -46.5q-11 -48 -16.5 -77.5t-7 -46.5t2 -24
t9 -10.5t14 -6t18.5 -10.5q27 -14 67 -21.5t79 -7.5q74 0 142 26.5t123.5 74t95.5 113.5t57 146zM590 357q-11 -63 -37.5 -115.5t-65 -90t-87 -58t-103.5 -20.5q-38 0 -65 10.5t-47 24.5q5 31 11.5 68.5t16.5 82.5l20 94q20 97 38 161.5t29 89.5q21 2 47 2.5t51.5 -2
t47.5 -8t34 -15.5q69 -18 98 -76.5t12 -147.5z" />
    <glyph glyph-name="E" unicode="E" horiz-adv-x="542" 
d="M527 73q0 26 -27 26q-5 0 -11 -2q-57 -12 -109 -17.5t-104 -6.5q-32 0 -53 5t-28 18q0 10 1.5 28t4.5 40t7.5 47t9.5 49q2 11 5 21t5 20q11 9 26 13.5t36 7.5t48.5 4t64.5 3q23 1 37.5 2.5t31.5 6.5h18q22 7 37.5 21t16.5 28q1 13 -7.5 20.5t-29.5 7.5q-19 0 -50 -2.5
t-66 -5.5t-71 -6t-64 -4q-2 27 3.5 58.5t13 60t15 50.5t10.5 30q13 7 32 11.5t40.5 6.5t43.5 2.5t40 0.5h31q15 0 30 -0.5t29.5 0t26.5 3t20 8.5q14 6 22.5 17.5t8.5 21.5q3 23 -26 29.5t-86 6.5h-19q-33 0 -67.5 -1.5t-66.5 -4.5t-60 -7t-48 -9q0 1 -5 0.5t-10.5 -2l-11 -3
t-6.5 -1.5q-21 -4 -31.5 -10t-14.5 -26q-1 -9 3.5 -17t9.5 -18.5t7.5 -25.5t-2.5 -37q-9 -42 -26 -93.5t-28 -99.5q-2 -10 -3.5 -19.5t-3.5 -19.5l-7 -36q-21 -99 -28 -156.5t7.5 -86t55 -36t113.5 -7.5q58 0 106.5 5.5t83 16t53 26.5t16.5 38z" />
    <glyph glyph-name="F" unicode="F" horiz-adv-x="462" 
d="M593 664q1 19 -33.5 26.5t-100.5 7.5q-51 0 -107.5 -5t-103.5 -10q-2 2 -9 0.5t-9 -1.5q-25 -3 -41.5 -13.5t-17.5 -29.5q-3 -22 1.5 -48.5t-3.5 -59.5q-13 -53 -27.5 -111.5t-27.5 -121.5q-17 -81 -30 -154.5t-18 -121.5q-2 -16 5.5 -26.5t21.5 -10.5q5 0 12.5 -0.5
t14.5 -0.5q8 0 14.5 1.5t8.5 6.5q18 7 26 20t10.5 28t2 29.5t0.5 24.5q4 48 10 85t14 72q4 18 8 33t9 26q19 7 36.5 10.5t35.5 3.5h11q20 0 44 0.5t47 0.5h27q13 1 27 6t25.5 12t19.5 16.5t9 20.5q0 14 -15 21.5t-59 7.5q-29 0 -59.5 -2t-60.5 -4q-6 -1 -13 -1t-15 -1
q-26 -2 -43 1q1 9 3 21.5t5 27.5q4 19 9 39.5t10 40t10.5 37t10.5 30.5q33 10 74.5 11t80.5 1q40 0 71.5 1t43.5 11q15 8 24 20t11 22z" />
    <glyph glyph-name="G" unicode="G" horiz-adv-x="645" 
d="M656 231q22 48 26 76.5t-3 43t-22 18.5t-31 3q-23 -1 -51.5 -2t-56.5 -1h-54q-25 0 -41 2q-18 -1 -29 -7.5t-16.5 -15.5t-7.5 -19.5t-2 -17.5q-2 -14 10.5 -23t28.5 -6q36 6 72.5 3t73.5 -1q0 -3 5 -3q6 0 11.5 -2.5t7 -9t-7.5 -22.5q-12 -39 -34 -71.5t-52.5 -56
t-69.5 -35t-84 -8.5q-85 6 -119 69t-10 178q12 55 38.5 108.5t63.5 96.5t82 69.5t92 28.5q28 1 56 -0.5t50 -7t35.5 -17t13.5 -30.5q1 -7 -0.5 -16t-0.5 -17t8 -14t25 -7q4 0 10.5 5t14 13t14 17.5t10.5 18.5q18 40 3 67t-49 43.5t-81 23t-93 4.5q-77 -3 -142.5 -40
t-116 -93.5t-84.5 -125.5t-48 -136q-16 -77 -7 -138t40 -103t81 -64.5t115 -22.5q50 0 100.5 17t95 48.5t78.5 77t52 102.5z" />
    <glyph glyph-name="H" unicode="H" horiz-adv-x="616" 
d="M728 661q4 13 -1 20t-14 9q-9 5 -24.5 4.5t-25.5 -5.5q-19 -4 -30 -12t-17 -19t-8 -23t-3 -24q1 -8 0.5 -11t-2.5 -9q-13 -62 -27 -111.5t-23 -83.5h-82h-87t-87 -2t-80 -6l17 73q13 51 26 97.5t23 79.5q1 2 2.5 7.5t2 12t1 11.5t0.5 6q-2 4 -6 9t-11.5 8.5t-19 4.5
t-27.5 -3q-21 -5 -32.5 -21.5t-17.5 -37.5t-9 -44t-8 -41q-15 -57 -28.5 -113t-26.5 -116l-17 -80q-7 -33 -13.5 -65.5t-12 -61.5t-9 -54t-4.5 -43q0 -13 7 -21t20 -8q7 0 21 6.5t28 17.5t24 25.5t9 31.5q5 32 10.5 68t13.5 72q4 18 9 45.5t10 47.5q47 5 90.5 7t84.5 2
t80 -0.5t77 -0.5q-2 -11 -5 -23l-6 -24q-15 -77 -23.5 -129t-10.5 -83.5t4 -45t21 -13.5q10 0 20 -3t12 3q16 6 26 17.5t16 25t8.5 28.5t2.5 29q1 32 6.5 70t15.5 85l12 56q17 83 31 141.5t25 98t19 63t13 35.5t7.5 15.5t2.5 4.5z" />
    <glyph glyph-name="I" unicode="I" horiz-adv-x="272" 
d="M248 19q2 12 -6.5 21.5t-19.5 19.5t-19 21t-5 25q1 13 5 36.5t9.5 52t12.5 61t14 64.5l6 31q11 53 25.5 106.5t28.5 104.5q13 15 27 29.5t26 27t20 21.5t8 14q1 14 -8 22t-23.5 12t-31.5 4q-16 0 -28 -1q-62 -5 -88 -14.5t-30 -34.5q-2 -17 1 -25.5t7.5 -15.5l9 -14
t4.5 -21q-2 -10 -2.5 -19.5t-1.5 -18.5q-17 -58 -31.5 -118t-26.5 -118q-9 -42 -15.5 -73.5t-10 -56t-5.5 -43.5t-2 -36q0 -11 -8 -20.5t-18 -19.5t-19 -20.5t-9 -22.5q0 -10 15.5 -13.5t36 -4t39 1t23.5 1.5q13 1 28.5 2.5t29 5.5t23 10t9.5 16z" />
    <glyph glyph-name="J" unicode="J" horiz-adv-x="469" 
d="M583 672q1 7 -9 11t-24 7t-28.5 4t-23.5 2q-18 1 -39.5 -1t-40 -7.5t-31.5 -15t-14 -23.5q-4 -8 1 -12t13 -7.5t17.5 -7.5t16.5 -12t9 -20.5t-5 -32.5q-5 -35 -12.5 -73.5t-15.5 -77t-16.5 -75t-14.5 -67.5q-11 -50 -21 -85.5t-22.5 -59.5t-28.5 -37t-38 -16q-3 -4 -5 -4
q-22 0 -40 8.5t-31 22t-21 30t-9 33.5q-3 31 -28 31q-10 0 -15 -3.5t-9 -8.5l-10 -12.5t-17 -14.5q-4 -5 -6 -10.5t-4 -12.5q-3 -34 11 -61.5t38.5 -47.5t55 -31t60.5 -11q19 0 39.5 7.5t40.5 20.5t38 28.5t32 32.5q41 48 63.5 111.5t40.5 148.5q10 46 19.5 89.5t16.5 90.5
q8 52 19.5 80.5t21.5 44t17.5 24t8.5 20.5z" />
    <glyph glyph-name="K" unicode="K" horiz-adv-x="572" 
d="M552 41q0 9 -8.5 19.5t-21.5 21.5t-27 22.5t-25 23.5q-30 31 -58 64t-51.5 63t-41 54.5t-26.5 38.5q6 7 29.5 28t57 50t75 63.5t83.5 69.5q39 32 61.5 52t24.5 30q4 18 -10.5 34t-30.5 16q-12 0 -28 -15q-26 -23 -58 -51t-65.5 -57.5t-67 -57t-62 -50t-49.5 -37
t-30 -17.5q1 13 8.5 42.5t16.5 64t18.5 69t16.5 56.5q4 8 4.5 10t0.5 5t1.5 9.5t-0.5 13t-10.5 12.5t-28.5 7t-33.5 -8t-22.5 -21.5t-14 -25.5t-7 -21l-18.5 -74t-21 -87.5t-21 -92t-19.5 -88.5q-17 -81 -28 -151t-13 -110q-1 -11 4.5 -19.5t16.5 -10.5q7 -2 19.5 2t26 13.5
t24.5 24t15 33.5q2 7 2 14q0 8 2 18q4 43 11.5 84.5t18.5 95.5q3 15 5.5 22.5t6.5 12.5q4 -4 8 -8.5t9 -10.5q38 -57 78 -111t76.5 -97t67.5 -69t52 -26q9 0 19 6t18.5 14.5t14 18.5t5.5 18z" />
    <glyph glyph-name="L" unicode="L" horiz-adv-x="489" 
d="M473 58q1 13 -6 21.5t-20 8.5q-2 0 -6.5 1t-10.5 0q-32 -4 -57 -6t-46 -3t-40 -1q-18 0 -37 -1q-59 -3 -86 18q2 23 7.5 52t12.5 61l11 50q9 44 20 91.5t23 95t25 92.5t25 84q3 11 6 19.5t5 16.5q3 4 -2 11.5t-14.5 13.5t-24 9t-31.5 -1q-9 -4 -23.5 -14t-18.5 -27
q-9 -36 -21 -85.5t-24.5 -101.5t-24.5 -102t-20 -86q-14 -64 -25.5 -113t-11 -83.5t16.5 -55t57 -27.5q20 -4 46 -4.5t56 0.5q51 2 95 5.5t76.5 10.5t50.5 19t17 31z" />
    <glyph glyph-name="M" unicode="M" horiz-adv-x="755" 
d="M752 121q16 91 29.5 186t16.5 190q0 9 1.5 33.5t2.5 52t1 50.5q0 24 -3 30q-4 11 -9 17t-17 10q-21 6 -40.5 1.5t-37.5 -18t-33 -34.5t-27 -46l-24 -51q-45 -90 -91 -184t-104 -179q-8 29 -10.5 63t-6.5 65q-10 82 -17 164.5t-16 164.5q-2 12 -6 24t-11.5 20.5t-19 12
t-26.5 0.5q-10 -2 -24 -6t-27 -10t-23.5 -16t-14.5 -24q-14 -48 -29 -95.5t-32 -95.5q-23 -69 -37.5 -138.5t-38.5 -138.5q-5 -13 -10.5 -32t-10.5 -38.5t-9.5 -38t-6.5 -29.5q-3 -16 -4.5 -25t14.5 -15q8 -3 19.5 1t23 11.5t22 16.5t15.5 15q7 8 14.5 36t13.5 60.5t11.5 61
t8.5 38.5q5 16 12 40.5t15.5 52.5t17.5 57t18 55t17.5 46.5t16.5 31.5q8 -28 10.5 -66.5t5.5 -68.5q8 -64 15 -127.5t15 -127.5q1 -12 3 -33t7 -40.5t15 -34t27 -14.5q21 0 37.5 13t30 32t24.5 40t19 36l25.5 51t26.5 51q32 62 65 122.5t65 122.5q7 12 13.5 24t14.5 23
q4 -17 4 -36q0 -18 -1 -36q-2 -50 -4.5 -89.5t-7.5 -82t-14.5 -95.5t-25.5 -129q-4 -19 3 -38.5t30 -19.5q16 0 28 16t20.5 37.5t14.5 43.5t10 33z" />
    <glyph glyph-name="N" unicode="N" horiz-adv-x="633" 
d="M622 84q5 36 12.5 81.5t18.5 98.5l10 48q9 41 19.5 85.5t21 87.5t20 82.5t16.5 71.5q7 31 2 43.5t-19 12.5q-10 3 -24.5 1t-28.5 -9t-24.5 -17.5t-11.5 -23.5q-8 -71 -23.5 -147.5t-34.5 -164.5l-15 -71q-4 -20 -6 -31t-3 -19t-2 -15t-2 -17q-3 -21 -9 -35
q-23 28 -50 76.5t-55 109t-55 128.5t-51 135q-13 37 -25.5 57t-25.5 28.5t-27 8t-29 -4.5q-20 -5 -32 -17.5t-15 -26.5q-5 -27 -10.5 -55t-12.5 -65t-17.5 -87.5t-25.5 -122.5q-12 -56 -23.5 -105t-21 -86.5t-15.5 -61.5l-7 -28q-4 -16 5 -27t25 -11q11 0 25 9.5t26.5 24
t21.5 31.5t11 31q3 28 10 67t18 94l10 47q12 54 24 113t31 110q6 -10 12 -20.5t11 -23.5q26 -63 56 -134.5t60 -136.5t57.5 -116t47.5 -74q2 -1 6 -1q5 -3 21.5 -3.5t35 3.5t34 14t18.5 27q12 15 15 31z" />
    <glyph glyph-name="O" unicode="O" 
d="M714 360q2 4 5 23t4.5 44t1 52t-3.5 47q-6 40 -25.5 73t-49 56.5t-68.5 36t-84 12.5q-64 0 -126.5 -29.5t-115.5 -81t-92.5 -121.5t-56.5 -151q-15 -71 -6 -132.5t38 -107t76 -71.5t109 -26q65 0 127.5 29t115.5 79.5t92.5 119t58.5 148.5zM623 372q-11 -63 -37 -118
t-62.5 -95t-81.5 -63t-93 -23q-47 0 -81.5 21t-54 57t-24 85t7.5 105q13 61 39.5 113t62 89t79 58t90.5 21q32 0 59 -6t48 -21t35 -39.5t20 -61.5q4 -21 1.5 -53.5t-8.5 -68.5z" />
    <glyph glyph-name="P" unicode="P" horiz-adv-x="565" 
d="M644 505q10 47 -1 85.5t-41.5 65t-79 39.5t-112.5 10q-38 -2 -80.5 -7t-79 -15t-60.5 -27t-24 -43q0 -6 4 -8.5t10 -4t11.5 -3.5t7.5 -5q3 -5 4 -11t-4 -22q-9 -32 -20 -73.5t-22 -85.5t-21 -86.5t-17 -76.5q-13 -61 -23 -108.5t-10 -78.5q0 -30 13.5 -41.5t46.5 0.5
q22 8 30.5 18t10.5 33q2 21 5 39.5t6 36.5t7 37t8 42q3 19 5 28t9.5 12.5t24.5 4t51 2.5q64 3 121.5 23.5t103 53.5t76 75.5t40.5 90.5zM542 490q-11 -37 -37.5 -66.5t-62.5 -49.5t-80 -29.5t-90 -4.5q-20 0 -28 7q3 20 12 56t20 76t21.5 78t17.5 62q15 7 41 10t59 3
q37 0 65 -10t45 -28.5t21.5 -45t-4.5 -58.5z" />
    <glyph glyph-name="Q" unicode="Q" horiz-adv-x="670" 
d="M716 -90q12 13 15 25t-1 20.5t-13 13t-19 3.5q-12 -5 -28 -13t-31.5 -15t-29 -10.5t-21.5 1.5q-5 3 -11.5 14.5t-15 29t-18 38.5t-18.5 42q66 51 116 129t73 172q2 4 5 23t4.5 44t1 52t-3.5 47q-6 40 -25.5 73t-49 56.5t-68.5 36t-84 12.5q-64 0 -126.5 -29.5t-115.5 -81
t-92.5 -121.5t-56.5 -151q-15 -71 -6 -132.5t38 -107t76 -71.5t109 -26q32 0 62.5 7t61.5 20q14 -29 28 -56.5t26.5 -49.5t22 -37t15.5 -18l8 -5q18 -11 39.5 -12t44.5 7.5t45.5 26t42.5 43.5zM623 372q-14 -76 -48 -138.5t-82 -103.5q-2 4 -4 7.5t-4 7.5q-4 13 -16 34.5
t-25.5 42.5t-25.5 38.5t-17 24.5q-14 19 -30.5 18.5t-28.5 -13.5t-14 -36t13 -48q3 -2 9.5 -12t15.5 -27t19.5 -39t22.5 -46q-29 -9 -59 -9q-47 0 -81.5 21t-54 57t-24 85t7.5 105q13 61 39.5 113t62 89t79 58t90.5 21q65 0 108.5 -31.5t55.5 -100.5q4 -20 0.5 -51t-9.5 -67
z" />
    <glyph glyph-name="R" unicode="R" horiz-adv-x="608" 
d="M588 44q1 7 -18.5 29.5t-51 55t-70.5 74t-78 86.5q10 5 26 10.5t35.5 12.5t41 16t42.5 21q45 26 76 58t46 73q17 49 9 89t-38 68.5t-81 44t-121 15.5q-35 0 -75 -3.5t-75 -11t-59 -19t-27 -27.5q-2 -11 1.5 -17.5t9 -11t11 -7.5t7.5 -5q1 -5 2 -13.5t-1 -16.5
q-8 -29 -18.5 -68.5t-21.5 -80.5t-20.5 -79t-15.5 -65l-6 -29q-6 -30 -12.5 -61t-11 -60t-7.5 -54t-2 -43q-2 -31 26 -31q14 0 28 8t26 22t19.5 32t9.5 38q2 29 7 58t10 55q5 21 9.5 37.5t9.5 26.5q6 -4 26.5 -22t48.5 -45t60 -59.5t61 -65.5q9 -10 21 -24t25.5 -27
t26.5 -22t24 -9q10 0 22 6t22.5 13.5t16.5 15.5t4 12zM530 479q-10 -29 -34 -52t-57 -38.5t-72.5 -24t-80.5 -8.5q-23 0 -39 6q2 10 5.5 21t8.5 28t11.5 41.5t14.5 62.5q6 26 13 51t12 44q17 4 47.5 7t61.5 3t57 -12.5t42 -32.5t19.5 -45t-9.5 -51z" />
    <glyph glyph-name="S" unicode="S" horiz-adv-x="582" 
d="M596 204q13 39 6.5 71.5t-29 56.5t-60 40.5t-87.5 24.5q-23 6 -47.5 11t-44.5 10q-86 25 -86 78q0 23 12.5 43.5t34 36.5t50 25.5t61.5 11.5q15 1 36.5 -1t40.5 -8.5t31.5 -17.5t8.5 -28q1 -11 -3.5 -22t-0.5 -12q9 1 24 8t29.5 17t24 21t6.5 22q5 4 5.5 10t-1 12
t-4.5 12t-4 12q-6 16 -21.5 26t-35 16t-40.5 8t-39 2q-50 0 -105 -16t-101.5 -44t-78 -67.5t-34.5 -85.5q-5 -65 39.5 -101.5t146.5 -55.5q30 -6 61.5 -13.5t56.5 -20t40 -31t14 -45.5q-2 -33 -24 -59.5t-56.5 -44.5t-76 -27.5t-81.5 -7.5q-23 1 -44 5.5t-37.5 14t-28 24
t-15.5 35.5q2 9 -7.5 14.5t-16.5 5.5q-23 0 -37.5 -18t-18.5 -37q-6 -30 9 -54.5t44.5 -41.5t69.5 -25.5t84 -5.5q29 2 60 5t61.5 12t61.5 25t60 43q14 7 27.5 23t25 35t20.5 38.5t14 34.5z" />
    <glyph glyph-name="T" unicode="T" horiz-adv-x="606" 
d="M720 671q4 16 -10.5 21.5t-35.5 5.5q-20 0 -41 -3t-31 -3q-72 -2 -143.5 -6.5t-143.5 -4.5q-18 0 -37.5 4.5t-36.5 1.5q-8 -2 -20.5 -8.5t-24 -15.5t-20 -19.5t-9.5 -19.5q0 -11 5 -16.5t13.5 -8t18 -3t17.5 -0.5q33 0 65.5 0.5t65.5 1.5q12 0 17.5 -2t6.5 -7t-1 -12
t-4 -17q-14 -55 -27.5 -109.5t-24.5 -110.5q-8 -34 -17 -74.5t-17 -81.5t-13.5 -80.5t-5.5 -72.5q0 -13 5.5 -23.5t20.5 -10.5q14 0 31 10.5t28 20.5q9 7 14.5 13.5t7.5 13t3 14t1 17.5q1 29 6.5 65t12 73.5t14.5 73.5t14 66q10 48 22.5 96t24.5 96q2 8 3 16.5t4 15t9 11.5
t17 5q20 1 53.5 -0.5t67.5 2.5t61 18.5t34 46.5z" />
    <glyph glyph-name="U" unicode="U" horiz-adv-x="630" 
d="M737 636q6 22 2.5 37.5t-19.5 20.5q-14 4 -29.5 2t-29 -10t-23.5 -20.5t-12 -29.5q-2 -13 -4 -24t-5 -24q-17 -79 -36 -153.5t-39 -142.5q-32 -105 -84.5 -164.5t-130.5 -59.5q-66 0 -103 41t-34 107q2 23 6 50.5t11 61.5q6 28 16 69.5t21 86t22 86t20 70.5q2 5 2.5 6.5
t0.5 3.5q1 37 -27 42q-11 1 -25.5 -3.5t-28.5 -13.5t-24 -22t-12 -28q-1 -9 -2 -15.5t-3 -13.5l-6 -29q-14 -63 -29.5 -125t-26.5 -110q-11 -51 -15.5 -90.5t-2 -71.5t11.5 -57.5t26 -47.5q58 -78 184 -78q139 0 225.5 95.5t131.5 288.5q7 31 15 67t16.5 71t18.5 68t21 59z
" />
    <glyph glyph-name="V" unicode="V" horiz-adv-x="600" 
d="M727 673q2 11 -4.5 19.5t-17.5 10.5q2 0 -9 -1t-26 -5.5t-31 -13.5t-25 -27q-27 -39 -45.5 -72.5t-32.5 -62t-25 -52.5t-21 -45q-34 -62 -63.5 -121.5t-69.5 -125.5q-16 -27 -30 -43q-4 10 -11.5 56t-16.5 110t-18.5 137.5t-17.5 139.5l-4 36q-2 12 -2.5 25t-2.5 24.5
t-6.5 20t-12.5 11.5q-4 1 -16.5 -0.5t-26.5 -6.5t-25.5 -14t-11.5 -22q-2 -48 9.5 -104.5t18.5 -107.5q8 -68 16 -131.5t16 -118t16.5 -97t17.5 -67.5q12 -35 41 -35q15 0 31 10t31 25.5t29 35t26 38.5q19 30 47.5 82.5t61 114t66.5 126t64 117.5q10 18 23.5 39.5t26.5 41.5
t22 34.5t9 18.5z" />
    <glyph glyph-name="W" unicode="W" horiz-adv-x="920" 
d="M1045 671q1 14 -5.5 23t-19.5 9q-14 0 -35.5 -11.5t-41.5 -28.5q-19 -38 -37.5 -79.5t-41 -91.5t-50.5 -112.5t-64 -141.5q-11 -25 -19.5 -42.5t-15.5 -30.5t-12 -22.5t-10 -17.5q-6 12 -10.5 45t-8 76t-6.5 91t-5 92t-3 78.5t-2 49.5q-1 24 -3.5 48.5t-7 43.5t-12.5 31
t-20 12q-13 0 -29.5 -12t-34.5 -32.5t-38 -47.5t-39 -58q-20 -53 -46.5 -114.5t-52.5 -118t-49.5 -102t-38.5 -64.5q-2 3 -4 25t-4.5 52.5t-4.5 64.5t-2 60q-1 44 -1 92q0 49 -1 93.5t-3 80.5t-8 54q-6 17 -20 24t-25 5q-12 -2 -27 -14.5t-22 -19.5l-6 -5q-2 -3 -3 -6.5
t-3 -5.5q6 -19 6 -42q0 -22 2 -43q4 -68 6 -137.5t5 -136t7.5 -128.5t12.5 -114q7 -50 52 -50q26 0 51 17.5t41 47.5q0 2 -0.5 2.5t-0.5 2.5q15 28 33 63t38 74.5t40.5 82t40.5 86.5q14 32 24 54.5t18 39t15 29t15 24.5q13 -83 17.5 -171.5t10.5 -162.5q4 -53 8.5 -89.5
t11.5 -59.5t18.5 -33.5t31.5 -10.5q28 0 51.5 20.5t44.5 53t39.5 73t36.5 80.5q39 85 80 168t79 168q5 11 14.5 28.5t19.5 36t17 34t6 21.5z" />
    <glyph glyph-name="X" unicode="X" horiz-adv-x="619" 
d="M608 30q1 10 -14 38.5t-35.5 62.5t-40 66.5t-28.5 50.5q-13 27 -26.5 53t-25.5 53q33 37 72 81t76.5 85t69.5 75t50 52q11 11 10 21q2 17 -12 25t-30 4q-20 0 -37 -10t-33.5 -26.5t-33 -37.5t-34.5 -43q-11 -13 -29.5 -33.5t-38 -42t-38 -40t-28.5 -26.5q-11 12 -23.5 33
t-24.5 45t-23.5 49.5t-20.5 47t-15.5 37.5t-9.5 21q-8 19 -20 23.5t-29 2.5q-16 -2 -30 -13t-24 -26q3 -16 12.5 -38t21.5 -46t25.5 -48t23.5 -45q14 -31 30.5 -60.5t30.5 -60.5q-36 -41 -77 -86t-80 -87.5t-72.5 -78.5t-54.5 -57q-14 -14 -18.5 -22t-4.5 -16q-2 -9 4 -16.5
t17 -8.5q25 -5 50 7.5t46 31.5t36.5 38.5t21.5 27.5q13 16 35.5 41.5t48 52.5t49.5 51.5t40 38.5q5 -7 10 -16t11 -21q21 -47 41.5 -92t38.5 -80t33.5 -57t28.5 -22q7 -3 19.5 0t25.5 9.5t22.5 15t10.5 16.5z" />
    <glyph glyph-name="Y" unicode="Y" horiz-adv-x="593" 
d="M723 689q1 12 -8 22.5t-23 10.5q-24 0 -43 -13t-34.5 -31t-28 -38.5t-22.5 -35.5q-38 -53 -67.5 -90t-52 -63t-38.5 -43.5t-28 -31.5q-8 11 -21.5 38t-29 63t-32.5 78.5t-32 85.5q-11 28 -19 41.5t-24 13.5q-18 0 -36 -13t-29 -33q4 -22 17 -62t30 -82.5t36 -80.5t34 -55
q4 -11 12.5 -21.5t16 -22t12 -25t0.5 -28.5q-18 -64 -28.5 -119.5t-23.5 -98.5q-9 -30 -5.5 -48t21.5 -20q11 -1 25 6t27.5 17.5t24.5 23.5t16 24q9 38 14.5 75t14.5 73t24.5 72.5t43.5 74.5q22 31 52 69t61 76.5t59.5 74t48.5 61.5q14 15 24.5 32.5t10.5 22.5z" />
    <glyph glyph-name="Z" unicode="Z" horiz-adv-x="628" 
d="M612 60q2 20 -19.5 26t-64.5 4q-68 -3 -139.5 -2.5t-149.5 -0.5q-14 0 -26 1t-21 4q10 13 23 30.5t27 31.5q54 67 115 133t120 124.5t112 105t91 74.5q31 23 32 40q2 22 -31 39.5t-90 17.5q-50 0 -100.5 -1.5t-96.5 -2.5t-83.5 -0.5t-61.5 5.5q-30 -3 -52 -24t-30 -43
q-2 -12 6 -19.5t20 -7.5q36 0 60 3t50 4q38 2 73 -1.5t73 -2.5q17 1 33 1t33 1q22 1 38 -3q-8 -9 -27 -27.5t-42.5 -41t-47.5 -46.5t-42 -43q-47 -50 -96.5 -103.5t-94.5 -102.5t-80.5 -88.5t-54.5 -61.5q-12 -15 -16.5 -25.5t-4.5 -21.5q-1 -21 13 -34t37 -13h19t22 1
q56 4 99.5 5.5t82.5 2t78.5 0t87.5 -0.5h11q19 0 39 5t37 14t28 20.5t11 23.5z" />
    <glyph glyph-name="bracketleft" unicode="[" horiz-adv-x="306" 
d="M226 -34q-25 0 -45 -1t-46 -3q24 180 63.5 362.5t94.5 363.5q10 -2 20 -1.5t21 0.5q39 0 61.5 13.5t29.5 30t-1.5 30.5t-30.5 14q-11 0 -19.5 -0.5t-16 -1.5t-15.5 -1.5t-19 -0.5q-15 0 -23.5 1t-16.5 1t-17.5 -1.5t-25.5 -6.5q-17 -5 -27.5 -10.5t-15.5 -25.5
q-1 -1 -3.5 -11.5t-5 -23.5t-4.5 -25t-3 -16q-17 -75 -36 -149.5t-35 -149.5q-17 -79 -34.5 -157.5t-32.5 -158.5q-5 -19 -8 -37.5t-6 -37.5q-2 -14 -4.5 -29t-0.5 -28t10.5 -21t26.5 -8q27 0 55 1t55 1q40 0 62 13.5t28 30t-3.5 30t-31.5 13.5z" />
    <glyph glyph-name="backslash" unicode="\" horiz-adv-x="439" 
d="M416 25q-2 3 -3.5 9.5t-3.5 20.5l-3 13q-14 56 -27 119t-25.5 127.5t-24 128t-23.5 121.5q-5 27 -8.5 55t-11 51.5t-21.5 38t-39 14.5q-11 5 -25.5 -2t-16.5 -18q0 -3 2 -9q20 -51 39 -132.5t39 -186.5l39 -201q7 -33 11.5 -64.5t12 -56t19.5 -39.5t35 -15q8 0 21 7.5
t14 18.5z" />
    <glyph glyph-name="bracketright" unicode="]" horiz-adv-x="306" 
d="M286 38q18 80 34 158.5t33 157.5q16 75 28.5 149.5t26.5 149.5l4 16t6 25t5 23.5t1 11.5q5 20 -3 25.5t-24 10.5q-14 5 -22.5 6.5t-16.5 1.5t-17.5 -1t-24.5 -1q-11 0 -18.5 0.5t-15 1.5t-15.5 1.5t-19 0.5q-22 0 -36 -14t-14 -31q0 -16 17 -29.5t56 -13.5
q11 0 20.5 -0.5t20.5 1.5q-22 -181 -60.5 -363.5t-91.5 -362.5q-23 2 -43.5 3t-45.5 1q-23 0 -37.5 -13.5t-15 -30t16 -30t55.5 -13.5q28 0 54.5 -1t53.5 -1q18 0 30 8t19.5 21t12 28t8.5 29q5 19 9 37.5t9 37.5z" />
    <glyph glyph-name="asciicircum" unicode="^" horiz-adv-x="433" 
d="M508 486l-2 8q-3 2 -4 6q-11 28 -27.5 63t-34.5 73q-4 8 -8 16.5t-6 16.5q-4 8 -8 15.5t-8 13.5q-9 13 -20.5 21t-28.5 6q-15 -2 -25.5 -6t-22.5 -16q-3 -3 -6 -6.5t-7 -8.5q-57 -60 -115 -136q-14 -19 -24 -30t-15 -17q-10 -11 -11 -16.5t1 -10.5q2 -8 12.5 -13.5
t21.5 -6.5q13 -2 28.5 2.5t26.5 17.5l4 6.5t17 23.5q25 32 51 62.5t52 61.5q8 -16 21 -44.5t23 -60.5l4 -16q3 -10 5.5 -19.5t8.5 -17.5q15 -16 50 -16q17 0 30 8t17 20z" />
    <glyph glyph-name="underscore" unicode="_" horiz-adv-x="711" 
d="M645 -171q-1 11 -12.5 12t-27.5 4h-56h-34t-24 -0.5t-23 -0.5h-33h-52h-61h-33t-31.5 0.5t-53.5 0.5q-12 0 -20 0.5t-13 0.5q-38 0 -65.5 0.5t-48 -1t-34.5 -8t-23 -19.5q-8 -5 -9.5 -14t0.5 -12q3 -27 65 -27h6q19 0 39.5 0.5t44 1t52.5 1t67 0.5q30 0 41 -0.5t19 -0.5
t20.5 -0.5t46.5 -0.5h68q36 0 64 -2t49 -1t37 6t28 20q4 3 5.5 9t2 13t0 12t-0.5 6z" />
    <glyph glyph-name="grave" unicode="`" horiz-adv-x="230" 
d="M316 560q11 9 8.5 27.5t-11.5 38.5t-20 39t-18 30q-14 22 -33.5 29.5t-43.5 -13.5q-22 -19 -19.5 -38.5t15.5 -39.5q9 -9 24.5 -25.5t33.5 -30.5t35 -20.5t29 3.5z" />
    <glyph glyph-name="a" unicode="a" horiz-adv-x="472" 
d="M450 31q-1 40 1.5 68t10.5 61q5 22 9.5 44t10.5 46q3 14 6 26.5t5 23.5q2 9 7 28.5t7 44t-3 49.5t-22 45.5t-50.5 32.5t-89.5 9q-34 -2 -65.5 -10t-58.5 -21t-46.5 -31t-29.5 -40q0 -2 1 -7t2 -10.5t2.5 -10t3.5 -4.5t11.5 -1.5t14.5 1.5q10 5 20.5 13.5t26 17t39 16
t58.5 9.5t55.5 -4.5t30.5 -18t12.5 -27t0.5 -30.5t-6 -27.5t-5 -19.5q0 1 -3 6t-25 12.5t-74 9.5q-22 1 -57.5 -4t-71.5 -24t-67.5 -55.5t-44.5 -99.5q-10 -48 -2.5 -80t27.5 -51.5t51 -27t68 -4.5q35 3 72 18t73 44q3 -28 11.5 -46t26.5 -18q7 0 17 4.5t18.5 11t15 15
t6.5 16.5zM389 227q1 -6 0.5 -20.5t-5.5 -33t-16 -39.5t-30 -40q-25 -16 -52 -27t-62 -11q-48 0 -69.5 26t-11.5 70q4 22 18.5 42t36 35t49 24t58.5 9q28 0 48.5 -10.5t35.5 -24.5z" />
    <glyph glyph-name="b" unicode="b" horiz-adv-x="519" 
d="M543 240l5 28q11 52 2.5 95t-32.5 73t-61 45t-82 11q-25 -2 -48.5 -11t-42.5 -19t-32.5 -19t-18.5 -12q3 22 7 44.5t9 45.5l16 72q3 16 8 33.5t10 32t8 24.5l3 10q-2 6 -9 6q-3 4 -15.5 6t-28.5 -2.5t-30 -16.5t-20 -35q-5 -12 -14 -45t-19.5 -79t-22.5 -99t-23 -104
q-6 -28 -16.5 -69.5t-21.5 -84t-19.5 -80t-10.5 -57.5q-6 -18 -4 -27.5t7 -13t11 -3.5t10 1q4 -7 11.5 -6.5t15 5t13 12t4.5 15.5q8 10 7.5 18.5t5.5 17.5q15 -38 46.5 -50.5t83.5 -12.5q49 0 96 19.5t86 53.5t67 80t39 98zM454 232q-9 -35 -26.5 -64.5t-41 -51t-52 -33.5
t-59.5 -12q-36 0 -57 18t-40 40q-2 23 -0.5 50.5t8.5 57.5l1 6q6 27 15 52t21 47q32 32 65.5 51.5t72.5 19.5q20 0 38.5 -5.5t32.5 -16.5t21.5 -28.5t6.5 -42.5q3 -4 3.5 -13.5t-0.5 -22t-3.5 -26.5t-5.5 -26z" />
    <glyph glyph-name="c" unicode="c" horiz-adv-x="462" 
d="M455 112q0 9 -5.5 16t-16.5 7q-5 0 -9.5 -2.5t-14.5 -9.5q-27 -20 -58.5 -37t-57.5 -19q-37 -3 -63.5 8.5t-42 34t-19.5 55.5t5 74q7 34 24 67t39.5 59.5t49 43t53.5 16.5q29 0 45.5 -15t30.5 -40q-2 -8 6.5 -12t16.5 -4q3 0 11.5 4t17.5 10.5t16.5 15t9.5 18.5
q6 19 -3 37.5t-29.5 32t-49.5 21t-62 4.5q-47 -4 -91.5 -28.5t-81.5 -63t-62.5 -87.5t-33.5 -102q-8 -52 2 -96t35 -75.5t64.5 -47.5t91.5 -12q31 3 64 15t59.5 30t43 39.5t15.5 42.5z" />
    <glyph glyph-name="d" unicode="d" horiz-adv-x="525" 
d="M504 36q1 4 1.5 12.5t1 17.5t1 17t0.5 13q2 24 6.5 58t14.5 77q21 100 47 205.5t51 199.5q10 37 5.5 57t-30.5 18q-10 -2 -23 -2.5t-19 -9.5q-8 -2 -13 -8.5t-7 -14.5q-11 -48 -24 -104t-28 -122q-26 19 -51.5 32t-63.5 13q-51 0 -98.5 -21.5t-86.5 -58.5t-66.5 -86
t-39.5 -104t-4.5 -100t31 -76.5t60.5 -47t84 -11.5q37 3 73 20t64 40q2 -19 9.5 -30t16 -16.5t15.5 -7t8 -1.5q10 0 21.5 5.5t21.5 12t16 13.5t6 10zM441 252q-17 -81 -63.5 -130t-115.5 -49q-27 0 -47.5 12t-33.5 33.5t-16.5 50.5t3.5 62q18 88 66 138.5t117 50.5
q64 0 85 -46.5t5 -121.5z" />
    <glyph glyph-name="e" unicode="e" horiz-adv-x="513" 
d="M511 129q2 10 -5.5 17t-17.5 7q-12 -1 -29 -15q-33 -29 -73 -52t-97 -23h-3q-42 0 -71.5 19.5t-39.5 54.5q-12 37 3 52q20 2 35.5 2.5t34.5 2t44.5 6.5t65.5 17q60 17 100.5 49.5t51.5 84.5q7 31 0 57t-25.5 45t-46.5 30t-64 11q-52 0 -99.5 -21t-86 -57.5t-66 -85
t-39.5 -103.5q-12 -54 -5 -98.5t30 -76t61.5 -48.5t91.5 -17q41 0 85.5 13t81 33.5t60 45.5t23.5 50zM421 369q0 -23 -16.5 -43.5t-45.5 -41.5q-31 -9 -65 -15.5t-69 -9.5q-15 -2 -26.5 -1.5t-20.5 2.5q6 30 22 59t37.5 52t48.5 37.5t56 14.5q26 0 45.5 -10.5t27.5 -29.5
q2 -1 3 -7t3 -7z" />
    <glyph glyph-name="f" unicode="f" horiz-adv-x="412" 
d="M559 671q-1 5 -6 14.5t-17 18t-31.5 14t-49.5 3.5q-44 -3 -78 -21.5t-60 -49t-44 -72t-30 -90.5q-2 -10 -14 -12.5t-27.5 -4t-31 -4.5t-24.5 -13q-3 -3 -7.5 -9t-8 -12t-5.5 -11.5t-1 -6.5q-2 -10 4 -17.5t24 -7.5h31q20 2 26 -3t0 -31l-13 -60l-33 -156l-8 -41
q-5 -23 -10 -47t-3.5 -42t11.5 -27t35 -1q22 7 36.5 24.5t19.5 44.5q3 18 6.5 41.5t8.5 46.5l23 106q4 18 7.5 35t7.5 32q5 21 7.5 35.5t7 25t13.5 16.5t26 10q33 2 54.5 5t34 8.5t18 13.5t8.5 19q4 18 -6 26.5t-37 8.5h-28q-4 0 -8 -0.5t-9 -0.5h-26q-11 0 -15 1
q5 38 16 68t26.5 51t34 32.5t37.5 11.5q27 3 35 -6t10 -20t3.5 -19.5t16.5 -6.5q11 0 16.5 4.5t9.5 14.5t7.5 25t9.5 36z" />
    <glyph glyph-name="g" unicode="g" horiz-adv-x="500" 
d="M566 448q7 17 -2.5 30t-26.5 13q-11 0 -25 -7.5t-37 -27.5q-19 27 -45 34t-59 5q-53 -3 -101.5 -27.5t-87.5 -63.5t-66 -88.5t-36 -103.5q-9 -51 -0.5 -93t31.5 -70.5t57.5 -43.5t78.5 -12q36 2 64.5 8t45.5 14q-6 -54 -19 -87.5t-30 -52.5t-37 -27t-42 -11
q-2 -2 -9.5 -1.5t-8.5 0.5q-22 0 -39.5 9t-29.5 23t-19 31t-9 34q-8 11 -22.5 14t-29 -1t-24.5 -15.5t-8 -28.5q-3 -34 12 -61.5t40.5 -47t57 -30.5t61.5 -11q19 0 42.5 2.5t46.5 9.5t44 17.5t35 27.5q20 24 32.5 47t21.5 50t16 60t16 75q13 61 26.5 113t27.5 100.5t28 95.5
t29 98zM429 269q-7 -32 -19 -66.5t-31.5 -64t-46.5 -48.5t-63 -19q-57 0 -83 39t-16 104q5 34 18 66.5t32.5 59t44 45t53.5 26.5q18 5 36 7.5t32 -5.5q24 -5 35.5 -18.5t15 -33t0.5 -43.5t-8 -49z" />
    <glyph glyph-name="h" unicode="h" horiz-adv-x="505" 
d="M487 48q2 16 2.5 36t4.5 38q9 43 16.5 84t16.5 84l5 22q20 95 -14.5 137.5t-109.5 42.5q-40 0 -81 -22.5t-81 -56.5l-12 -10t-11 -9q1 6 1 12q0 7 1 14l1 4q8 37 17 74t17 74q7 26 13.5 51.5t12.5 45.5q2 15 -1.5 26t-20.5 9q-10 0 -19 -2.5t-17 -12.5q-14 0 -28 -7
t-20 -37q-4 -15 -6 -30t-6 -31q-11 -45 -22.5 -93.5t-23 -96.5t-21.5 -93.5t-19 -84.5l-12 -59q-5 -21 -9.5 -39t-7.5 -33q-11 -49 -5 -69.5t31 -20.5q22 0 36 13.5t25 41t21 70t24 99.5q16 38 30 70.5t39 58.5q29 35 62 49.5t59 14.5q40 0 55.5 -24.5t1.5 -87.5l-16 -78
q-7 -31 -15.5 -70t-12.5 -73.5t0 -59.5t23 -27q5 0 11.5 3.5t17.5 11.5q15 1 29 9.5t18 31.5z" />
    <glyph glyph-name="i" unicode="i" horiz-adv-x="181" 
d="M290 646q4 11 4.5 23t-3 22t-11.5 16.5t-21 6.5q-27 0 -48 -19t-29 -45q-7 -24 -3.5 -43t22.5 -21q14 -3 28 2t26.5 14t21.5 21t13 23zM237 438q14 56 -27 56q-5 0 -14.5 -2t-20 -7.5t-20.5 -15.5t-15 -25q-18 -58 -31 -120t-29 -113q-5 -17 -8 -34.5t-8 -35.5
q-15 -73 -14.5 -109t32.5 -36q7 0 18 4.5t21.5 12.5t18.5 18t10 21q3 28 10 65.5t16 79.5q13 58 29 118t32 123z" />
    <glyph glyph-name="j" unicode="j" horiz-adv-x="187" 
d="M284 645q4 11 4.5 23t-3 22t-11.5 16.5t-21 6.5q-27 0 -48 -19t-29 -44q-8 -24 -4.5 -43.5t23.5 -21.5q29 0 53.5 16t35.5 44zM242 445q5 18 0 33.5t-26 17.5q-10 1 -22.5 -3t-24 -11.5t-20 -18t-10.5 -23.5q-3 -18 -5 -31t-6 -31q-5 -23 -10 -45l-10 -44l-19 -88
q-10 -48 -20 -105t-21 -106l-7 -35q-14 -63 -32 -101.5t-50 -38.5q-23 0 -38 11t-26 34q-5 11 -9.5 20t-13.5 5q-11 0 -23 -13t-17 -29q2 -57 29.5 -84.5t95.5 -27.5q36 0 62.5 14.5t47 39t36 57.5t27.5 69q9 29 14 67t13 73q12 57 22.5 112.5t19.5 99.5q10 45 21.5 91
t21.5 91z" />
    <glyph glyph-name="k" unicode="k" horiz-adv-x="470" 
d="M474 36q1 6 -10.5 22.5t-29.5 40t-40 50.5t-42 53q-15 20 -24.5 32.5t-16.5 21t-11 14.5t-7 12q8 9 18 17q39 29 77 57t76 57q10 11 20.5 19.5t20.5 15t17 12.5t10 12l1 4q1 11 -7 20t-22 9q-24 0 -44.5 -8.5t-39.5 -22t-37.5 -29.5t-37.5 -31q-30 -24 -62.5 -46.5
t-63.5 -45.5q-9 -7 -15 -11q0 8 1.5 17.5t1.5 18.5q18 85 34.5 161t38.5 150q5 17 4 26.5t-11 14.5q-5 0 -11 2.5t-13 -0.5q-6 5 -15 2.5t-18 -4.5q-13 -3 -20 -9t-11.5 -18.5t-8.5 -33t-11 -51.5l-2 -13q-12 -56 -25.5 -114t-26.5 -113.5t-24.5 -105.5t-19.5 -89l-7 -33
q-8 -35 -11 -59t-1 -39t9.5 -21.5t22.5 -6.5q20 0 41 18t25 45q2 14 4.5 27t6.5 27q6 15 11 32.5t8.5 34.5t7 32.5t6.5 26.5q37 -48 72.5 -93t65 -80t52 -54.5t33.5 -16.5q1 0 7 2q2 -1 7 -1q17 5 31.5 18t15.5 25z" />
    <glyph glyph-name="l" unicode="l" horiz-adv-x="172" 
d="M288 685q0 17 -10 24.5t-27 5.5q-23 -2 -35 -9t-19 -20.5t-12 -33.5t-14 -48q-23 -104 -48.5 -208t-48.5 -208q-11 -50 -18.5 -86.5t-8.5 -60.5t6 -35.5t27 -11.5q10 0 30 18q17 5 24.5 14t11.5 30q4 23 9.5 47t10.5 51l28 129q11 50 22 99t22 100l2 11q5 24 14 55.5
t17 60.5t13 51t4 25z" />
    <glyph glyph-name="m" unicode="m" horiz-adv-x="800" 
d="M227 396q0 18 5.5 34.5t7.5 33.5t-6.5 28t-25.5 11q-27 0 -47.5 -19.5t-25.5 -45.5q-8 -35 -15.5 -71t-15.5 -71q-10 -45 -23 -88.5t-21 -88.5q-2 -13 -6.5 -34.5t-5 -42.5t5.5 -36t26 -15q11 0 23 6t22 15t16.5 20t8.5 22q3 19 5 37.5t6 38.5q8 38 20 75.5t23 75.5
q7 25 24.5 49t40.5 42.5t49.5 30t52.5 11.5q21 0 32 -10t15 -27t2.5 -37.5t-5 -41.5t-8.5 -40t-8 -33q-3 -16 -10.5 -48.5t-14 -68t-9.5 -67t3 -44.5q8 -15 29 -15q23 0 43 19t24 41q5 29 10.5 65.5t13 74t18 73t24.5 62.5q9 18 25 36.5t35 32.5t40 23t41 9q31 0 45 -18.5
t16 -49t-5 -69.5t-16 -79.5t-18 -79t-11.5 -69t4.5 -49t30 -18.5q6 0 15.5 2t18.5 5.5t16 9t9 13.5q1 5 0 9t1 9q1 11 3.5 22t5.5 22q8 30 12 56l12.5 65t13.5 80.5t7.5 79t-5.5 60.5q-11 32 -34 52t-58 23q-29 3 -57 -4t-55 -20t-52.5 -32t-47.5 -40q-4 6 -7.5 13t-2.5 15
q-10 30 -36 49t-61 20q-48 1 -93 -25t-81 -61q-3 -3 -6 -6.5t-7 -6.5z" />
    <glyph glyph-name="n" unicode="n" horiz-adv-x="499" 
d="M480 47q4 25 7.5 57.5t11.5 67.5l16 73l13 62q18 85 -9.5 135.5t-90.5 54.5q-17 1 -36.5 -3.5t-40.5 -13t-42 -21t-40 -27.5l-18 -15q-10 1 -14 3t-5 5t-0.5 6.5t0.5 8.5q2 4 2.5 7.5t2.5 7.5q2 14 0 24.5t-13 10.5q-4 2 -16.5 1.5t-26 -4t-25.5 -10.5t-15 -18
q-4 -10 -5 -22t-4 -23l-4 -21q-11 -31 -20.5 -68t-18.5 -73.5t-16 -71t-13 -59.5q-6 -30 -10 -54.5t-2.5 -41t9 -25.5t22.5 -9q20 0 44 22.5t29 64.5q1 11 3.5 23.5t4.5 23.5q12 54 31 106t45.5 93.5t61 67t76.5 25.5q35 1 53 -23.5t6 -81.5q-4 -17 -11.5 -45.5t-12.5 -54.5
l-12 -54q-6 -27 -10.5 -56t-5.5 -53t4 -40.5t19 -18.5q5 0 16.5 -3t21.5 5q17 1 26.5 18t11.5 37z" />
    <glyph glyph-name="o" unicode="o" horiz-adv-x="497" 
d="M516 229q16 55 13 103.5t-22 84.5t-53.5 57t-82.5 21q-50 0 -96.5 -20.5t-85 -56.5t-66.5 -84.5t-40 -105.5q-11 -51 -6 -95t25 -77t53.5 -52t79.5 -19t90 19t81.5 52t66 77.5t43.5 95.5zM430 240q-8 -36 -24.5 -67.5t-39 -54t-49.5 -35.5t-56 -13q-30 0 -50 14t-31 38
t-12.5 55.5t5.5 66.5q8 36 24.5 68t39 55.5t50 37.5t56.5 14q30 0 50 -13.5t31 -37.5t12.5 -56.5t-6.5 -71.5z" />
    <glyph glyph-name="p" unicode="p" horiz-adv-x="501" 
d="M527 257q10 50 5 95t-25 78t-54 51t-80 14q-38 -3 -76 -20.5t-65 -40.5q0 12 1.5 24t0.5 22t-6.5 16t-20.5 6q-24 0 -45.5 -16t-28.5 -48q-14 -61 -26.5 -120t-27.5 -123q-11 -42 -23.5 -98t-23.5 -109l-13 -59q-7 -36 -13.5 -67.5t-8 -55t5.5 -37t27 -13.5q7 0 18 4.5
t21.5 12.5t18.5 20.5t9 28.5q4 24 8 49t12 63l15 67q3 15 5.5 21t4.5 10q18 -10 31 -17t24.5 -12t23.5 -7.5t28 -2.5q43 0 87 19t82.5 54t67.5 83.5t41 107.5zM434 252q-7 -38 -21.5 -71t-36 -57t-48.5 -38t-60 -14q-35 0 -55.5 16t-37.5 39q-2 23 -0.5 51t8.5 58
q8 39 23 72t36 57t47 38t56 15q28 1 48 -12t31.5 -35.5t13.5 -53.5t-4 -65z" />
    <glyph glyph-name="q" unicode="q" horiz-adv-x="500" 
d="M566 448q7 17 -2.5 30t-26.5 13q-11 0 -25 -7.5t-37 -27.5q-19 27 -45 34t-59 5q-53 -3 -101.5 -27.5t-87.5 -63.5t-66 -88.5t-36 -103.5q-9 -51 -0.5 -93t31 -71.5t57.5 -44t79 -10.5q5 0 13.5 1.5t17.5 2.5t15.5 2l6.5 1q11 6 19 9t14 5.5t12.5 4.5t14.5 6
q-10 -32 -17.5 -64t-14.5 -63q-13 -58 -14.5 -91t19.5 -41q5 -3 16.5 -1t24.5 8.5t23 16.5t12 22q6 43 20 104q13 61 30.5 132.5t36 143.5t37 138.5t33.5 117.5zM429 269q-7 -32 -19 -66.5t-31.5 -64t-46.5 -48.5t-63 -19q-57 0 -83 39t-16 104q5 34 18 66.5t32.5 59t44 45
t53.5 26.5q18 5 33 6.5t29 -6.5q20 -1 32 -14t17.5 -33t5 -45t-5.5 -50z" />
    <glyph glyph-name="r" unicode="r" horiz-adv-x="365" 
d="M447 428q2 30 -11 50.5t-47 20.5q-38 0 -78 -23t-83 -58q-1 4 -0.5 8.5t-0.5 9.5l1 6q9 26 2.5 40.5t-26.5 14.5q-27 0 -54 -27q-10 -10 -22.5 -53.5t-25 -100.5t-25 -116.5t-22.5 -102.5q-7 -31 -9.5 -51t0 -32.5t9 -18t17.5 -6.5q5 0 9.5 2.5t12.5 7.5q23 6 35 15.5
t15 29.5q5 31 10.5 63.5t12.5 64.5q9 44 20.5 85t29.5 72.5t44 51.5t64 22q5 0 12 -1.5t13.5 -5t10 -11t1.5 -20.5q-6 -8 0.5 -17t19.5 -7t30.5 20.5t34.5 66.5z" />
    <glyph glyph-name="s" unicode="s" horiz-adv-x="451" 
d="M450 134q10 33 4.5 58t-29 44.5t-64.5 37t-102 35.5q-23 7 -34 16.5t-13 20.5q0 14 9.5 26.5t25 23t35.5 17.5t42 9q24 2 48 2.5t37 -12.5l2 -16t4.5 -14t11.5 -9.5t24 -1.5q14 2 20.5 10t14.5 24q-1 1 1 5t4 10t3.5 15.5t0.5 23.5q-4 17 -14.5 26.5t-25 14.5t-31 5.5
t-33.5 -0.5q-41 -2 -83.5 -13.5t-78.5 -31.5t-63.5 -47.5t-38.5 -62.5q-9 -29 -6.5 -49.5t18.5 -37t46.5 -29.5t78.5 -26l22 -6q86 -22 71 -77q-7 -28 -43 -44t-80 -16q-48 0 -78 17t-40 33v1q-5 5 -7 6q-6 1 -17.5 -4.5t-22 -15t-16.5 -21.5t-3 -24q9 -33 53.5 -52
t106.5 -19q38 0 76 10t71 29t57.5 46.5t35.5 62.5z" />
    <glyph glyph-name="t" unicode="t" horiz-adv-x="370" 
d="M453 459q5 17 -2.5 25t-37.5 8h-19q-8 -1 -16.5 -1.5t-19.5 -0.5h-3q-21 0 -20.5 7.5t4.5 20.5q4 20 10.5 40t11.5 40q6 30 -4.5 42.5t-31.5 11.5q-17 -1 -36 -10t-27 -38q-4 -12 -8 -26.5t-8 -30t-7.5 -30.5t-6.5 -28q-5 -3 -10.5 -3.5t-14.5 -0.5q-11 0 -21 1t-19 1
q-15 1 -30.5 -8.5t-23.5 -29.5q-3 -4 -5 -10t-1 -12.5t5 -11t14 -5.5t23.5 -1.5t25.5 -0.5q13 0 23 -1t13 -4q-1 -5 -1.5 -10.5t-1.5 -10.5q-13 -48 -25 -96t-22 -96q-8 -40 -16 -74t-1 -67q-1 -2 1.5 -7t6 -10t6 -9.5t2.5 -5.5q14 -13 24 -19.5t31 -6.5q34 1 55.5 2.5
t36 7.5t25 17.5t22.5 31.5q5 18 2.5 27t-10 13t-17 2.5t-18.5 -4.5q-14 -13 -28.5 -18t-26 -1.5t-17 16t0.5 33.5q2 21 11 52.5t15 60.5q17 84 26 126.5t23 54.5q4 -1 20 0t34 2.5t33 3.5t18 3q9 8 19.5 19t13.5 19z" />
    <glyph glyph-name="u" unicode="u" horiz-adv-x="475" 
d="M540 439q8 29 -0.5 41t-25.5 12q-9 0 -21.5 -5t-24 -13.5t-20 -18t-9.5 -18.5q-8 -29 -15 -60.5t-15 -63.5t-16 -63.5t-17 -58.5q-6 -30 -22 -52.5t-37 -37t-45.5 -20.5t-48.5 -3q-42 5 -50 42t9 117q4 19 11 43.5l15 52.5t16 57.5t14 59.5q5 20 -9 32t-33 9
q-27 -4 -40.5 -15.5t-20 -27.5t-9 -34.5t-7.5 -36.5q-8 -26 -13.5 -50t-12.5 -50q-4 -18 -8.5 -40t-8 -44.5t-5 -44t0.5 -40.5q7 -50 35 -81.5t85 -34.5q11 -1 34 -0.5t49.5 6t51.5 18.5t40 37q1 0 1 -6v-14v-14v-6q0 -8 5 -12t11 -5.5t12 -2t8 -0.5q22 0 33 9.5t13 25.5
q1 2 2.5 10.5t3.5 18t3 19t0 12.5q2 13 4.5 28t6.5 34l7 29q14 66 29 130t34 130z" />
    <glyph glyph-name="v" unicode="v" horiz-adv-x="466" 
d="M546 465q3 14 -5.5 22.5t-23.5 8.5q-22 0 -37 -7.5t-26.5 -21t-21.5 -31.5t-21 -38l-18 -33q-20 -38 -41.5 -74t-41.5 -66.5t-36 -53.5t-26 -36q-2 4 -2.5 8.5t-2.5 9.5v3q-8 63 -16 124t-16 124q-4 38 -3.5 50l0.5 12q-3 16 -15 22t-29 4q-13 -2 -28 -10t-18 -22
q-5 -6 -5.5 -12.5t1.5 -19t6 -35.5t7 -62q7 -76 17 -144t20 -126q4 -17 6.5 -29t6.5 -19.5t10.5 -11.5t17.5 -6q16 -3 33 10.5t35.5 38t39 57t43.5 67.5q50 76 96 147t81 128q2 3 3.5 6t4.5 7z" />
    <glyph glyph-name="w" unicode="w" horiz-adv-x="731" 
d="M809 460q8 17 -0.5 26.5t-23.5 9.5t-28 -6.5t-24.5 -17t-20.5 -23.5t-15 -25q-50 -102 -91 -180.5t-67 -120.5q-6 9 -10 35t-7.5 60t-6 73t-4.5 74t-4.5 62t-5.5 37q-3 14 -11.5 19t-16.5 5q-18 0 -33.5 -10t-30.5 -26.5t-29.5 -39t-28.5 -46.5q-17 -29 -32.5 -61
t-31 -63t-32 -60t-34.5 -53q-4 11 -6 35t-3 54.5t-1 64.5v68v61t-1 45q2 14 -6.5 22t-19.5 10q-11 1 -23 -1.5t-23 -9t-18.5 -15.5t-8.5 -20q0 -7 -0.5 -14.5t-0.5 -15.5l2 -21q3 -38 4.5 -82t3 -89t5 -87t9.5 -74t16.5 -51.5t26.5 -19.5q25 0 55 33.5t60.5 83.5t60.5 108
t57 106q5 10 7.5 13t4.5 3q5 -9 7.5 -25t3.5 -34t1.5 -37t1.5 -34q5 -63 10.5 -105t13 -67.5t17 -36t21.5 -10.5q28 0 56 31t61.5 87t74 134t93.5 173q8 14 13 24.5t13 23.5z" />
    <glyph glyph-name="x" unicode="x" horiz-adv-x="485" 
d="M475 40q-1 5 -2 11t-5 14q-17 26 -34.5 53t-33 52.5t-28 48t-20.5 37.5q6 7 20 21l32 32l38 38l38 38q24 25 39.5 39.5t24 23t12 13.5t4.5 11q1 11 -6.5 18.5t-18.5 7.5q-28 0 -59 -21.5t-60.5 -50t-56 -56.5t-44.5 -41q-17 18 -30.5 47t-26 56.5t-26 47.5t-28.5 20
q-9 0 -19.5 -4.5t-19.5 -11.5t-14.5 -15t-5.5 -15q-1 -7 5 -21.5t15 -32.5t20.5 -38.5t22 -39.5t19.5 -35.5t13 -26.5q-8 -12 -20 -26.5t-26 -29t-28 -28.5t-24 -25q-22 -24 -43.5 -44.5t-38 -36.5t-26.5 -27.5t-10 -18.5q-2 -12 6 -20t22 -8q24 0 52 20t56 47.5t53 56.5
t42 47q5 6 11.5 11t11.5 10q6 -6 11.5 -14.5t14.5 -24.5q17 -30 32.5 -58.5t29.5 -50t26 -35t23 -14.5q5 0 15 5t19.5 12t17 15.5t8.5 16.5z" />
    <glyph glyph-name="y" unicode="y" horiz-adv-x="496" 
d="M573 448q2 7 0 14.5t-6.5 14t-11 10.5t-13.5 4q-24 0 -43 -14.5t-35 -36t-28 -45t-22 -41.5q-29 -51 -64.5 -111t-68.5 -110q-11 12 -19 43t-15 70.5t-13.5 82.5t-14.5 78.5t-18.5 58.5t-23.5 23q-9 0 -20 -4.5t-21 -12t-17 -17t-8 -19.5q-1 -12 2 -28.5t7.5 -34.5t9 -35
t7.5 -29q11 -48 22.5 -95.5t24.5 -95.5q6 -25 13 -49.5t12 -50.5q-5 -15 -15.5 -31t-22 -32.5t-22 -32.5t-15.5 -31q-9 -15 -17 -31.5t-14 -33t-9 -33t0 -29.5q0 -14 13 -21t26 -4q25 6 33 13.5t13 23.5t15.5 44.5t39.5 76.5q40 67 73.5 123t66.5 110t67 110.5t75 123.5
q12 20 25.5 43.5t31.5 40.5z" />
    <glyph glyph-name="z" unicode="z" horiz-adv-x="486" 
d="M468 51q0 2 -1.5 6.5t-5.5 9.5t-11.5 9t-19.5 4h-22q-22 0 -45 0.5t-43 0.5q-27 -1 -56.5 -2t-58.5 -1h-1q-6 0 -8 5q5 8 21.5 26t32.5 35q66 72 129 136t128 125q17 15 20 32q6 14 -2 23t-23.5 14.5t-34.5 7.5t-35 2q-6 0 -18 -0.5t-25 -1.5t-26.5 -1.5t-22.5 -0.5h-113
h-29q-44 0 -61 -40q-5 -8 -9 -11t-2 -6q0 -8 2.5 -13t10 -8.5t22 -5t38.5 -1.5q44 0 81.5 3t76.5 3h3h15t14 -2q-32 -38 -65 -74.5t-70 -75.5t-80 -82.5t-95 -95.5q-17 -14 -27.5 -28.5t-12.5 -21.5q-4 -9 -0.5 -15.5t11.5 -11t18.5 -6t20.5 -1.5q19 0 56 2t80 4t87 3.5
t77 1.5q14 0 20.5 1t17.5 12q14 5 26.5 17t14.5 23z" />
    <glyph glyph-name="braceleft" unicode="{" horiz-adv-x="416" 
d="M371 -78q5 19 -2 27t-20.5 11t-30.5 3.5t-31.5 5.5t-23.5 17t-6 38q4 45 15.5 90t16 85.5t-5.5 73.5t-50 52q46 24 70.5 56.5t38 69.5t20 77.5t15.5 80.5q7 33 20.5 51t29.5 26.5t33 10.5t32 3.5t26 5t15 15.5q10 29 -2.5 43.5t-39.5 16.5q-44 3 -80.5 -11t-64 -40
t-45.5 -62t-27 -77q-6 -29 -11 -56.5t-11 -56.5q-7 -33 -21 -55t-51 -31q-8 -2 -20 -7.5t-24 -14t-21 -19.5t-11 -23q-4 -21 2.5 -32.5t17 -18.5t23.5 -12t23 -14t15 -24t0 -42q-4 -22 -9.5 -43.5t-10.5 -43.5q-9 -45 -7 -85.5t18.5 -70t48.5 -46.5t83 -15q20 1 38 9.5
t25 31.5z" />
    <glyph glyph-name="bar" unicode="|" horiz-adv-x="173" 
d="M301 743q0 21 -9.5 30.5t-25.5 7.5q-24 -3 -37 -11.5t-21 -25.5t-14 -42t-15 -61q-32 -131 -62 -262.5t-58 -262.5q-13 -63 -23 -109t-12.5 -76t4 -44.5t26.5 -14.5q4 0 12 5.5t19 17.5q17 6 25.5 17.5t13.5 37.5q5 29 11 59t14 65l35 162q13 63 27 125.5t28 125.5l3 14
q6 30 17 70t20.5 77t16 64t5.5 31z" />
    <glyph glyph-name="braceright" unicode="}" horiz-adv-x="416" 
d="M457 328q3 12 -1 23t-12.5 19.5t-18 14t-16.5 7.5q-34 9 -38.5 31t2.5 55q6 29 13 56.5t13 56.5q10 41 7 77t-19.5 62t-47 40t-75.5 11q-28 -2 -47 -16.5t-21 -43.5q-1 -12 9 -15.5t24 -5t30.5 -3.5t28.5 -10.5t17.5 -26.5t-1.5 -51q-8 -40 -19 -80.5t-13.5 -77.5
t9 -69.5t47.5 -56.5q-48 -19 -72 -52t-37 -73.5t-20.5 -85.5t-22.5 -90q-9 -26 -23 -38t-30.5 -17t-34 -5.5t-32 -3.5t-25 -11t-13.5 -27q-4 -23 10.5 -31.5t34.5 -9.5q50 -2 89.5 15t68.5 46.5t48.5 70t28.5 85.5q5 22 9 43.5t9 43.5q7 27 18.5 42t25 24t28.5 14t28.5 12
t24.5 18.5t16 32.5z" />
    <glyph glyph-name="asciitilde" unicode="~" horiz-adv-x="514" 
d="M562 452q18 12 24.5 30t3.5 32t-14.5 18.5t-30.5 -11.5q-22 -19 -45 -30t-44.5 -12t-41 9.5t-34.5 35.5q-43 45 -104.5 37t-123.5 -65q-11 -8 -17 -26t-5 -33t10.5 -21t28.5 10q22 19 45 30t44.5 12t40.5 -9.5t34 -35.5q43 -45 104.5 -37t124.5 66z" />
    <glyph glyph-name="exclamdown" unicode="&#xa1;" horiz-adv-x="187" 
d="M27 -49q-8 -26 0 -44.5t30 -18.5q13 0 26.5 4t24.5 11.5t19 17.5t9 21q2 18 5.5 41t9.5 53q6 29 15 67t19 81t20.5 88t21.5 88q16 68 -34 57q-17 -8 -28 -13.5t-18.5 -14.5t-13 -24.5t-10.5 -42.5q-18 -95 -43 -189t-53 -182zM153 558q1 -23 15 -40.5t40 -17.5t45.5 17
t23.5 42q5 29 -10.5 50.5t-43.5 22.5q-23 1 -36.5 -10.5t-21 -25.5t-10 -26z" />
    <glyph glyph-name="cent" unicode="&#xa2;" horiz-adv-x="462" 
d="M179 125q-20 45 -6 114q7 34 24 67t39.5 59.5t49 43t53.5 16.5h23q-2 -4 -8 -12q-28 -45 -50 -82t-42 -71t-40 -66.5t-43 -68.5zM536 552q2 11 -9.5 18t-24.5 2q-31 0 -54 -21t-43 -53q-13 1 -27 1t-29 -2q-47 -4 -91.5 -28.5t-81 -63t-62 -87.5t-34.5 -102
q-8 -55 3 -100.5t39 -77.5l-9 -13q-14 -25 -20 -30q-4 -11 6 -18.5t18 -7.5q17 0 30.5 8t27.5 22q43 -18 98 -14q31 3 64 15t59.5 30t43 39.5t15.5 42.5q0 9 -5.5 16t-16.5 7q-5 0 -9.5 -2.5t-14.5 -9.5q-27 -20 -58.5 -37t-57.5 -19q-39 -3 -64 9q9 16 19 33.5t21 34.5
l126 201l30 49q3 -8 3 -18q-2 -13 -6 -24.5t-5.5 -20.5t1.5 -14.5t14 -5.5q3 0 11.5 -2.5t19 5t22 30.5t21.5 74q5 23 -2.5 37.5t-22.5 24.5q10 14 21 27.5t28 35.5q2 2 3 4.5t3 4.5z" />
    <glyph glyph-name="sterling" unicode="&#xa3;" horiz-adv-x="562" 
d="M464 344q1 11 -6 12t-15 4h-42q-12 0 -21 -0.5t-21 -0.5h-38h-40q-10 0 -22 1q8 40 13.5 78t12.5 72q5 27 22.5 45.5t39.5 29.5t44 16t36 7q30 4 54.5 -4t47.5 -26q16 -13 25.5 -28.5t16 -29.5t12 -24t14.5 -10q36 -2 47 32q10 31 -6 62t-47 56t-72.5 40.5t-81.5 15.5
q-37 0 -77.5 -15t-75.5 -40t-61.5 -58.5t-34.5 -69.5q-6 -28 -9.5 -66t-9.5 -83q-23 -2 -36.5 -10t-24.5 -28q-9 -9 -8 -15q-2 -27 33 -27h3h20q-11 -49 -33 -100.5t-62 -102.5q-9 -6 -14 -17q-3 -9 1.5 -19.5t13.5 -19t20 -13.5t22 -5q11 1 22 1.5t21 0.5h75
q41 0 82.5 -0.5t80 -1.5t69.5 -4q4 -1 11 0t10 1h4q1 0 6 3q19 9 32.5 16t17.5 27q4 15 -4.5 24t-23.5 14.5t-33.5 7.5t-35.5 2.5t-29.5 0t-14.5 -0.5q-2 1 -4 0.5t-3 0.5l-45 3q-19 1 -42.5 0.5t-47.5 -1t-46.5 -1.5t-40.5 -1q23 38 42.5 86.5t33.5 101.5h8q16 0 22 -0.5
t10 -0.5t11 -0.5t26 -0.5h37q20 0 34.5 1t26 5t20 12t16.5 23q5 5 8 12.5t4 9.5z" />
    <glyph glyph-name="currency" unicode="&#xa4;" horiz-adv-x="461" 
d="M508 381q2 10 3.5 19t1.5 19l-4 -15q0 36 -15 68q10 9 17.5 16.5t12 16t5.5 19t-1 24.5q-2 5 -2.5 10.5t-4.5 9.5q-5 6 -14 2.5t-15 -7.5q-10 -6 -22 -16t-26 -21q-17 11 -38.5 17t-47.5 6q-28 0 -55 -7t-53 -19q-6 9 -13 18.5t-15.5 16.5t-18.5 8.5t-20 -7.5
q-5 -2 -17 -10t-17 -13q-7 -8 -5 -15.5t5 -13.5q5 -8 11.5 -16.5t14.5 -19.5q-19 -18 -33.5 -38.5t-22.5 -43.5q-12 -34 -9.5 -66.5t19.5 -58.5q-19 -15 -30.5 -32.5t-3.5 -40.5q0 -5 0.5 -8t3.5 -6q12 -8 24 -5t25 14q8 6 16.5 13.5t18.5 15.5q34 -16 76 -16q30 0 58.5 6.5
t53.5 17.5q6 -10 14.5 -22t18.5 -20.5t21 -11.5t23 5q21 13 28.5 33t-6.5 36q-11 13 -24 30q24 23 40 50.5t22 57.5zM432 393q-2 -17 -13.5 -39t-31 -42t-46.5 -34t-60 -14q-30 0 -50 11t-30.5 28.5t-12 39t4.5 42.5q5 19 19 37.5t33 32.5t41.5 23t46.5 9q51 0 77.5 -26.5
t21.5 -67.5z" />
    <glyph glyph-name="yen" unicode="&#xa5;" horiz-adv-x="623" 
d="M741 689q1 12 -8 22.5t-23 10.5q-24 0 -43 -13t-34.5 -31t-28 -38.5t-22.5 -35.5q-38 -53 -67.5 -90t-52 -63t-38.5 -43.5t-28 -31.5q-8 11 -21 38t-29 63t-33 78.5t-32 85.5q-10 28 -18.5 41.5t-24.5 13.5q-18 0 -36 -13t-29 -33q4 -22 17 -62t30 -82.5t36 -80.5t34 -55
q2 -2 2.5 -4.5t2.5 -4.5h-20h-27q-25 0 -42 -6t-28 -14.5t-15.5 -17t-4.5 -14.5q-1 -12 8 -20t24 -8h3q17 0 31 1t40 1h69q-2 -6 -2 -10q-7 -22 -11.5 -42.5t-8.5 -40.5h-63q-7 1 -12 1h-6q-41 0 -62 -6t-34 -33q-10 -10 -8 -15q-2 -27 33 -27h3q22 0 46.5 1.5t66.5 1.5h20
q-5 -16 -8 -30t-8 -28q-9 -30 -5.5 -48t21.5 -20q11 -1 25 6t27.5 17.5t24.5 23.5t16 24q3 14 5.5 27t4.5 26h16h67q20 0 34.5 1t26 5t20 12t16.5 23q5 5 8 9t3 6q1 11 -5.5 15.5t-14.5 7.5h-46t-31.5 -0.5t-31.5 -0.5h-43h-3q9 49 28 93h43h42q26 0 48.5 5t27.5 27
q10 11 15.5 22.5t3.5 16.5t-9 7t-12 2h-1q-35 0 -58 -1.5t-34 -1.5h-19q23 31 52.5 68.5t59.5 75t57.5 72t47.5 59.5q14 15 24.5 32.5t10.5 22.5z" />
    <glyph glyph-name="brokenbar" unicode="&#xa6;" horiz-adv-x="174" 
d="M195 232q12 41 -31 41q-5 0 -14.5 -1.5t-20 -5.5t-20 -11t-13.5 -18q-15 -42 -24.5 -87.5t-21.5 -82.5q-5 -13 -7 -25.5t-5 -25.5q-11 -54 -9 -80t35 -26q7 0 17.5 3.5t21 9t18.5 13t9 15.5q2 20 7 47.5t11 57.5q10 43 22.5 86.5t24.5 89.5zM290 682q12 41 -31 41
q-5 0 -14.5 -1.5t-20 -5.5t-19.5 -11t-13 -18q-15 -42 -24.5 -87.5t-22.5 -82.5q-4 -13 -6.5 -25.5t-4.5 -25.5q-12 -54 -9.5 -80t35.5 -26q7 0 17.5 3.5t21 9t18.5 13t9 15.5q2 20 7 47.5t11 57.5q9 43 21.5 86.5t24.5 89.5z" />
    <glyph glyph-name="section" unicode="&#xa7;" horiz-adv-x="437" 
d="M415 162q25 22 43 74q11 33 7 53.5t-26.5 38.5t-65 38t-108.5 53q-20 11 -33 18.5t-15 18.5q0 14 9.5 26.5t25 23t35.5 17.5t43 9t47 2.5t37 -12.5l2 -16t5 -14t12 -9.5t24 -1.5q14 2 20 10t14 24q-1 3 6 15t3 39q-4 17 -14.5 26.5t-24.5 14.5t-31 5.5t-34 -0.5
q-41 -2 -83.5 -13.5t-78.5 -31.5t-63.5 -47.5t-38.5 -62.5q-15 -47 5 -74q-11 -12 -20.5 -32t-17.5 -49q-9 -33 -4.5 -53.5t26 -38.5t63.5 -38t108 -53q21 -11 33.5 -18.5t14.5 -18.5q0 -14 -9.5 -26.5t-25 -23t-36 -17.5t-42.5 -9q-23 -2 -47 -2.5t-37 12.5q-2 8 -2.5 16
t-4.5 14t-12 9t-24 2q-14 -2 -20 -10t-14 -24q1 -3 -6 -15t-3 -39q4 -17 14.5 -26.5t24.5 -14.5t31 -5.5t34 0.5q41 2 83.5 13.5t78.5 31.5t63.5 47.5t38.5 62.5q8 27 6 46t-16 35zM243 238q-43 14 -60.5 32t-10.5 45q10 17 15 34q17 -8 36.5 -15.5t45.5 -15.5l46 -15
q43 -14 60 -32t11 -45q-14 -20 -18 -34q-30 14 -80 31z" />
    <glyph glyph-name="dieresis" unicode="&#xa8;" horiz-adv-x="324" 
d="M267 669q8 26 -1 45t-29 19q-18 0 -34.5 -17t-24.5 -41q-5 -25 1 -44t26 -19q17 0 35.5 16t26.5 41zM438 669q8 26 -1 45t-28 19q-18 0 -35 -17t-24 -41q-7 -25 0 -44t27 -19q17 0 35 16t26 41z" />
    <glyph glyph-name="copyright" unicode="&#xa9;" horiz-adv-x="639" 
d="M503 423q22 0 34 18t15 34q4 20 -8 34t-31 23t-40 12.5t-33 2.5q-35 -2 -66.5 -18.5t-57 -44.5t-43.5 -65t-26 -79q-7 -35 -1.5 -64.5t20.5 -50.5t39 -33t55 -12q34 0 67 14.5t61 43.5q3 3 6.5 9.5t7.5 13t7 13t3 10.5q0 8 -6 14t-16 5q-13 -1 -24 -12t-20 -21
q-13 -14 -27.5 -20.5t-32.5 -8.5q-40 -3 -60.5 25t-10.5 87q8 57 38 94t68 41q7 1 17 -0.5t19 -3.5t15.5 -4.5t7.5 -4.5q6 -5 7 -15.5t-1 -18.5v-4q-1 -8 4.5 -11t12.5 -3zM691 378q2 3 3.5 18t2.5 34.5t0 41t-5 37.5q-8 32 -27.5 58t-49 44t-67 28t-80.5 10q-61 0 -120 -23
t-107.5 -63.5t-83.5 -96t-49 -119.5q-12 -56 -1 -104.5t40.5 -84.5t75.5 -56.5t105 -20.5q62 0 120.5 23t107.5 63t84 94t51 117zM631 388q-8 -51 -33 -95.5t-62.5 -77t-85 -51t-100.5 -18.5q-51 0 -89.5 17t-62.5 46.5t-32 69t2 84.5q10 50 35.5 92t62.5 72t83 47t98 17
q71 0 118 -21.5t66 -82.5q5 -17 5 -44q0 -26 -5 -55z" />
    <glyph glyph-name="ordfeminine" unicode="&#xaa;" horiz-adv-x="417" 
d="M395 420l-3 -2q-20 -14 -44 -25.5t-44 -13.5q-28 -2 -48.5 6t-33 24t-16 39.5t2.5 52.5q5 24 17.5 47.5t29.5 42.5t37 30.5t41 11.5q23 0 36 -11t24 -28q-2 -6 4.5 -9t12.5 -3q8 0 25 12q-8 -32 -15 -62.5t-15 -56.5q-3 -14 -5.5 -27t-5.5 -27v-1zM527 652q10 43 -21 43
q-3 0 -10.5 -1.5t-15.5 -6t-15.5 -11.5t-11.5 -19l-2 -6t-1 -6q-11 18 -41 30t-67 9q-36 -3 -70.5 -20.5t-62.5 -44.5t-47 -62t-25 -73q-5 -37 3 -68t28 -53.5t51 -34t71 -8.5q23 2 48 10.5t45 20.5q-2 -22 3.5 -32.5t20.5 -10.5q5 0 13.5 3.5t16.5 9.5t14.5 14t7.5 16
q3 22 8.5 51.5t12.5 61.5q10 45 22.5 91.5t24.5 96.5z" />
    <glyph glyph-name="guillemotleft" unicode="&#xab;" horiz-adv-x="463" 
d="M267 114q3 7 -5.5 24.5t-22 38.5t-29 42.5t-26.5 38.5q1 8 12 20t26.5 25.5t32.5 28t29 26.5q7 8 15.5 16.5t15.5 16.5t12 14.5t6 9.5q2 9 -5 21.5t-16 12.5q-29 0 -76 -38.5t-122 -118.5q-22 -19 -24 -33q-1 -5 11.5 -28.5t29 -52t33.5 -55t25 -37.5q8 -9 12 -12t12 -3
q6 0 14.5 4t16.5 10.5t14.5 14t8.5 14.5zM457 114q3 7 -5.5 24.5t-22 38.5t-29 42.5t-26.5 38.5q1 8 12 20t26.5 25.5t32.5 28t29 26.5q7 8 15.5 16.5t15.5 16.5t12 14.5t6 9.5q2 9 -5 21.5t-16 12.5q-29 0 -76 -38.5t-122 -118.5q-22 -19 -24 -33q-1 -5 11.5 -28.5t29 -52
t33.5 -55t25 -37.5q8 -9 12 -12t12 -3q6 0 14.5 4t16.5 10.5t14.5 14t8.5 14.5z" />
    <glyph glyph-name="logicalnot" unicode="&#xac;" horiz-adv-x="578" 
d="M618 333q3 12 -6.5 17t-23.5 6t-29.5 0t-22.5 -1h-42q-58 0 -116 0.5t-116 0.5q-12 0 -28.5 1t-34.5 0.5t-34.5 -3.5t-27.5 -10q-11 -8 -24.5 -19t-14.5 -25q0 -9 6 -15t14.5 -9.5t18 -4.5t17.5 -1q90 4 177.5 3t176.5 -1q11 0 13 -8t0.5 -20.5t-5 -26.5t-2.5 -26.5
t8.5 -20.5t26.5 -9q19 0 30 18t17.5 44.5t11 56.5t10.5 53z" />
    <glyph glyph-name="registered" unicode="&#xae;" horiz-adv-x="639" 
d="M441 495q15 0 26.5 -5.5t18 -14.5t8 -20t-3.5 -21q-9 -25 -40.5 -40.5t-73.5 -15.5q-3 0 -6.5 0.5t-5.5 0.5q2 9 6.5 24t11.5 47q2 11 5.5 22t5.5 20q10 2 22.5 2.5t25.5 0.5zM691 378q2 3 3.5 18t2.5 34.5t0 41t-5 37.5q-8 32 -27.5 58t-49 44t-67 28t-80.5 10
q-61 0 -120 -23t-107.5 -63.5t-83.5 -96t-49 -119.5q-12 -56 -1 -104.5t40.5 -84.5t75.5 -56.5t105 -20.5q62 0 120.5 23t107.5 63t84 94t51 117zM631 388q-8 -53 -34.5 -98t-64.5 -77q0 3 1 4q-4 13 -37 46q-14 15 -31.5 33.5t-35.5 38.5l2 1l7.5 2.5t9.5 3.5q16 6 32.5 14
t31.5 19t27 25t18 32q10 27 5.5 48.5t-20.5 37t-43 23.5t-63 8q-19 0 -40.5 -2.5t-40.5 -8t-32 -12.5t-14 -16q-2 -9 2.5 -14.5t11.5 -9.5l1 -1v-9q-4 -15 -9.5 -34.5t-10.5 -40.5t-10 -40t-8 -32l-3 -15q-6 -29 -11.5 -60t-5.5 -50q0 -22 19 -22t34.5 18.5t17.5 40.5
q1 14 3 28.5t4 26.5q2 6 2.5 10.5t2.5 8.5q6 -6 16.5 -15.5t23 -21t25.5 -25t25 -26.5q4 -5 10 -12t13 -13.5t14.5 -12t14.5 -5.5q-32 -18 -67.5 -28t-73.5 -10q-51 0 -89.5 17t-62.5 46.5t-32 69t2 84.5q10 50 35.5 92t62.5 72t83 47t98 17q71 0 118 -21.5t66 -82.5
q5 -17 5 -44q0 -26 -5 -55z" />
    <glyph glyph-name="macron" unicode="&#xaf;" horiz-adv-x="330" 
d="M443 666q1 11 -3.5 12t-11.5 4h-32q-9 0 -15.5 -0.5t-15.5 -0.5h-29h-25t-13.5 0.5t-13.5 0.5h-22q-5 1 -8 1h-4q-32 0 -47.5 -6t-26.5 -32q-8 -8 -8 -15q-2 -26 24 -26h2q17 0 35.5 1.5t49.5 1.5q12 0 16.5 -0.5t7.5 -0.5t8.5 -0.5t19.5 -0.5h28q15 0 26 1t19.5 5
t15.5 12t14 22q3 5 6 12t3 9z" />
    <glyph glyph-name="degree" unicode="&#xb0;" horiz-adv-x="325" 
d="M428 620q6 26 0.5 49t-19 40t-34.5 27t-47 10q-27 0 -52 -10t-46.5 -27.5t-37.5 -40.5t-25 -49q-10 -29 -8.5 -55t12.5 -46t32 -31.5t51 -11.5q28 0 56.5 11.5t52.5 31.5t41.5 46.5t23.5 55.5zM367 616q-2 -17 -11 -32.5t-22.5 -27t-29.5 -18.5t-31 -7q-32 0 -45 23
t-8 53q2 16 10.5 32t20.5 28t27.5 19.5t31.5 7.5q33 0 47.5 -22t9.5 -56z" />
    <glyph glyph-name="plusminus" unicode="&#xb1;" horiz-adv-x="519" 
d="M502 53q3 12 -6 17t-21.5 5.5t-26 -0.5t-20.5 -1h-37h-40t-40 1q11 11 14 26q8 38 14.5 75t14.5 75h95h30q14 0 25 3.5t21 12t21 25.5q4 5 7 10.5t4 11.5q2 8 -6 11.5t-14 4.5q-15 2 -37 2q-21 0 -44 -0.5t-45.5 -1.5t-39.5 -1q8 23 12 47t9 47q2 9 7 24.5t7 30.5
t-1.5 26t-18.5 11q-4 2 -17.5 3.5t-18.5 0.5q-10 -2 -14 -9.5t-7 -15.5q-5 -16 -9.5 -37t-9 -43.5t-8.5 -44.5t-7 -39h-79q-15 0 -31.5 1t-31.5 -1.5t-28.5 -11t-22.5 -26.5q-8 -8 -9 -15q1 -16 10 -21.5t24 -5.5q29 0 57.5 1.5t57.5 1.5h35l-17 -80q-2 -8 -5.5 -20.5
t-7 -26.5t-5.5 -27.5t1 -23.5h-58q-11 0 -26 1t-31 0.5t-30.5 -3.5t-24.5 -10q-9 -7 -21 -18t-13 -25q0 -9 4.5 -15t12 -9t16 -4t16.5 -1q80 4 157.5 3t156.5 -1q30 0 54 8.5t42 42.5q2 3 4 9z" />
    <glyph glyph-name="twosuperior" unicode="&#xb2;" horiz-adv-x="328" 
d="M328 331q13 0 28 9.5t20 21t-5.5 21t-47.5 9.5q-18 0 -44 2t-48 0l-24 -2h-2h-4q5 6 11 13t16 16q22 20 48.5 39.5t50.5 40.5t42.5 46t24.5 55q4 20 -1 36.5t-16.5 28t-29 18t-36.5 6.5q-21 0 -46 -8t-47.5 -21t-38.5 -30.5t-18 -35.5q-2 -25 23 -23q8 0 15.5 7t12.5 13
q17 19 37.5 31.5t44.5 9.5q13 -2 23.5 -11.5t8.5 -20.5q-1 -28 -37 -64q-20 -20 -48.5 -44t-66.5 -58q-8 -7 -17.5 -17t-18.5 -20.5t-15.5 -21t-7.5 -17.5q-1 -11 5 -19q3 -3 11 -8t13 -5q2 0 4 0.5t4 0.5q16 2 36 2.5t40 0.5h41h38h10t11 -1z" />
    <glyph glyph-name="threesuperior" unicode="&#xb3;" horiz-adv-x="323" 
d="M331 532q23 12 38 28t21 37q7 21 2.5 38.5t-17 30t-33 19t-44.5 6.5q-15 0 -34 -4.5t-36.5 -13t-31.5 -20t-19 -25.5q-5 -11 0.5 -20.5t16.5 -9.5q5 0 10.5 2.5t10.5 8.5q21 15 39.5 22t37.5 5t29 -12.5t5 -27.5q-5 -23 -28.5 -32t-49.5 -14q-20 -2 -32.5 -12t-13.5 -22
q-2 -11 5.5 -15t16.5 -6h3q15 3 24 3q36 -1 56.5 -19t13.5 -49q-5 -22 -27.5 -37.5t-56.5 -13.5q-24 2 -37 13.5t-24 30.5q-3 14 -18 14q-12 0 -24.5 -10.5t-13.5 -25.5q0 -16 9.5 -30t25 -24.5t35.5 -16.5t41 -6q28 0 54 9t47 24.5t36 36.5t20 45v3q7 32 -9 54t-44 34z" />
    <glyph glyph-name="acute" unicode="&#xb4;" horiz-adv-x="230" 
d="M341 711q-15 21 -38.5 13.5t-46.5 -29.5q-11 -11 -30.5 -30t-36.5 -39t-27 -38.5t-3 -27.5q7 -10 27 -3.5t43.5 20.5t46.5 30.5t35 25.5q22 20 32.5 39.5t-2.5 38.5z" />
    <glyph glyph-name="paragraph" unicode="&#xb6;" horiz-adv-x="465" 
 />
    <glyph glyph-name="periodcentered" unicode="&#xb7;" horiz-adv-x="190" 
d="M233 352l-1 13q1 26 -11.5 37.5t-40.5 11.5q-26 0 -45.5 -17.5t-24.5 -42.5q-6 -31 8 -54.5t43 -23.5q15 0 28.5 6t24 16.5t15.5 24.5t4 29z" />
    <glyph glyph-name="periodcentered" unicode="&#x2219;" horiz-adv-x="190" 
d="M233 352l-1 13q1 26 -11.5 37.5t-40.5 11.5q-26 0 -45.5 -17.5t-24.5 -42.5q-6 -31 8 -54.5t43 -23.5q15 0 28.5 6t24 16.5t15.5 24.5t4 29z" />
    <glyph glyph-name="cedilla" unicode="&#xb8;" horiz-adv-x="357" 
d="M301 -126v0q1 0 1 -1l-1 -1q0 -2 -1 -4.5t-2 -7.5q-2 -8 -6.5 -17.5t-12.5 -17.5q-12 -15 -32 -27.5t-43.5 -20.5t-49.5 -11.5t-51 -0.5q-38 4 -63.5 11.5t-43.5 29.5q-4 4 -3.5 13t3 18t5.5 17t5 11q3 9 12 14t17 6q12 2 13.5 -4t-0.5 -12q-2 -5 -3.5 -10.5t1.5 -10.5
q8 -19 31 -26t52 -5q35 2 61 19.5t31 37.5q3 16 -9.5 29t-34.5 26q-10 6 -20.5 11.5t-20.5 11.5q-9 5 -17 11t-13 12q-7 6 -8.5 13t-0.5 14q2 8 4 14l2 6t1 5q2 11 8.5 15.5t14.5 6.5q7 1 13.5 0.5t12.5 -0.5q24 0 27.5 -6.5t-1.5 -20.5q-1 -1 -1 -6q-1 -2 -1 -4t-2 -4l1 1
q1 -6 2.5 -9.5t8.5 -8.5q6 -5 18.5 -12t32.5 -19q66 -39 63 -86z" />
    <glyph glyph-name="onesuperior" unicode="&#xb9;" horiz-adv-x="196" 
d="M215 317q7 1 14.5 5t9.5 15q1 5 -0.5 6.5t-4.5 3.5l-3 7q7 62 23.5 123t33.5 123q2 7 5 16.5t5 19.5t1.5 18.5t-4.5 14.5q0 7 -4 9.5t-9 4.5q-7 0 -13 -4q-15 -5 -33 -12.5t-33.5 -16t-26 -17.5t-10.5 -16q-1 -10 5 -16t16 -6q8 0 16.5 4t17.5 4h3q-2 -9 -7 -24.5
t-10 -35.5q-7 -25 -14.5 -51.5t-12.5 -50.5l-19 -84q0 -2 -8 -8.5t-14 -13.5t-6 -12t15 -5h37q8 0 16 -1t14 0z" />
    <glyph glyph-name="ordmasculine" unicode="&#xba;" horiz-adv-x="355" 
d="M438 525q2 8 3 16.5t1 17.5l-3 -14q1 26 -5.5 49.5t-20 41.5t-34 28.5t-47.5 10.5q-29 0 -57.5 -12t-53.5 -31.5t-43.5 -45.5t-28.5 -54q-11 -32 -9.5 -62.5t14.5 -54.5t36 -38.5t56 -14.5q34 0 66 13t57.5 35t43.5 52t25 63zM374 535q-2 -15 -11 -34.5t-23 -37
t-33.5 -29.5t-41.5 -12q-20 0 -33 9.5t-19 25t-6.5 34.5t4.5 37q4 17 14.5 33t24 28.5t29.5 20t32 7.5q35 0 51.5 -23.5t11.5 -58.5z" />
    <glyph glyph-name="guillemotright" unicode="&#xbb;" horiz-adv-x="463" 
d="M251 114q0 7 15.5 24.5t38 38.5t47 42.5t42.5 38.5q3 8 -3 20t-15.5 25.5t-20.5 27.5t-17 27q-8 15 -17.5 32.5t-7.5 24.5q2 9 14 21.5t21 12.5q29 0 59.5 -38.5t72.5 -118.5q12 -18 10 -33q-1 -5 -23.5 -28.5t-51.5 -52t-57.5 -55t-40.5 -37.5q-13 -9 -17.5 -12
t-12.5 -3q-6 0 -12.5 4t-12 10.5t-9 14t-2.5 14.5zM61 114q0 7 15.5 24.5t38 38.5t47 42.5t42.5 38.5q3 8 -3 20t-15.5 25.5t-20.5 27.5t-17 27q-8 15 -17.5 32.5t-7.5 24.5q2 9 14 21.5t21 12.5q29 0 59.5 -38.5t72.5 -118.5q12 -18 10 -33q-1 -5 -23.5 -28.5t-51.5 -52
t-57.5 -55t-40.5 -37.5q-13 -9 -17.5 -12t-12.5 -3q-6 0 -12.5 4t-12 10.5t-9 14t-2.5 14.5z" />
    <glyph glyph-name="onequarter" unicode="&#xbc;" horiz-adv-x="623" 
d="M489 514q-9 5 -16 -1t-18 -13q-27 -30 -39 -43.5t-20.5 -23t-20 -22t-37.5 -40.5q-21 -23 -31 -34t-17.5 -19t-17 -18t-28.5 -31l-11.5 -11.5l-6.5 -6.5q-20 -22 -33.5 -38.5t-21 -30t-8.5 -25t5 -24.5q0 -15 5 -16q11 -7 26 -0.5t30 23.5l3 3q19 22 42.5 49t62.5 70
q16 17 22 23l10.5 10.5t11 11.5t24.5 27l36 39q18 21 31 36.5t20.5 29t8.5 26t-4 27.5q0 8 -3.5 14.5t-4.5 7.5zM215 317q7 1 14.5 5t9.5 15q1 5 -0.5 6.5t-4.5 3.5l-3 7q7 62 23.5 123t33.5 123q2 7 5 17t5 19.5t1.5 18t-4.5 14.5q0 7 -4 9.5t-9 4.5q-7 0 -13 -4
q-15 -5 -33 -12.5t-33.5 -16t-26 -17.5t-10.5 -16q-1 -10 5 -16t16 -6q8 0 16.5 4t17.5 4h3q-2 -9 -7 -24.5t-10 -35.5q-7 -25 -14.5 -51.5t-12.5 -50.5l-19 -84q0 -2 -8 -8.5t-14 -13.5t-6 -12t15 -5h37q8 0 16 -1t14 0zM557 143q2 2 2 6l2.5 9t6 22.5t7 28.5t6.5 26
q5 15 0.5 25.5t-19.5 10.5q-3 0 -9 -1t-12.5 -4.5t-13 -10t-9.5 -16.5q-7 -21 -11.5 -42t-9.5 -42v-5t-2 -4q-1 -4 0 -4l-2 -1h-2q-24 -1 -43 -1h-32h-6l1 1q7 9 28.5 36t44 59t40.5 61.5t19 44.5q2 9 -5 14.5t-15 5.5q-11 0 -31.5 -14.5t-31.5 -40.5q-14 -26 -23 -42
t-20 -32q-10 -15 -25 -33t-41 -48q-2 -2 -6 -6.5t-9 -10t-9 -11.5t-4 -10q-3 -11 3 -23t27 -12h27q23 0 47 0.5t50 1.5q2 0 2 -2q0 -4 -1 -17.5t-0.5 -27.5t4 -25.5t11.5 -11.5q4 0 11.5 2.5t14 7.5t12 11.5t6.5 14.5t3 24.5t7 25.5h9h3h14q9 -2 21.5 6.5t20.5 20.5t7 23
t-19 13q-10 0 -21 -1.5t-24 -1.5h-1z" />
    <glyph glyph-name="onehalf" unicode="&#xbd;" horiz-adv-x="659" 
d="M489 514q-9 5 -16 -1t-18 -13q-27 -30 -39 -43.5t-20.5 -23t-20 -22t-37.5 -40.5q-21 -23 -31 -34t-17.5 -19t-17 -18t-28.5 -31l-11.5 -11.5l-6.5 -6.5q-20 -22 -33.5 -38.5t-21 -30t-8.5 -25t5 -24.5q0 -15 5 -16q11 -7 26 -0.5t30 23.5l3 3q19 22 42.5 49t62.5 70
q16 17 22 23l10.5 10.5t11 11.5t24.5 27l36 39q18 21 31 36.5t20.5 29t8.5 26t-4 27.5q0 8 -3.5 14.5t-4.5 7.5zM215 317q7 1 14.5 5t9.5 15q1 5 -0.5 6.5t-4.5 3.5l-3 7q7 62 23.5 123t33.5 123q2 7 5 16.5t5 19.5t1.5 18.5t-4.5 14.5q0 7 -4 9.5t-9 4.5q-7 0 -13 -4
q-15 -5 -33 -12.5t-33.5 -16t-26 -17.5t-10.5 -16q-1 -10 5 -16t16 -6q8 0 16.5 4t17.5 4h3q-2 -9 -7 -24.5t-10 -35.5q-7 -25 -14.5 -51.5t-12.5 -50.5l-19 -84q0 -2 -8 -8.5t-14 -13.5t-6 -12t15 -5h37q8 0 16 -1t14 0zM587 -1q9 -1 19 3.5t18 11.5t11.5 15t0.5 15
t-15.5 11.5t-37.5 4.5q-18 0 -44.5 1t-47.5 0l-24 -1q-1 -1 -2 0q-2 -1 -4 -1q10 14 27 29q23 20 49.5 39.5t50.5 41t42.5 46.5t24.5 55q4 20 -1 36.5t-17 28t-29 18t-36 6.5q-21 0 -46 -8t-47.5 -21.5t-39 -31t-18.5 -35.5q-1 -11 6 -17t18 -5q8 0 15 7t12 13
q17 19 38 31.5t45 9.5q12 -2 23 -12t9 -21q-1 -14 -10 -28.5t-29 -34.5q-19 -20 -47 -44t-66 -58q-8 -7 -17.5 -17t-18.5 -21t-16 -21t-8 -17q0 -14 5 -19q4 -3 12 -8t13 -5t8 1q16 1 36 2t40 1h41h38q5 0 9.5 -0.5t9.5 -0.5z" />
    <glyph glyph-name="threequarters" unicode="&#xbe;" horiz-adv-x="710" 
d="M575 514q-9 5 -16 -1t-18 -13q-27 -30 -39 -43.5t-20.5 -23t-19.5 -22t-38 -40.5q-21 -23 -31 -34t-17.5 -19t-16.5 -18t-29 -31q-6 -7 -11 -11.5t-7 -6.5q-19 -22 -32.5 -38.5t-21 -30t-9 -25t4.5 -24.5q0 -15 5 -16q11 -7 26 -0.5t30 23.5l3 3q20 23 43 49.5t62 69.5
q16 17 22 23l10.5 10.5t11 11.5t24.5 27l36 39q19 21 32 36.5t20 29t8 26t-4 27.5q0 8 -3.5 14.5t-4.5 7.5zM643 143q2 2 2 6l2.5 9t6 22.5t7 28.5t6.5 26q5 15 0.5 25.5t-19.5 10.5q-3 0 -9 -1t-12.5 -4.5t-13 -10t-9.5 -16.5q-7 -21 -11.5 -42t-9.5 -42v-5t-2 -4
q-1 -4 0 -4l-2 -1h-2q-24 -1 -43 -1h-32h-6l1 1q7 9 28.5 36t44 59t40.5 61.5t19 44.5q2 9 -5 14.5t-15 5.5q-11 0 -31.5 -14.5t-31.5 -40.5q-14 -26 -23 -42t-20 -32q-10 -15 -25 -33t-41 -48q-2 -2 -6 -6.5t-9 -10t-9 -11.5t-4 -10q-3 -11 3 -23t27 -12h27q23 0 47 0.5
t50 1.5q2 0 2 -2q0 -4 -1 -17.5t-0.5 -27.5t4 -25.5t11.5 -11.5q4 0 11.5 2.5t14.5 7.5t12 11.5t6 14.5q2 8 3.5 24.5t6.5 25.5h9h3h14q9 -2 21.5 6.5t20.5 20.5t7 23t-19 13q-10 0 -21 -1.5t-24 -1.5h-1zM331 532q23 12 38 28t21 37q7 21 2.5 38.5t-17 30t-33 19t-44.5 6.5
q-15 0 -34 -4.5t-36.5 -13t-31.5 -20t-19 -25.5q-5 -11 0.5 -20.5t16.5 -9.5q5 0 10.5 2.5t10.5 8.5q21 15 39.5 22t37.5 5t29 -12.5t5 -27.5q-5 -23 -28.5 -32t-49.5 -14q-20 -2 -32.5 -12t-13.5 -22q-2 -11 5.5 -15t16.5 -6h3q15 3 24 3q36 -1 56.5 -19t13.5 -49
q-5 -22 -27.5 -37.5t-56.5 -13.5q-24 2 -37 13.5t-24 30.5q-3 14 -18 14q-12 0 -24.5 -10.5t-13.5 -25.5q0 -16 9.5 -30t25 -24.5t35.5 -16.5t41 -6q28 0 54 9t47 24.5t36 36.5t20 45v3q7 32 -9 54t-44 34z" />
    <glyph glyph-name="questiondown" unicode="&#xbf;" horiz-adv-x="458" 
d="M52 83q1 9 0 2.5t-3 -20t-2.5 -31.5t2.5 -31q6 -28 24 -50t44.5 -37t59 -21t67.5 -1q27 4 50 8.5t43.5 13t39 21t38.5 32.5q7 7 11.5 23t7 32.5t3.5 30t0 16.5q2 12 -4.5 21t-17.5 10q-10 2 -13.5 -4.5t-5 -17t-4 -23t-11.5 -22.5q-25 -38 -64 -51.5t-76 -9.5
q-49 5 -75 38t-16 78q7 34 36.5 61t65.5 50t72 43.5t57 43.5q12 9 18 20.5t9 23t4 23.5t3 23q3 15 -1 22t-11.5 9.5t-17 1.5t-17.5 -1q-30 0 -37 -10t-8 -27l-1 -5t-2 -10.5t-2 -10.5l-1 -5q-6 -14 -12.5 -22.5t-19 -17.5t-34.5 -22t-58 -36q-60 -38 -93.5 -77t-47.5 -84z
M333 553q-2 -8 0 -15l-1 -2q2 -20 15 -32t35 -12q14 0 27 6.5t22.5 17t15 23.5t4.5 27q-1 22 -16.5 33.5t-35.5 11.5q-25 0 -43.5 -17.5t-22.5 -40.5z" />
    <glyph glyph-name="Agrave" unicode="&#xc0;" horiz-adv-x="656" 
d="M639 53q1 9 -1.5 22.5t-6 28.5t-7 30.5t-4.5 27.5q-12 111 -24 219.5t-24 217.5q-2 15 -1.5 34t-2.5 35t-11.5 27t-26.5 11q-11 0 -33 -9t-40 -23q-14 -10 -33 -34.5t-41 -57t-47 -72t-50 -79.5t-48.5 -79t-44.5 -71q-26 -42 -48.5 -77.5t-39.5 -71.5q-27 -43 -42 -66
t-23 -38q-3 -17 6 -27t22 -10q19 0 39 18.5t39.5 45t36.5 56t29 50.5q9 9 12 16t10 12.5t20.5 9.5t43.5 7q21 2 48 1.5t54.5 -1t52.5 -1.5t42 -1q12 0 17.5 -6t7 -16t1 -20.5t0.5 -19.5q4 -33 8 -60.5t10 -47.5t14.5 -31t20.5 -11q5 0 16.5 8t22.5 18t19 20t7 15zM506 289
q-74 -5 -125.5 -2.5t-89.5 -1.5q36 62 78 122t84 130q5 8 13.5 13.5t10.5 5.5q7 -67 14 -133.5t15 -133.5zM620 779q10 9 8 27.5t-10.5 38.5t-19.5 39t-18 30q-14 22 -34.5 29.5t-43.5 -13.5q-22 -19 -19.5 -38.5t16.5 -39.5q8 -9 23.5 -25.5t33 -30.5t35 -20.5t29.5 3.5z
" />
    <glyph glyph-name="Aacute" unicode="&#xc1;" horiz-adv-x="656" 
d="M639 53q1 9 -1.5 22.5t-6 28.5t-7 30.5t-4.5 27.5q-12 111 -24 219.5t-24 217.5q-2 15 -1.5 34t-2.5 35t-11.5 27t-26.5 11q-11 0 -33 -9t-40 -23q-14 -10 -33 -34.5t-41 -57t-47 -72t-50 -79.5t-48.5 -79t-44.5 -71q-26 -42 -48.5 -77.5t-39.5 -71.5q-27 -43 -42 -66
t-23 -38q-3 -17 6 -27t22 -10q19 0 39 18.5t39.5 45t36.5 56t29 50.5q9 9 12 16t10 12.5t20.5 9.5t43.5 7q21 2 48 1.5t54.5 -1t52.5 -1.5t42 -1q12 0 17.5 -6t7 -16t1 -20.5t0.5 -19.5q4 -33 8 -60.5t10 -47.5t14.5 -31t20.5 -11q5 0 16.5 8t22.5 18t19 20t7 15zM506 289
q-74 -5 -125.5 -2.5t-89.5 -1.5q36 62 78 122t84 130q5 8 13.5 13.5t10.5 5.5q7 -67 14 -133.5t15 -133.5zM470 779q-7 9 3.5 27.5t27.5 38.5t36.5 39t30.5 30q23 22 46.5 29.5t37.5 -13.5q14 -19 3 -38.5t-32 -39.5q-13 -9 -35.5 -25.5t-46 -30.5t-44 -20.5t-27.5 3.5z" />
    <glyph glyph-name="Acircumflex" unicode="&#xc2;" horiz-adv-x="656" 
d="M639 53q1 9 -1.5 22.5t-6 28.5t-7 30.5t-4.5 27.5q-12 111 -24 219.5t-24 217.5q-2 15 -1.5 34t-2.5 35t-11.5 27t-26.5 11q-11 0 -33 -9t-40 -23q-14 -10 -33 -34.5t-41 -57t-47 -72t-50 -79.5t-48.5 -79t-44.5 -71q-26 -42 -48.5 -77.5t-39.5 -71.5q-27 -43 -42 -66
t-23 -38q-3 -17 6 -27t22 -10q19 0 39 18.5t39.5 45t36.5 56t29 50.5q9 9 12 16t10 12.5t20.5 9.5t43.5 7q21 2 48 1.5t54.5 -1t52.5 -1.5t42 -1q12 0 17.5 -6t7 -16t1 -20.5t0.5 -19.5q4 -33 8 -60.5t10 -47.5t14.5 -31t20.5 -11q5 0 16.5 8t22.5 18t19 20t7 15zM506 289
q-74 -5 -125.5 -2.5t-89.5 -1.5q36 62 78 122t84 130q5 8 13.5 13.5t10.5 5.5q7 -67 14 -133.5t15 -133.5zM678 795q1 5 -3 15.5t-11 23.5t-14.5 26.5t-13.5 23.5q-8 16 -15.5 32t-16.5 21q-4 6 -11 5.5t-11 -0.5q-8 0 -16.5 -3.5t-16.5 -8.5q-21 -18 -43 -38t-40.5 -38
t-31 -32.5t-15.5 -22.5q-2 -3 -1.5 -9t4.5 -11t13 -8t25 0q6 2 18.5 13t27.5 26t31 30.5t30 27.5q8 -6 16 -21.5t16 -31.5t16.5 -29t16.5 -14q46 0 46 23z" />
    <glyph glyph-name="Atilde" unicode="&#xc3;" horiz-adv-x="656" 
d="M639 53q1 9 -1.5 22.5t-6 28.5t-7 30.5t-4.5 27.5q-12 111 -24 219.5t-24 217.5q-2 15 -1.5 34t-2.5 35t-11.5 27t-26.5 11q-11 0 -33 -9t-40 -23q-14 -10 -33 -34.5t-41 -57t-47 -72t-50 -79.5t-48.5 -79t-44.5 -71q-26 -42 -48.5 -77.5t-39.5 -71.5q-27 -43 -42 -66
t-23 -38q-3 -17 6 -27t22 -10q19 0 39 18.5t39.5 45t36.5 56t29 50.5q9 9 12 16t10 12.5t20.5 9.5t43.5 7q21 2 48 1.5t54.5 -1t52.5 -1.5t42 -1q12 0 17.5 -6t7 -16t1 -20.5t0.5 -19.5q4 -33 8 -60.5t10 -47.5t14.5 -31t20.5 -11q5 0 16.5 8t22.5 18t19 20t7 15zM506 289
q-74 -5 -125.5 -2.5t-89.5 -1.5q36 62 78 122t84 130q5 8 13.5 13.5t10.5 5.5q7 -67 14 -133.5t15 -133.5zM731 832q14 8 19 21.5t2.5 23.5t-11.5 13.5t-23 -8.5q-35 -28 -69 -31t-58 33q-32 32 -79 27t-94 -47q-8 -6 -12.5 -19t-4 -24.5t7.5 -15.5t22 8q17 13 34.5 21.5
t34 9t31 -7.5t26.5 -26q33 -32 79.5 -26.5t94.5 48.5z" />
    <glyph glyph-name="Adieresis" unicode="&#xc4;" horiz-adv-x="656" 
d="M639 53q1 9 -1.5 22.5t-6 28.5t-7 30.5t-4.5 27.5q-12 111 -24 219.5t-24 217.5q-2 15 -1.5 34t-2.5 35t-11.5 27t-26.5 11q-11 0 -33 -9t-40 -23q-14 -10 -33 -34.5t-41 -57t-47 -72t-50 -79.5t-48.5 -79t-44.5 -71q-26 -42 -48.5 -77.5t-39.5 -71.5q-27 -43 -42 -66
t-23 -38q-3 -17 6 -27t22 -10q19 0 39 18.5t39.5 45t36.5 56t29 50.5q9 9 12 16t10 12.5t20.5 9.5t43.5 7q21 2 48 1.5t54.5 -1t52.5 -1.5t42 -1q12 0 17.5 -6t7 -16t1 -20.5t0.5 -19.5q4 -33 8 -60.5t10 -47.5t14.5 -31t20.5 -11q5 0 16.5 8t22.5 18t19 20t7 15zM506 289
q-74 -5 -125.5 -2.5t-89.5 -1.5q36 62 78 122t84 130q5 8 13.5 13.5t10.5 5.5q7 -67 14 -133.5t15 -133.5zM516 847q8 26 -1 45t-28 18q-18 0 -34.5 -16.5t-24.5 -40.5q-5 -26 0.5 -45.5t25.5 -18.5q17 0 35 16t27 42zM687 847q8 26 -0.5 45t-28.5 18q-18 0 -34.5 -16.5
t-24.5 -40.5q-5 -26 0.5 -45.5t25.5 -18.5q17 0 35.5 16t26.5 42z" />
    <glyph glyph-name="Aring" unicode="&#xc5;" horiz-adv-x="656" 
d="M639 53q1 9 -1.5 22.5t-6 28.5t-7 30.5t-4.5 27.5q-12 111 -24 219.5t-24 217.5q-2 15 -1.5 34t-2.5 35t-11.5 27t-26.5 11q-11 0 -33 -9t-40 -23q-14 -10 -33 -34.5t-41 -57t-47 -72t-50 -79.5t-48.5 -79t-44.5 -71q-26 -42 -48.5 -77.5t-39.5 -71.5q-27 -43 -42 -66
t-23 -38q-3 -17 6 -27t22 -10q19 0 39 18.5t39.5 45t36.5 56t29 50.5q9 9 12 16t10 12.5t20.5 9.5t43.5 7q21 2 48 1.5t54.5 -1t52.5 -1.5t42 -1q12 0 17.5 -6t7 -16t1 -20.5t0.5 -19.5q4 -33 8 -60.5t10 -47.5t14.5 -31t20.5 -11q5 0 16.5 8t22.5 18t19 20t7 15zM506 289
q-74 -5 -125.5 -2.5t-89.5 -1.5q36 62 78 122t84 130q5 8 13.5 13.5t10.5 5.5q7 -67 14 -133.5t15 -133.5zM530 737q27 0 54 9.5t49.5 26t38.5 38.5t21 46q9 45 -20 75t-80 30q-26 0 -50 -8.5t-44 -22.5t-35 -33t-22 -41q-9 -24 -7 -46t14 -38.5t32.5 -26t48.5 -9.5z
M576 910q29 0 41.5 -16t9.5 -41t-27 -43.5t-51 -18.5t-39 16.5t-9 39.5q1 12 7.5 23.5t17 20t23.5 14t27 5.5z" />
    <glyph glyph-name="AE" unicode="&#xc6;" horiz-adv-x="1003" 
d="M448 368q59 66 109.5 122t93.5 99q2 -9 2.5 -21t-3.5 -27q-8 -35 -21 -75.5t-24 -81.5q-8 -2 -20.5 -3t-38.5 -4q-23 -2 -33.5 -3t-18.5 -1.5t-17.5 -1.5zM588 305l-6 -32q-21 -99 -28 -156.5t7.5 -86t55 -36t113.5 -7.5q58 0 106.5 5.5t83 16t53 26.5t16.5 38
q0 26 -27 26q-5 0 -11 -2q-57 -12 -109 -17.5t-104 -6.5q-32 0 -53 5t-28 18q0 10 1.5 28t4.5 40t7.5 47t9.5 49q2 11 5 21t5 20q11 9 26 13.5t36 7.5t48.5 4t64.5 3q23 1 37.5 2.5t31.5 6.5h18q22 7 37 21t17 28q0 13 -8 20.5t-29 7.5q-19 0 -50 -2.5t-66 -5.5t-71 -6
t-64 -4q-2 27 3.5 58.5t13 60t15 50.5t10.5 30q13 7 32 11.5t40.5 6.5t43.5 2.5t40 0.5h31q15 0 30 -0.5t29.5 0t26.5 3t20 8.5q14 6 22 17.5t9 21.5q2 23 -26.5 29.5t-85.5 6.5h-19q-33 0 -67.5 -1.5t-66.5 -4.5t-60 -7t-48 -9q-1 2 -13 -1t-17 -5h-3q-30 3 -55 -9.5
t-47.5 -33.5t-43.5 -47.5t-43 -51.5q-48 -54 -99.5 -113.5t-104 -120t-105 -119t-102.5 -110.5l-11 -12q-10 -13 -15 -19t-10 -9q-6 -11 4.5 -19.5t20.5 -9.5q27 -3 50.5 9.5t46.5 35t47 52.5t51 61l109 123q21 2 45.5 6t63.5 8q17 2 23 2h10q5 0 12 0.5t26 2.5z" />
    <glyph glyph-name="Ccedilla" unicode="&#xc7;" horiz-adv-x="587" 
d="M454 -126q3 47 -63 86q-20 12 -32.5 19t-18.5 12l-3 2q59 5 114 32t103 76q4 6 11 17t14 23t12 23.5t5 17.5q1 11 -7.5 19.5t-21.5 6.5q-13 -1 -26 -11t-26 -23t-25 -26t-22 -21q-29 -23 -54 -32t-56 -11q-45 -3 -78.5 11t-54 44t-27 76t3.5 106q9 57 30 107.5t51 89
t68 62.5t82 28q15 1 35.5 -1t39.5 -7t34 -11t20 -12q9 -9 12.5 -23.5t3.5 -28.5t-1.5 -25t-0.5 -12q6 -10 22 -10q17 0 30.5 8t23.5 20.5t17 28t10 31.5q8 37 -15.5 62.5t-60 40.5t-76 21t-63.5 5q-65 -3 -124 -34.5t-107.5 -84.5t-83.5 -124.5t-51 -154.5
q-11 -58 -5.5 -107.5t26 -88.5t53.5 -65t77 -37q0 -6 2 -12.5t8 -11.5q5 -6 13 -12t17 -11q10 -6 20.5 -11.5t20.5 -11.5q22 -13 34.5 -26t9.5 -29q-5 -20 -31 -37.5t-61 -19.5q-29 -2 -52 5t-31 26q-3 5 -1.5 10.5t3.5 10.5q2 6 0.5 12t-13.5 4q-8 -1 -17 -6t-12 -14
q-2 -3 -5.5 -11t-6 -17t-3 -18t3.5 -13q19 -22 44.5 -29.5t63.5 -11.5q25 -3 51 0.5t49.5 11.5t43.5 20.5t32 27.5q8 8 12.5 17.5t6.5 17.5q1 5 2 7.5t1 4.5l1 1q0 1 -1 1v0z" />
    <glyph glyph-name="Egrave" unicode="&#xc8;" horiz-adv-x="542" 
d="M527 73q0 26 -27 26q-5 0 -11 -2q-57 -12 -109 -17.5t-104 -6.5q-32 0 -53 5t-28 18q0 10 1.5 28t4.5 40t7.5 47t9.5 49q2 11 5 21t5 20q11 9 26 13.5t36 7.5t48.5 4t64.5 3q23 1 37.5 2.5t31.5 6.5h18q22 7 37.5 21t16.5 28q1 13 -7.5 20.5t-29.5 7.5q-19 0 -50 -2.5
t-66 -5.5t-71 -6t-64 -4q-2 27 3.5 58.5t13 60t15 50.5t10.5 30q13 7 32 11.5t40.5 6.5t43.5 2.5t40 0.5h31q15 0 30 -0.5t29.5 0t26.5 3t20 8.5q14 6 22.5 17.5t8.5 21.5q3 23 -26 29.5t-86 6.5h-19q-33 0 -67.5 -1.5t-66.5 -4.5t-60 -7t-48 -9q0 1 -5 0.5t-10.5 -2l-11 -3
t-6.5 -1.5q-21 -4 -31.5 -10t-14.5 -26q-1 -9 3.5 -17t9.5 -18.5t7.5 -25.5t-2.5 -37q-9 -42 -26 -93.5t-28 -99.5q-2 -10 -3.5 -19.5t-3.5 -19.5l-7 -36q-21 -99 -28 -156.5t7.5 -86t55 -36t113.5 -7.5q58 0 106.5 5.5t83 16t53 26.5t16.5 38zM511 779q10 9 8 27.5
t-10.5 38.5t-19.5 39t-18 30q-14 22 -34 29.5t-44 -13.5q-21 -19 -19 -38.5t16 -39.5q8 -9 23.5 -25.5t33 -30.5t35 -20.5t29.5 3.5z" />
    <glyph glyph-name="Eacute" unicode="&#xc9;" horiz-adv-x="542" 
d="M527 73q0 26 -27 26q-5 0 -11 -2q-57 -12 -109 -17.5t-104 -6.5q-32 0 -53 5t-28 18q0 10 1.5 28t4.5 40t7.5 47t9.5 49q2 11 5 21t5 20q11 9 26 13.5t36 7.5t48.5 4t64.5 3q23 1 37.5 2.5t31.5 6.5h18q22 7 37.5 21t16.5 28q1 13 -7.5 20.5t-29.5 7.5q-19 0 -50 -2.5
t-66 -5.5t-71 -6t-64 -4q-2 27 3.5 58.5t13 60t15 50.5t10.5 30q13 7 32 11.5t40.5 6.5t43.5 2.5t40 0.5h31q15 0 30 -0.5t29.5 0t26.5 3t20 8.5q14 6 22.5 17.5t8.5 21.5q3 23 -26 29.5t-86 6.5h-19q-33 0 -67.5 -1.5t-66.5 -4.5t-60 -7t-48 -9q0 1 -5 0.5t-10.5 -2l-11 -3
t-6.5 -1.5q-21 -4 -31.5 -10t-14.5 -26q-1 -9 3.5 -17t9.5 -18.5t7.5 -25.5t-2.5 -37q-9 -42 -26 -93.5t-28 -99.5q-2 -10 -3.5 -19.5t-3.5 -19.5l-7 -36q-21 -99 -28 -156.5t7.5 -86t55 -36t113.5 -7.5q58 0 106.5 5.5t83 16t53 26.5t16.5 38zM361 779q-7 9 3.5 27.5
t27.5 38.5t36.5 39t30.5 30q23 22 46.5 29.5t37.5 -13.5q14 -19 3 -38.5t-32 -39.5q-13 -9 -35.5 -25.5t-46 -30.5t-44 -20.5t-27.5 3.5z" />
    <glyph glyph-name="Ecircumflex" unicode="&#xca;" horiz-adv-x="542" 
d="M527 73q0 26 -27 26q-5 0 -11 -2q-57 -12 -109 -17.5t-104 -6.5q-32 0 -53 5t-28 18q0 10 1.5 28t4.5 40t7.5 47t9.5 49q2 11 5 21t5 20q11 9 26 13.5t36 7.5t48.5 4t64.5 3q23 1 37.5 2.5t31.5 6.5h18q22 7 37.5 21t16.5 28q1 13 -7.5 20.5t-29.5 7.5q-19 0 -50 -2.5
t-66 -5.5t-71 -6t-64 -4q-2 27 3.5 58.5t13 60t15 50.5t10.5 30q13 7 32 11.5t40.5 6.5t43.5 2.5t40 0.5h31q15 0 30 -0.5t29.5 0t26.5 3t20 8.5q14 6 22.5 17.5t8.5 21.5q3 23 -26 29.5t-86 6.5h-19q-33 0 -67.5 -1.5t-66.5 -4.5t-60 -7t-48 -9q0 1 -5 0.5t-10.5 -2l-11 -3
t-6.5 -1.5q-21 -4 -31.5 -10t-14.5 -26q-1 -9 3.5 -17t9.5 -18.5t7.5 -25.5t-2.5 -37q-9 -42 -26 -93.5t-28 -99.5q-2 -10 -3.5 -19.5t-3.5 -19.5l-7 -36q-21 -99 -28 -156.5t7.5 -86t55 -36t113.5 -7.5q58 0 106.5 5.5t83 16t53 26.5t16.5 38zM569 795q1 5 -3 15.5
t-11 23.5t-14.5 26.5t-13.5 23.5q-8 16 -15.5 32t-16.5 21q-4 6 -11 5.5t-11 -0.5q-8 0 -16.5 -3.5t-16.5 -8.5q-21 -18 -43 -38t-40.5 -38t-31 -32.5t-15.5 -22.5q-2 -3 -1.5 -9t4.5 -11t13 -8t25 0q6 2 18.5 13t27.5 26t31 30.5t30 27.5q8 -6 16 -21.5t16 -31.5t16.5 -29
t16.5 -14q46 0 46 23z" />
    <glyph glyph-name="Edieresis" unicode="&#xcb;" horiz-adv-x="542" 
d="M527 73q0 26 -27 26q-5 0 -11 -2q-57 -12 -109 -17.5t-104 -6.5q-32 0 -53 5t-28 18q0 10 1.5 28t4.5 40t7.5 47t9.5 49q2 11 5 21t5 20q11 9 26 13.5t36 7.5t48.5 4t64.5 3q23 1 37.5 2.5t31.5 6.5h18q22 7 37.5 21t16.5 28q1 13 -7.5 20.5t-29.5 7.5q-19 0 -50 -2.5
t-66 -5.5t-71 -6t-64 -4q-2 27 3.5 58.5t13 60t15 50.5t10.5 30q13 7 32 11.5t40.5 6.5t43.5 2.5t40 0.5h31q15 0 30 -0.5t29.5 0t26.5 3t20 8.5q14 6 22.5 17.5t8.5 21.5q3 23 -26 29.5t-86 6.5h-19q-33 0 -67.5 -1.5t-66.5 -4.5t-60 -7t-48 -9q0 1 -5 0.5t-10.5 -2l-11 -3
t-6.5 -1.5q-21 -4 -31.5 -10t-14.5 -26q-1 -9 3.5 -17t9.5 -18.5t7.5 -25.5t-2.5 -37q-9 -42 -26 -93.5t-28 -99.5q-2 -10 -3.5 -19.5t-3.5 -19.5l-7 -36q-21 -99 -28 -156.5t7.5 -86t55 -36t113.5 -7.5q58 0 106.5 5.5t83 16t53 26.5t16.5 38zM410 847q8 26 -1 45t-28 18
q-18 0 -34.5 -16.5t-24.5 -40.5q-5 -26 0.5 -45.5t25.5 -18.5q17 0 35 16t27 42zM581 847q8 26 -0.5 45t-28.5 18q-18 0 -34.5 -16.5t-24.5 -40.5q-5 -26 0.5 -45.5t25.5 -18.5q17 0 35.5 16t26.5 42z" />
    <glyph glyph-name="Igrave" unicode="&#xcc;" horiz-adv-x="272" 
d="M245 19q2 12 -6.5 21.5t-19.5 19.5t-19 21t-5 25q1 13 5 36.5t9.5 52t12.5 61t14 64.5l6 31q11 53 25.5 106.5t28.5 104.5q13 15 27 29.5t25.5 27t19.5 21.5t9 14q1 14 -8.5 22t-23.5 12t-31 4q-16 0 -28 -1q-62 -5 -88.5 -14.5t-29.5 -34.5q-3 -17 0 -25.5t8 -15.5
t9.5 -14t4.5 -21q-2 -10 -2.5 -19.5t-1.5 -18.5q-17 -58 -31.5 -118t-26.5 -118q-9 -42 -15.5 -73.5t-10.5 -56t-5.5 -43.5t-1.5 -36q0 -11 -8.5 -20.5t-18.5 -19.5t-18.5 -20.5t-8.5 -22.5q-1 -10 15 -13.5t36.5 -4t39 1t23.5 1.5q13 1 28.5 2.5t29 5.5t23 10t9.5 16z
M373 779q10 9 8 27.5t-10.5 38.5t-19.5 39t-18 30q-14 22 -34.5 29.5t-43.5 -13.5q-22 -19 -19.5 -38.5t16.5 -39.5q8 -9 23.5 -25.5t33 -30.5t35 -20.5t29.5 3.5z" />
    <glyph glyph-name="Iacute" unicode="&#xcd;" horiz-adv-x="272" 
d="M245 19q2 12 -6.5 21.5t-19.5 19.5t-19 21t-5 25q1 13 5 36.5t9.5 52t12.5 61t14 64.5l6 31q11 53 25.5 106.5t28.5 104.5q13 15 27 29.5t25.5 27t19.5 21.5t9 14q1 14 -8.5 22t-23.5 12t-31 4q-16 0 -28 -1q-62 -5 -88.5 -14.5t-29.5 -34.5q-3 -17 0 -25.5t8 -15.5
t9.5 -14t4.5 -21q-2 -10 -2.5 -19.5t-1.5 -18.5q-17 -58 -31.5 -118t-26.5 -118q-9 -42 -15.5 -73.5t-10.5 -56t-5.5 -43.5t-1.5 -36q0 -11 -8.5 -20.5t-18.5 -19.5t-18.5 -20.5t-8.5 -22.5q-1 -10 15 -13.5t36.5 -4t39 1t23.5 1.5q13 1 28.5 2.5t29 5.5t23 10t9.5 16z
M223 779q-7 9 3 27.5t27.5 38.5t37 39t30.5 30q23 22 46 29.5t38 -13.5q14 -19 3 -38.5t-32 -39.5q-13 -9 -35.5 -25.5t-46.5 -30.5t-44 -20.5t-27 3.5z" />
    <glyph glyph-name="Icircumflex" unicode="&#xce;" horiz-adv-x="272" 
d="M248 19q2 12 -6.5 21.5t-19.5 19.5t-19 21t-5 25q1 13 5 36.5t9.5 52t12.5 61t14 64.5l6 31q11 53 25.5 106.5t28.5 104.5q13 15 27 29.5t26 27t20 21.5t8 14q1 14 -8 22t-23.5 12t-31.5 4q-16 0 -28 -1q-62 -5 -88 -14.5t-30 -34.5q-2 -17 1 -25.5t7.5 -15.5l9 -14
t4.5 -21q-2 -10 -2.5 -19.5t-1.5 -18.5q-17 -58 -31.5 -118t-26.5 -118q-9 -42 -15.5 -73.5t-10 -56t-5.5 -43.5t-2 -36q0 -11 -8 -20.5t-18 -19.5t-19 -20.5t-9 -22.5q0 -10 15.5 -13.5t36 -4t39 1t23.5 1.5q13 1 28.5 2.5t29 5.5t23 10t9.5 16zM434 795q1 5 -3 15.5
t-11 23.5t-14.5 26.5t-13.5 23.5q-8 16 -15.5 32t-16.5 21q-4 6 -11 5.5t-11 -0.5q-8 0 -16.5 -3.5t-16.5 -8.5q-21 -18 -43 -38t-40.5 -38t-31 -32.5t-15.5 -22.5q-2 -3 -1.5 -9t4.5 -11t13 -8t25 0q6 2 18.5 13t27.5 26t31 30.5t30 27.5q8 -6 16 -21.5t16 -31.5t16.5 -29
t16.5 -14q46 0 46 23z" />
    <glyph glyph-name="Idieresis" unicode="&#xcf;" horiz-adv-x="272" 
d="M248 19q2 12 -6.5 21.5t-19.5 19.5t-19 21t-5 25q1 13 5 36.5t9.5 52t12.5 61t14 64.5l6 31q11 53 25.5 106.5t28.5 104.5q13 15 27 29.5t25.5 27t19.5 21.5t9 14q1 14 -8.5 22t-23.5 12t-31 4q-16 0 -28 -1q-62 -5 -88.5 -14.5t-29.5 -34.5q-3 -17 0 -25.5t8 -15.5
t9.5 -14t4.5 -21q-2 -10 -2.5 -19.5t-1.5 -18.5q-17 -58 -31.5 -118t-26.5 -118q-9 -42 -15.5 -73.5t-10 -56t-5.5 -43.5t-2 -36q0 -11 -8 -20.5t-18.5 -19.5t-19 -20.5t-8.5 -22.5q-1 -10 15 -13.5t36.5 -4t39 1t23.5 1.5q13 1 28.5 2.5t29 5.5t23 10t9.5 16zM275 847
q8 26 -1 45t-28 18q-18 0 -34.5 -16.5t-24.5 -40.5q-5 -26 0.5 -45.5t25.5 -18.5q17 0 35 16t27 42zM446 847q8 26 -0.5 45t-28.5 18q-18 0 -34.5 -16.5t-24.5 -40.5q-5 -26 0.5 -45.5t25.5 -18.5q17 0 35.5 16t26.5 42z" />
    <glyph glyph-name="Eth" unicode="&#xd0;" horiz-adv-x="678" 
d="M163 301q-6 -31 -12 -60t-11 -48q-12 -48 -17.5 -77.5t-6.5 -46.5t2 -24t9 -10.5t14.5 -6t18.5 -10.5q27 -14 67 -21.5t79 -7.5q74 0 142 26.5t123.5 74t95.5 113.5t57 146q12 59 5.5 113.5t-32 99t-71 75t-110.5 40.5q-29 8 -64 10t-80 2q-31 0 -60 -3t-52 -10.5
t-37.5 -19.5t-15.5 -31q1 -14 7.5 -19t12.5 -9.5t9 -12t-3 -25.5l-47 -164q0 -4 -4 -14q-28 -2 -43.5 -9t-26.5 -30q-9 -9 -8 -15q-2 -27 33 -27h3h11q6 0 12 1zM468 364q1 11 -6 12t-15 4h-42q-12 0 -21 -0.5t-21 -0.5h-38h-47q19 86 35 144t27 81q21 2 47 2.5t51.5 -2
t47.5 -8t34 -15.5q69 -18 98 -76.5t12 -147.5q-11 -63 -37.5 -115.5t-65 -90t-87 -58t-103.5 -20.5q-38 0 -65 10.5t-47 24.5q5 31 11.5 68.5t16.5 82.5l9 44q12 0 16.5 -0.5t8.5 -0.5t11 -0.5t24 -0.5h37q20 0 34.5 1t26 5t20 12t16.5 23q5 5 8 12.5t4 9.5z" />
    <glyph glyph-name="Ntilde" unicode="&#xd1;" horiz-adv-x="633" 
d="M622 84q5 36 12.5 81.5t18.5 98.5l10 48q9 41 19.5 85.5t21 87.5t20 82.5t16.5 71.5q7 31 2 43.5t-19 12.5q-10 3 -24.5 1t-28.5 -9t-24.5 -17.5t-11.5 -23.5q-8 -71 -23.5 -147.5t-34.5 -164.5l-15 -71q-4 -20 -6 -31t-3 -19t-2 -15t-2 -17q-3 -21 -9 -35
q-23 28 -50 76.5t-55 109t-55 128.5t-51 135q-13 37 -25.5 57t-25.5 28.5t-27 8t-29 -4.5q-20 -5 -32 -17.5t-15 -26.5q-5 -27 -10.5 -55t-12.5 -65t-17.5 -87.5t-25.5 -122.5q-12 -56 -23.5 -105t-21 -86.5t-15.5 -61.5l-7 -28q-4 -16 5 -27t25 -11q11 0 25 9.5t26.5 24
t21.5 31.5t11 31q3 28 10 67t18 94l10 47q12 54 24 113t31 110q6 -10 12 -20.5t11 -23.5q26 -63 56 -134.5t60 -136.5t57.5 -116t47.5 -74q2 -1 6 -1q5 -3 21.5 -3.5t35 3.5t34 14t18.5 27q12 15 15 31zM652 832q14 8 19.5 21.5t3 23.5t-11.5 13.5t-24 -8.5
q-34 -28 -68.5 -31t-58.5 33q-32 32 -79 27t-94 -47q-8 -6 -12.5 -19t-3.5 -24.5t8 -15.5t22 8q17 13 34.5 21.5t34 9t31 -7.5t26.5 -26q33 -32 79.5 -26.5t94.5 48.5h-1z" />
    <glyph glyph-name="Ograve" unicode="&#xd2;" 
d="M714 360q2 4 5 23t4.5 44t1 52t-3.5 47q-6 40 -25.5 73t-49 56.5t-68.5 36t-84 12.5q-64 0 -126.5 -29.5t-115.5 -81t-92.5 -121.5t-56.5 -151q-15 -71 -6 -132.5t38 -107t76 -71.5t109 -26q65 0 127.5 29t115.5 79.5t92.5 119t58.5 148.5zM623 372q-11 -63 -37 -118
t-62.5 -95t-81.5 -63t-93 -23q-47 0 -81.5 21t-54 57t-24 85t7.5 105q13 61 39.5 113t62 89t79 58t90.5 21q32 0 59 -6t48 -21t35 -39.5t20 -61.5q4 -21 1.5 -53.5t-8.5 -68.5zM573 779q10 9 8 27.5t-10.5 38.5t-19.5 39t-18 30q-14 22 -34.5 29.5t-43.5 -13.5
q-22 -19 -19.5 -38.5t16.5 -39.5q8 -9 23.5 -25.5t33 -30.5t35 -20.5t29.5 3.5z" />
    <glyph glyph-name="Oacute" unicode="&#xd3;" 
d="M714 360q2 4 5 23t4.5 44t1 52t-3.5 47q-6 40 -25.5 73t-49 56.5t-68.5 36t-84 12.5q-64 0 -126.5 -29.5t-115.5 -81t-92.5 -121.5t-56.5 -151q-15 -71 -6 -132.5t38 -107t76 -71.5t109 -26q65 0 127.5 29t115.5 79.5t92.5 119t58.5 148.5zM623 372q-11 -63 -37 -118
t-62.5 -95t-81.5 -63t-93 -23q-47 0 -81.5 21t-54 57t-24 85t7.5 105q13 61 39.5 113t62 89t79 58t90.5 21q32 0 59 -6t48 -21t35 -39.5t20 -61.5q4 -21 1.5 -53.5t-8.5 -68.5zM423 779q-7 9 3.5 27.5t27.5 38.5t36.5 39t30.5 30q23 22 46.5 29.5t37.5 -13.5q14 -19 3 -38.5
t-32 -39.5q-13 -9 -35.5 -25.5t-46 -30.5t-44 -20.5t-27.5 3.5z" />
    <glyph glyph-name="Ocircumflex" unicode="&#xd4;" 
d="M714 360q2 4 5 23t4.5 44t1 52t-3.5 47q-6 40 -25.5 73t-49 56.5t-68.5 36t-84 12.5q-64 0 -126.5 -29.5t-115.5 -81t-92.5 -121.5t-56.5 -151q-15 -71 -6 -132.5t38 -107t76 -71.5t109 -26q65 0 127.5 29t115.5 79.5t92.5 119t58.5 148.5zM623 372q-11 -63 -37 -118
t-62.5 -95t-81.5 -63t-93 -23q-47 0 -81.5 21t-54 57t-24 85t7.5 105q13 61 39.5 113t62 89t79 58t90.5 21q32 0 59 -6t48 -21t35 -39.5t20 -61.5q4 -21 1.5 -53.5t-8.5 -68.5zM631 795q1 5 -3 15.5t-11 23.5t-14.5 26.5t-13.5 23.5q-8 16 -15.5 32t-16.5 21q-4 6 -11 5.5
t-11 -0.5q-8 0 -16.5 -3.5t-16.5 -8.5q-21 -18 -43 -38t-40.5 -38t-31 -32.5t-15.5 -22.5q-2 -3 -1.5 -9t4.5 -11t13 -8t25 0q6 2 18.5 13t27.5 26t31 30.5t30 27.5q8 -6 16 -21.5t16 -31.5t16.5 -29t16.5 -14q46 0 46 23z" />
    <glyph glyph-name="Otilde" unicode="&#xd5;" 
d="M714 360q2 4 5 23t4.5 44t1 52t-3.5 47q-6 40 -25.5 73t-49 56.5t-68.5 36t-84 12.5q-64 0 -126.5 -29.5t-115.5 -81t-92.5 -121.5t-56.5 -151q-15 -71 -6 -132.5t38 -107t76 -71.5t109 -26q65 0 127.5 29t115.5 79.5t92.5 119t58.5 148.5zM623 372q-11 -63 -37 -118
t-62.5 -95t-81.5 -63t-93 -23q-47 0 -81.5 21t-54 57t-24 85t7.5 105q13 61 39.5 113t62 89t79 58t90.5 21q32 0 59 -6t48 -21t35 -39.5t20 -61.5q4 -21 1.5 -53.5t-8.5 -68.5zM669 832q14 8 19 21.5t2.5 23.5t-11.5 13.5t-23 -8.5q-35 -28 -69 -31t-58 33q-32 32 -79 27
t-94 -47q-8 -6 -12.5 -19t-4 -24.5t7.5 -15.5t22 8q17 13 34.5 21.5t34 9t31 -7.5t26.5 -26q33 -32 79.5 -26.5t94.5 48.5z" />
    <glyph glyph-name="Odieresis" unicode="&#xd6;" 
d="M714 360q2 4 5 23t4.5 44t1 52t-3.5 47q-6 40 -25.5 73t-49 56.5t-68.5 36t-84 12.5q-64 0 -126.5 -29.5t-115.5 -81t-92.5 -121.5t-56.5 -151q-15 -71 -6 -132.5t38 -107t76 -71.5t109 -26q65 0 127.5 29t115.5 79.5t92.5 119t58.5 148.5zM623 372q-11 -63 -37 -118
t-62.5 -95t-81.5 -63t-93 -23q-47 0 -81.5 21t-54 57t-24 85t7.5 105q13 61 39.5 113t62 89t79 58t90.5 21q32 0 59 -6t48 -21t35 -39.5t20 -61.5q4 -21 1.5 -53.5t-8.5 -68.5zM472 847q8 26 -1 45t-28 18q-18 0 -34.5 -16.5t-24.5 -40.5q-5 -26 0.5 -45.5t25.5 -18.5
q17 0 35 16t27 42zM643 847q8 26 -0.5 45t-28.5 18q-18 0 -34.5 -16.5t-24.5 -40.5q-5 -26 0.5 -45.5t25.5 -18.5q17 0 35.5 16t26.5 42z" />
    <glyph glyph-name="multiply" unicode="&#xd7;" horiz-adv-x="445" 
d="M488 482q-5 6 -14 2.5t-15 -8.5q-15 -10 -36 -27t-43 -36t-43 -37.5t-36 -30.5q-6 9 -14 19.5t-17 21.5t-17.5 21.5t-14.5 18.5q-5 6 -12.5 18t-17 22t-20.5 13.5t-24 -6.5q-5 -2 -17.5 -10.5t-16.5 -13.5q-6 -8 -4.5 -15t5.5 -14q7 -12 20.5 -29t28.5 -35.5t30 -35.5
t24 -29l-85 -70q-12 -11 -27 -22t-26.5 -23t-17 -26.5t0.5 -30.5v-9q0 -3 5 -5q11 -8 23 -5.5t25 13.5q24 21 48 42.5t48 41.5l48 39l55 -70q6 -8 15 -22t20 -26.5t24 -18.5t28 3q20 14 27 33.5t-5 35.5q-22 27 -49 59t-48 59l99 81q15 12 26 21t17.5 19t9 22t-0.5 29
q-1 5 -2 10.5t-4 10.5z" />
    <glyph glyph-name="Oslash" unicode="&#xd8;" 
d="M231 126q-31 36 -39.5 92t5.5 123q13 61 39.5 113t62 89t79 58t90.5 21q18 0 34.5 -1.5t31.5 -6.5l-18 -30q-66 -106 -139.5 -225t-145.5 -233zM600 570q21 -29 30 -76q4 -21 1.5 -53.5t-8.5 -68.5q-11 -63 -37 -118t-62.5 -95t-81.5 -63t-93 -23q-31 0 -56 9l12 20
t13 21l149 239q37 58 70 110t63 98zM722 741q2 3 3 5.5t3 4.5q2 11 -10.5 18.5t-26.5 2.5q-30 0 -53.5 -17t-43.5 -44q-4 -5 -7.5 -10t-7.5 -10q-20 6 -41 9.5t-44 3.5q-64 0 -126.5 -29.5t-115.5 -81t-92.5 -121.5t-56.5 -151q-20 -91 -0.5 -165t70.5 -119
q-8 -11 -14.5 -21.5t-14.5 -21.5l-10 -15q-8 -15 -13 -23t-10 -13q-4 -11 6.5 -19t20.5 -8q26 0 47.5 17t42.5 46q3 5 6.5 9t6.5 9q18 -6 37.5 -9.5t41.5 -3.5q65 0 127.5 29t115.5 79.5t92.5 119t58.5 148.5q2 4 5 23t4.5 44t1 52t-3.5 47q-6 38 -23.5 69.5t-43.5 54.5
q18 26 35 49t33 42z" />
    <glyph glyph-name="Ugrave" unicode="&#xd9;" horiz-adv-x="630" 
d="M737 636q6 22 2.5 37.5t-19.5 20.5q-14 4 -29.5 2t-29 -10t-23.5 -20.5t-12 -29.5q-2 -13 -4 -24t-5 -24q-17 -79 -36 -153.5t-39 -142.5q-32 -105 -84.5 -164.5t-130.5 -59.5q-66 0 -103 41t-34 107q2 23 6 50.5t11 61.5q6 28 16 69.5t21 86t22 86t20 70.5q2 5 2.5 6.5
t0.5 3.5q1 37 -27 42q-11 1 -25.5 -3.5t-28.5 -13.5t-24 -22t-12 -28q-1 -9 -2 -15.5t-3 -13.5l-6 -29q-14 -63 -29.5 -125t-26.5 -110q-11 -51 -15.5 -90.5t-2 -71.5t11.5 -57.5t26 -47.5q58 -78 184 -78q139 0 225.5 95.5t131.5 288.5q7 31 15 67t16.5 71t18.5 68t21 59z
M555 779q10 9 8 27.5t-10.5 38.5t-19.5 39t-18 30q-14 22 -34.5 29.5t-43.5 -13.5q-22 -19 -19.5 -38.5t16.5 -39.5q8 -9 23.5 -25.5t33 -30.5t35 -20.5t29.5 3.5z" />
    <glyph glyph-name="Uacute" unicode="&#xda;" horiz-adv-x="630" 
d="M737 636q6 22 2.5 37.5t-19.5 20.5q-14 4 -29.5 2t-29 -10t-23.5 -20.5t-12 -29.5q-2 -13 -4 -24t-5 -24q-17 -79 -36 -153.5t-39 -142.5q-32 -105 -84.5 -164.5t-130.5 -59.5q-66 0 -103 41t-34 107q2 23 6 50.5t11 61.5q6 28 16 69.5t21 86t22 86t20 70.5q2 5 2.5 6.5
t0.5 3.5q1 37 -27 42q-11 1 -25.5 -3.5t-28.5 -13.5t-24 -22t-12 -28q-1 -9 -2 -15.5t-3 -13.5l-6 -29q-14 -63 -29.5 -125t-26.5 -110q-11 -51 -15.5 -90.5t-2 -71.5t11.5 -57.5t26 -47.5q58 -78 184 -78q139 0 225.5 95.5t131.5 288.5q7 31 15 67t16.5 71t18.5 68t21 59z
M405 779q-7 9 3.5 27.5t27.5 38.5t36.5 39t30.5 30q23 22 46.5 29.5t37.5 -13.5q14 -19 3 -38.5t-32 -39.5q-13 -9 -35.5 -25.5t-46 -30.5t-44 -20.5t-27.5 3.5z" />
    <glyph glyph-name="Ucircumflex" unicode="&#xdb;" horiz-adv-x="630" 
d="M737 636q6 22 2.5 37.5t-19.5 20.5q-14 4 -29.5 2t-29 -10t-23.5 -20.5t-12 -29.5q-2 -13 -4 -24t-5 -24q-17 -79 -36 -153.5t-39 -142.5q-32 -105 -84.5 -164.5t-130.5 -59.5q-66 0 -103 41t-34 107q2 23 6 50.5t11 61.5q6 28 16 69.5t21 86t22 86t20 70.5q2 5 2.5 6.5
t0.5 3.5q1 37 -27 42q-11 1 -25.5 -3.5t-28.5 -13.5t-24 -22t-12 -28q-1 -9 -2 -15.5t-3 -13.5l-6 -29q-14 -63 -29.5 -125t-26.5 -110q-11 -51 -15.5 -90.5t-2 -71.5t11.5 -57.5t26 -47.5q58 -78 184 -78q139 0 225.5 95.5t131.5 288.5q7 31 15 67t16.5 71t18.5 68t21 59z
M613 795q1 5 -3 15.5t-11 23.5t-14.5 26.5t-13.5 23.5q-8 16 -15.5 32t-16.5 21q-4 6 -11 5.5t-11 -0.5q-8 0 -16.5 -3.5t-16.5 -8.5q-21 -18 -43 -38t-40.5 -38t-31 -32.5t-15.5 -22.5q-2 -3 -1.5 -9t4.5 -11t13 -8t25 0q6 2 18.5 13t27.5 26t31 30.5t30 27.5
q8 -6 16 -21.5t16 -31.5t16.5 -29t16.5 -14q46 0 46 23z" />
    <glyph glyph-name="Udieresis" unicode="&#xdc;" horiz-adv-x="630" 
d="M737 636q6 22 2.5 37.5t-19.5 20.5q-14 4 -29.5 2t-29 -10t-23.5 -20.5t-12 -29.5q-2 -13 -4 -24t-5 -24q-17 -79 -36 -153.5t-39 -142.5q-32 -105 -84.5 -164.5t-130.5 -59.5q-66 0 -103 41t-34 107q2 23 6 50.5t11 61.5q6 28 16 69.5t21 86t22 86t20 70.5q2 5 2.5 6.5
t0.5 3.5q1 37 -27 42q-11 1 -25.5 -3.5t-28.5 -13.5t-24 -22t-12 -28q-1 -9 -2 -15.5t-3 -13.5l-6 -29q-14 -63 -29.5 -125t-26.5 -110q-11 -51 -15.5 -90.5t-2 -71.5t11.5 -57.5t26 -47.5q58 -78 184 -78q139 0 225.5 95.5t131.5 288.5q7 31 15 67t16.5 71t18.5 68t21 59z
M454 847q8 26 -1 45t-28 18q-18 0 -34.5 -16.5t-24.5 -40.5q-5 -26 0.5 -45.5t25.5 -18.5q17 0 35 16t27 42zM625 847q8 26 -0.5 45t-28.5 18q-18 0 -34.5 -16.5t-24.5 -40.5q-5 -26 0.5 -45.5t25.5 -18.5q17 0 35.5 16t26.5 42z" />
    <glyph glyph-name="Yacute" unicode="&#xdd;" horiz-adv-x="623" 
d="M741 689q1 12 -8 22.5t-23 10.5q-24 0 -43 -13t-34.5 -31t-28 -38.5t-22.5 -35.5q-38 -53 -67.5 -90t-52 -63t-38.5 -43.5t-28 -31.5q-8 11 -21 38t-29 63t-33 78.5t-32 85.5q-10 28 -18.5 41.5t-24.5 13.5q-18 0 -36 -13t-29 -33q4 -22 17 -62t30 -82.5t36 -80.5t34 -55
q4 -11 12.5 -21.5t16 -22t12 -25t0.5 -28.5q-18 -64 -28.5 -119.5t-23.5 -98.5q-9 -30 -5.5 -48t21.5 -20q11 -1 25 6t27.5 17.5t24.5 23.5t16 24q9 38 14.5 75t14.5 73t24.5 72.5t43.5 74.5q22 31 52 69t61 76.5t59.5 74t48.5 61.5q14 15 24.5 32.5t10.5 22.5zM401 779
q-7 9 3.5 27.5t28 38.5t37 39t30.5 30q23 22 46 29.5t38 -13.5q14 -19 2.5 -38.5t-32.5 -39.5q-13 -9 -35.5 -25.5t-46 -30.5t-44 -20.5t-27.5 3.5z" />
    <glyph glyph-name="Thorn" unicode="&#xde;" horiz-adv-x="535" 
d="M585 376q13 40 10.5 79t-22 70t-56.5 51t-92 24q-6 1 -12 1t-13 1h-21q-24 0 -49 -2t-58 -5q8 26 17.5 51.5t9.5 40.5q0 14 -7.5 24t-22.5 10q-10 0 -24 -5.5t-27.5 -15t-23 -22.5t-10.5 -27q-2 -17 -3.5 -27.5t-6.5 -27.5q-4 -14 -8 -28.5t-8 -28.5q-8 -28 -17.5 -64.5
t-19 -76.5t-19 -81.5t-17.5 -79.5q-12 -54 -20.5 -97.5t-10.5 -75t3 -48.5t21 -17q6 0 19 6.5t26.5 16.5t24.5 22t12 24q2 21 4.5 41.5t7.5 46.5q9 -2 17 -2t15 -1q64 0 125 14.5t112 43t89 70t55 95.5zM487 376q-11 -38 -36 -66.5t-60 -47.5t-79 -28t-94 -9q-17 0 -30 8
q1 6 5.5 25.5t11.5 46t15 57t16 58.5t14.5 51t9.5 35q16 6 42 9t60 3q25 0 47.5 -4.5t39 -14.5t25.5 -26t8 -38q10 -2 11 -19.5t-6 -39.5z" />
    <glyph glyph-name="germandbls" unicode="&#xdf;" horiz-adv-x="488" 
d="M404 443q17 17 34 42t23 64q4 30 -4.5 55t-26 43t-41.5 26t-50 3q-45 -2 -79.5 -25.5t-60 -58t-42.5 -75.5t-26 -80q-11 -47 -21.5 -93.5t-21.5 -93.5q-9 -38 -17 -76l-16 -76q-3 -15 -10.5 -44.5t-10.5 -57.5q-2 -13 -2 -25t3.5 -20.5t11 -11.5t20.5 2q20 8 31 27.5
t16 42.5q5 21 7.5 42.5t7.5 43.5q12 57 24.5 114.5t25.5 114.5q2 6 6 22t8 33q5 16 8 30t3 19q11 47 25.5 79.5t30 53.5t32 31.5t31.5 13.5t28 -1.5t22.5 -14t14 -22.5t2.5 -28q-3 -19 -9 -30.5t-14 -19.5q-9 -8 -20 -13.5l-21 -10.5q-12 -6 -25.5 -13t-26.5 -18.5t-24 -28
t-18 -41.5q-10 -35 1 -56t27 -33q15 -11 35.5 -16t40.5 -9q15 -3 31 -9t28.5 -17.5t20 -28t5.5 -40.5q-3 -31 -18.5 -55.5t-37.5 -40t-47.5 -22t-47.5 -2t-37.5 21t-17.5 45.5q1 11 -5.5 16t-16.5 2t-19.5 -15t-14.5 -35q-7 -33 3.5 -55.5t30 -36.5t43.5 -19.5t43 -3.5
q32 3 64 12t64 38q7 6 12.5 13t12.5 14q23 23 37 54t23 63q16 56 4 91t-37 55.5t-56 28.5t-53 10q-8 1 -16.5 1.5t-15.5 3.5t-11.5 9.5t-4.5 17.5q7 14 12.5 18.5t17.5 9.5q21 9 37.5 19t34.5 27z" />
    <glyph glyph-name="agrave" unicode="&#xe0;" horiz-adv-x="472" 
d="M450 31q-1 40 1.5 68t10.5 61q5 22 9.5 44t10.5 46q3 14 6 26.5t5 23.5q2 9 7 28.5t7 44t-3 49.5t-22 45.5t-50.5 32.5t-89.5 9q-34 -2 -65.5 -10t-58.5 -21t-46.5 -31t-29.5 -40q0 -2 1 -7t2 -10.5t2.5 -10t3.5 -4.5t11.5 -1.5t14.5 1.5q10 5 20.5 13.5t26 17t39 16
t58.5 9.5t55.5 -4.5t30.5 -18t12.5 -27t0.5 -30.5t-6 -27.5t-5 -19.5q0 1 -3 6t-25 12.5t-74 9.5q-22 1 -57.5 -4t-71.5 -24t-67.5 -55.5t-44.5 -99.5q-10 -48 -2.5 -80t27.5 -51.5t51 -27t68 -4.5q35 3 72 18t73 44q3 -28 11.5 -46t26.5 -18q7 0 17 4.5t18.5 11t15 15
t6.5 16.5zM389 227q1 -6 0.5 -20.5t-5.5 -33t-16 -39.5t-30 -40q-25 -16 -52 -27t-62 -11q-48 0 -69.5 26t-11.5 70q4 22 18.5 42t36 35t49 24t58.5 9q28 0 48.5 -10.5t35.5 -24.5zM431 569q11 9 8.5 27.5t-11 38.5t-19.5 39t-18 30q-14 22 -34 29.5t-43 -13.5
q-11 -9 -15.5 -19t-4 -19.5t5 -19.5t10.5 -20q9 -9 24.5 -25.5t33 -30.5t34.5 -20.5t29 3.5z" />
    <glyph glyph-name="aacute" unicode="&#xe1;" horiz-adv-x="472" 
d="M450 31q-1 40 1.5 68t10.5 61q5 22 9.5 44t10.5 46q3 14 6 26.5t5 23.5q2 9 7 28.5t7 44t-3 49.5t-22 45.5t-50.5 32.5t-89.5 9q-34 -2 -65.5 -10t-58.5 -21t-46.5 -31t-29.5 -40q0 -2 1 -7t2 -10.5t2.5 -10t3.5 -4.5t11.5 -1.5t14.5 1.5q10 5 20.5 13.5t26 17t39 16
t58.5 9.5t55.5 -4.5t30.5 -18t12.5 -27t0.5 -30.5t-6 -27.5t-5 -19.5q0 1 -3 6t-25 12.5t-74 9.5q-22 1 -57.5 -4t-71.5 -24t-67.5 -55.5t-44.5 -99.5q-10 -48 -2.5 -80t27.5 -51.5t51 -27t68 -4.5q35 3 72 18t73 44q3 -28 11.5 -46t26.5 -18q7 0 17 4.5t18.5 11t15 15
t6.5 16.5zM389 227q1 -6 0.5 -20.5t-5.5 -33t-16 -39.5t-30 -40q-25 -16 -52 -27t-62 -11q-48 0 -69.5 26t-11.5 70q4 22 18.5 42t36 35t49 24t58.5 9q28 0 48.5 -10.5t35.5 -24.5zM281 569q-6 9 4 27.5t27.5 38.5t36.5 39l30 30q23 22 46.5 29.5t38.5 -13.5q14 -19 3 -38.5
t-33 -39.5q-12 -9 -34.5 -25.5t-46.5 -30.5t-44 -20.5t-28 3.5z" />
    <glyph glyph-name="acircumflex" unicode="&#xe2;" horiz-adv-x="472" 
d="M450 31q-1 40 1.5 68t10.5 61q5 22 9.5 44t10.5 46q3 14 6 26.5t5 23.5q2 9 7 28.5t7 44t-3 49.5t-22 45.5t-50.5 32.5t-89.5 9q-34 -2 -65.5 -10t-58.5 -21t-46.5 -31t-29.5 -40q0 -2 1 -7t2 -10.5t2.5 -10t3.5 -4.5t11.5 -1.5t14.5 1.5q10 5 20.5 13.5t26 17t39 16
t58.5 9.5t55.5 -4.5t30.5 -18t12.5 -27t0.5 -30.5t-6 -27.5t-5 -19.5q0 1 -3 6t-25 12.5t-74 9.5q-22 1 -57.5 -4t-71.5 -24t-67.5 -55.5t-44.5 -99.5q-10 -48 -2.5 -80t27.5 -51.5t51 -27t68 -4.5q35 3 72 18t73 44q3 -28 11.5 -46t26.5 -18q7 0 17 4.5t18.5 11t15 15
t6.5 16.5zM389 227q1 -6 0.5 -20.5t-5.5 -33t-16 -39.5t-30 -40q-25 -16 -52 -27t-62 -11q-48 0 -69.5 26t-11.5 70q4 22 18.5 42t36 35t49 24t58.5 9q28 0 48.5 -10.5t35.5 -24.5zM490 585q1 5 -3.5 15.5t-11 23.5t-14 26.5t-13.5 23.5q-9 16 -16 32t-17 21q-3 6 -10.5 5.5
t-11.5 -0.5q-15 0 -32 -12q-22 -18 -44 -38t-40.5 -38t-31 -32.5t-14.5 -22.5q-2 -3 -1.5 -9t4.5 -11t13 -8t25 0q6 2 18.5 13t27.5 26t31 30.5t29 27.5q8 -6 16 -21.5t16.5 -31.5t16.5 -29t16 -14q45 0 47 23z" />
    <glyph glyph-name="atilde" unicode="&#xe3;" horiz-adv-x="472" 
d="M450 31q-1 40 1.5 68t10.5 61q5 22 9.5 44t10.5 46q3 14 6 26.5t5 23.5q2 9 7 28.5t7 44t-3 49.5t-22 45.5t-50.5 32.5t-89.5 9q-34 -2 -65.5 -10t-58.5 -21t-46.5 -31t-29.5 -40q0 -2 1 -7t2 -10.5t2.5 -10t3.5 -4.5t11.5 -1.5t14.5 1.5q10 5 20.5 13.5t26 17t39 16
t58.5 9.5t55.5 -4.5t30.5 -18t12.5 -27t0.5 -30.5t-6 -27.5t-5 -19.5q0 1 -3 6t-25 12.5t-74 9.5q-22 1 -57.5 -4t-71.5 -24t-67.5 -55.5t-44.5 -99.5q-10 -48 -2.5 -80t27.5 -51.5t51 -27t68 -4.5q35 3 72 18t73 44q3 -28 11.5 -46t26.5 -18q7 0 17 4.5t18.5 11t15 15
t6.5 16.5zM389 227q1 -6 0.5 -20.5t-5.5 -33t-16 -39.5t-30 -40q-25 -16 -52 -27t-62 -11q-48 0 -69.5 26t-11.5 70q4 22 18.5 42t36 35t49 24t58.5 9q28 0 48.5 -10.5t35.5 -24.5zM528 622q13 8 18 21.5t2.5 23.5t-11.5 13.5t-23 -8.5q-35 -28 -68.5 -31t-57.5 33
q-32 32 -79.5 27t-93.5 -47q-9 -6 -13.5 -19t-3.5 -24.5t8 -15.5t22 8q16 13 33.5 21.5t34 9t31 -7.5t26.5 -26q33 -32 80 -26.5t95 48.5z" />
    <glyph glyph-name="adieresis" unicode="&#xe4;" horiz-adv-x="472" 
d="M450 31q-1 40 1.5 68t10.5 61q5 22 9.5 44t10.5 46q3 14 6 26.5t5 23.5q2 9 7 28.5t7 44t-3 49.5t-22 45.5t-50.5 32.5t-89.5 9q-34 -2 -65.5 -10t-58.5 -21t-46.5 -31t-29.5 -40q0 -2 1 -7t2 -10.5t2.5 -10t3.5 -4.5t11.5 -1.5t14.5 1.5q10 5 20.5 13.5t26 17t39 16
t58.5 9.5t55.5 -4.5t30.5 -18t12.5 -27t0.5 -30.5t-6 -27.5t-5 -19.5q0 1 -3 6t-25 12.5t-74 9.5q-22 1 -57.5 -4t-71.5 -24t-67.5 -55.5t-44.5 -99.5q-10 -48 -2.5 -80t27.5 -51.5t51 -27t68 -4.5q35 3 72 18t73 44q3 -28 11.5 -46t26.5 -18q7 0 17 4.5t18.5 11t15 15
t6.5 16.5zM389 227q1 -6 0.5 -20.5t-5.5 -33t-16 -39.5t-30 -40q-25 -16 -52 -27t-62 -11q-48 0 -69.5 26t-11.5 70q4 22 18.5 42t36 35t49 24t58.5 9q28 0 48.5 -10.5t35.5 -24.5zM330 637q8 26 -0.5 45t-28.5 18q-18 0 -34.5 -16.5t-24.5 -40.5q-5 -26 1 -45.5t26 -18.5
q17 0 35 16t26 42zM501 637q8 26 -0.5 45t-28.5 18q-18 0 -34.5 -16.5t-24.5 -40.5q-5 -26 1 -45.5t26 -18.5q17 0 35 16t26 42z" />
    <glyph glyph-name="aring" unicode="&#xe5;" horiz-adv-x="472" 
d="M450 31q-1 40 1.5 68t10.5 61q5 22 9.5 44t10.5 46q3 14 6 26.5t5 23.5q2 9 7 28.5t7 44t-3 49.5t-22 45.5t-50.5 32.5t-89.5 9q-34 -2 -65.5 -10t-58.5 -21t-46.5 -31t-29.5 -40q0 -2 1 -7t2 -10.5t2.5 -10t3.5 -4.5t11.5 -1.5t14.5 1.5q10 5 20.5 13.5t26 17t39 16
t58.5 9.5t55.5 -4.5t30.5 -18t12.5 -27t0.5 -30.5t-6 -27.5t-5 -19.5q0 1 -3 6t-25 12.5t-74 9.5q-22 1 -57.5 -4t-71.5 -24t-67.5 -55.5t-44.5 -99.5q-10 -48 -2.5 -80t27.5 -51.5t51 -27t68 -4.5q35 3 72 18t73 44q3 -28 11.5 -46t26.5 -18q7 0 17 4.5t18.5 11t15 15
t6.5 16.5zM389 227q1 -6 0.5 -20.5t-5.5 -33t-16 -39.5t-30 -40q-25 -16 -52 -27t-62 -11q-48 0 -69.5 26t-11.5 70q4 22 18.5 42t36 35t49 24t58.5 9q28 0 48.5 -10.5t35.5 -24.5zM336 527q27 0 54 9.5t49.5 26t38.5 38.5t21 46q5 22 -1 41t-19.5 33.5t-34.5 22.5t-46 8
q-26 0 -50 -8.5t-44 -22.5t-35 -33t-22 -41q-9 -24 -6.5 -46t14.5 -38.5t33 -26t49 -9.5h-1zM382 700q29 0 41.5 -16t9.5 -41q-2 -12 -9 -23.5t-18.5 -20t-25 -13.5t-26.5 -5q-27 0 -38.5 16.5t-9.5 39.5q3 24 25.5 43.5t50.5 19.5z" />
    <glyph glyph-name="ae" unicode="&#xe6;" horiz-adv-x="825" 
d="M389 227q1 -6 0.5 -20.5t-5.5 -33t-16 -39.5t-30 -40q-25 -16 -52 -27t-62 -11q-48 0 -69.5 26t-11.5 70q4 22 18.5 42t36 35t49 24t58.5 9q28 0 48.5 -10.5t35.5 -24.5zM822 126q2 10 -5.5 17t-17.5 7q-14 -2 -29 -15q-17 -15 -35 -28.5t-38.5 -24t-44.5 -16.5t-52 -6
h-3q-42 0 -71.5 19.5t-39.5 54.5q-12 37 3 52q20 2 35.5 2.5t34.5 2t44.5 6.5t65.5 17q60 17 100.5 49.5t51.5 84.5q7 31 0 57t-25.5 45t-46.5 30t-64 11q-51 0 -97.5 -20t-84.5 -55q-4 17 -14.5 32.5t-29.5 27t-48 17t-71 3.5q-34 -2 -65.5 -8t-57.5 -16.5t-45.5 -26.5
t-29.5 -38q0 -2 1 -7t2 -10.5t2.5 -10t3.5 -4.5t11.5 -1.5t14.5 1.5q10 5 20.5 13.5t26 17t39 16t58.5 9.5t55.5 -5t31 -20.5t13 -30t1 -32.5t-4 -28.5t-2.5 -18.5q0 1 -4 8t-28 16.5t-76 11.5q-22 1 -57.5 -4t-71.5 -24t-67.5 -55.5t-44.5 -99.5q-10 -48 -2.5 -80
t27.5 -51.5t51 -27t68 -4.5q13 1 36 4.5t50 12.5t56 25t54 42q21 -41 63 -63.5t103 -22.5q41 0 85.5 13t81 33.5t60 45.5t23.5 50zM732 366q0 -23 -16.5 -43.5t-45.5 -41.5q-30 -9 -64.5 -15.5t-69.5 -9.5q-15 -2 -26 -1.5t-21 2.5q6 30 22 59t38 52t49 37.5t56 14.5
q26 0 45 -10.5t27 -29.5q2 -1 3.5 -7t2.5 -7z" />
    <glyph glyph-name="ccedilla" unicode="&#xe7;" horiz-adv-x="462" 
d="M455 112q0 9 -5.5 16t-16.5 7q-5 0 -9.5 -2.5t-14.5 -9.5q-27 -20 -58.5 -37t-57.5 -19q-37 -3 -63.5 8.5t-42 34t-19.5 55.5t5 74q7 34 24 67t39.5 59.5t49 43t53.5 16.5q29 0 45.5 -15t30.5 -40q-2 -8 6.5 -12t16.5 -4q3 0 11.5 4t17.5 10.5t16.5 15t9.5 18.5
q6 19 -3 37.5t-29.5 32t-49.5 21t-62 4.5q-47 -4 -91.5 -28.5t-81 -63t-62 -87.5t-34.5 -102q-11 -81 17 -140.5t91 -80.5q0 -12 9 -20q5 -6 13.5 -11.5t17.5 -11.5q19 -10 41 -23t34.5 -26t9.5 -29q-5 -20 -30.5 -37.5t-62.5 -19.5q-27 -2 -50.5 5t-31.5 26q-3 5 -1.5 10.5
t3.5 10.5q1 6 0 12t-13 4q-9 -1 -18 -6t-11 -14q-2 -3 -5.5 -11t-6 -17t-3 -18t2.5 -13q20 -22 45.5 -29.5t63.5 -11.5q24 -3 50 0.5t50 11.5t44 20.5t32 27.5q8 8 12 17.5t6 17.5q3 9 3 12l1 1q0 1 -1 1q3 48 -62 86q-16 10 -27 15.5t-17 10.5q30 4 60.5 17t55 30.5
t39.5 38t14 40.5z" />
    <glyph glyph-name="egrave" unicode="&#xe8;" horiz-adv-x="513" 
d="M511 129q2 10 -5.5 17t-17.5 7q-12 -1 -29 -15q-33 -29 -73 -52t-97 -23h-3q-42 0 -71.5 19.5t-39.5 54.5q-12 37 3 52q20 2 35.5 2.5t34.5 2t44.5 6.5t65.5 17q60 17 100.5 49.5t51.5 84.5q7 31 0 57t-25.5 45t-46.5 30t-64 11q-52 0 -99.5 -21t-86 -57.5t-66 -85
t-39.5 -103.5q-12 -54 -5 -98.5t30 -76t61.5 -48.5t91.5 -17q41 0 85.5 13t81 33.5t60 45.5t23.5 50zM421 369q0 -23 -16.5 -43.5t-45.5 -41.5q-31 -9 -65 -15.5t-69 -9.5q-15 -2 -26.5 -1.5t-20.5 2.5q6 30 22 59t37.5 52t48.5 37.5t56 14.5q26 0 45.5 -10.5t27.5 -29.5
q2 -1 3 -7t3 -7zM451 569q11 9 9 27.5t-11 38.5t-20 39t-18 30q-14 22 -34 29.5t-43 -13.5q-22 -19 -19 -38.5t16 -39.5q9 -9 24.5 -25.5t33 -30.5t34.5 -20.5t29 3.5h-1z" />
    <glyph glyph-name="eacute" unicode="&#xe9;" horiz-adv-x="513" 
d="M511 129q2 10 -5.5 17t-17.5 7q-12 -1 -29 -15q-33 -29 -73 -52t-97 -23h-3q-42 0 -71.5 19.5t-39.5 54.5q-12 37 3 52q20 2 35.5 2.5t34.5 2t44.5 6.5t65.5 17q60 17 100.5 49.5t51.5 84.5q7 31 0 57t-25.5 45t-46.5 30t-64 11q-52 0 -99.5 -21t-86 -57.5t-66 -85
t-39.5 -103.5q-12 -54 -5 -98.5t30 -76t61.5 -48.5t91.5 -17q41 0 85.5 13t81 33.5t60 45.5t23.5 50zM421 369q0 -23 -16.5 -43.5t-45.5 -41.5q-31 -9 -65 -15.5t-69 -9.5q-15 -2 -26.5 -1.5t-20.5 2.5q6 30 22 59t37.5 52t48.5 37.5t56 14.5q26 0 45.5 -10.5t27.5 -29.5
q2 -1 3 -7t3 -7zM301 569q-6 9 4.5 27.5t27.5 38.5t36.5 39t30.5 30q23 22 46 29.5t39 -13.5q13 -19 2 -38.5t-33 -39.5q-12 -9 -34.5 -25.5t-46.5 -30.5t-44 -20.5t-28 3.5z" />
    <glyph glyph-name="ecircumflex" unicode="&#xea;" horiz-adv-x="513" 
d="M511 129q2 10 -5.5 17t-17.5 7q-12 -1 -29 -15q-33 -29 -73 -52t-97 -23h-3q-42 0 -71.5 19.5t-39.5 54.5q-12 37 3 52q20 2 35.5 2.5t34.5 2t44.5 6.5t65.5 17q60 17 100.5 49.5t51.5 84.5q7 31 0 57t-25.5 45t-46.5 30t-64 11q-52 0 -99.5 -21t-86 -57.5t-66 -85
t-39.5 -103.5q-12 -54 -5 -98.5t30 -76t61.5 -48.5t91.5 -17q41 0 85.5 13t81 33.5t60 45.5t23.5 50zM421 369q0 -23 -16.5 -43.5t-45.5 -41.5q-31 -9 -65 -15.5t-69 -9.5q-15 -2 -26.5 -1.5t-20.5 2.5q6 30 22 59t37.5 52t48.5 37.5t56 14.5q26 0 45.5 -10.5t27.5 -29.5
q2 -1 3 -7t3 -7zM511 585q1 5 -3.5 15.5t-11.5 23.5t-14.5 26.5t-13.5 23.5q-9 16 -16 32t-17 21q-3 6 -10.5 5.5t-11.5 -0.5q-15 0 -32 -12q-22 -18 -44 -38t-40.5 -38t-31 -32.5t-14.5 -22.5q-2 -3 -1.5 -9t5 -11t13.5 -8t25 0q6 2 18.5 13t27.5 26t31 30.5t29 27.5
q8 -6 16 -21.5t16.5 -31.5t16.5 -29t16 -14q46 0 46 23h1z" />
    <glyph glyph-name="edieresis" unicode="&#xeb;" horiz-adv-x="513" 
d="M511 129q2 10 -5.5 17t-17.5 7q-12 -1 -29 -15q-33 -29 -73 -52t-97 -23h-3q-42 0 -71.5 19.5t-39.5 54.5q-12 37 3 52q20 2 35.5 2.5t34.5 2t44.5 6.5t65.5 17q60 17 100.5 49.5t51.5 84.5q7 31 0 57t-25.5 45t-46.5 30t-64 11q-52 0 -99.5 -21t-86 -57.5t-66 -85
t-39.5 -103.5q-12 -54 -5 -98.5t30 -76t61.5 -48.5t91.5 -17q41 0 85.5 13t81 33.5t60 45.5t23.5 50zM421 369q0 -23 -16.5 -43.5t-45.5 -41.5q-31 -9 -65 -15.5t-69 -9.5q-15 -2 -26.5 -1.5t-20.5 2.5q6 30 22 59t37.5 52t48.5 37.5t56 14.5q26 0 45.5 -10.5t27.5 -29.5
q2 -1 3 -7t3 -7zM350 637q9 26 0 45t-29 18q-17 0 -34 -16.5t-25 -40.5q-5 -26 1 -45.5t27 -18.5q17 0 35 16t26 42h-1zM522 637q8 26 -0.5 45t-29.5 18q-17 0 -34 -16.5t-25 -40.5q-5 -26 1 -45.5t27 -18.5q17 0 35 16t26 42z" />
    <glyph glyph-name="igrave" unicode="&#xec;" horiz-adv-x="181" 
d="M241 438q12 56 -27 56q-5 0 -14.5 -2t-20 -7.5t-20.5 -15.5t-15 -25q-18 -58 -31 -120t-29 -113q-5 -17 -8 -34.5t-8 -35.5q-15 -73 -14.5 -109t32.5 -36q7 0 17.5 4.5t21 12.5t19 18t10.5 21q2 28 9.5 65.5t16.5 79.5q13 58 28.5 118t32.5 123zM290 569q11 9 8.5 27.5
t-11.5 38.5t-20 39t-18 30q-14 22 -34 29.5t-43 -13.5q-22 -19 -19 -38.5t16 -39.5q9 -9 24.5 -25.5t33 -30.5t34.5 -20.5t29 3.5z" />
    <glyph glyph-name="iacute" unicode="&#xed;" horiz-adv-x="181" 
d="M234 438q12 56 -27 56q-5 0 -14.5 -2t-20 -7.5t-20.5 -15.5t-15 -25q-18 -58 -31 -120t-29 -113q-5 -17 -8 -34.5t-8 -35.5q-15 -73 -14.5 -109t32.5 -36q7 0 17.5 4.5t21 12.5t19 18t10.5 21q2 28 9.5 65.5t16.5 79.5q13 58 28.5 118t32.5 123zM132 569q-7 9 3.5 27.5
t28 38.5t37 39t30.5 30q23 22 46 29.5t39 -13.5q13 -19 2 -38.5t-33 -39.5q-12 -9 -35 -25.5t-46.5 -30.5t-44 -20.5t-27.5 3.5z" />
    <glyph glyph-name="icircumflex" unicode="&#xee;" horiz-adv-x="181" 
d="M237 438q14 56 -27 56q-5 0 -14.5 -2t-20 -7.5t-20.5 -15.5t-15 -25q-17 -58 -30.5 -120t-29.5 -113q-5 -17 -8 -34.5t-8 -35.5q-15 -73 -14.5 -109t32.5 -36q7 0 18 4.5t21.5 12.5t18.5 18t10 21q3 28 10 65.5t16 79.5q13 58 29 118t32 123zM345 585q1 5 -3.5 15.5
t-11.5 23.5t-14.5 26.5t-13.5 23.5q-9 16 -16 32t-17 21q-3 6 -10.5 5.5t-11.5 -0.5q-15 0 -32 -12q-22 -18 -44 -38t-40.5 -38t-31 -32.5t-14.5 -22.5q-2 -3 -1.5 -9t5 -11t13.5 -8t25 0q6 2 18.5 13t27.5 26t31 30.5t29 27.5q8 -6 16 -21.5t16.5 -31.5t16.5 -29t16 -14
q46 0 46 23h1z" />
    <glyph glyph-name="idieresis" unicode="&#xef;" horiz-adv-x="181" 
d="M237 438q14 56 -27 56q-5 0 -14.5 -2t-20 -7.5t-20.5 -15.5t-15 -25q-18 -58 -31 -120t-29 -113q-5 -17 -8 -34.5t-8 -35.5q-15 -73 -14.5 -109t32.5 -36q7 0 18 4.5t21.5 12.5t18.5 18t10 21q3 28 10 65.5t16 79.5q13 58 29 118t32 123zM184 637q9 26 0 45t-29 18
q-17 0 -34 -16.5t-25 -40.5q-5 -26 1 -45.5t27 -18.5q17 0 35 16t26 42h-1zM356 637q8 26 -0.5 45t-29.5 18q-17 0 -34 -16.5t-25 -40.5q-5 -26 1 -45.5t27 -18.5q17 0 35 16t26 42z" />
    <glyph glyph-name="eth" unicode="&#xf0;" horiz-adv-x="510" 
d="M421 200q-16 -73 -58.5 -101.5t-101.5 -28.5q-60 0 -85.5 32t-10.5 102q15 72 58.5 103.5t102.5 31.5t85 -31t10 -108zM606 588q1 10 -6 9.5t-15 0.5q-22 -5 -34.5 -7.5t-20.5 -4.5l-14 -3.5t-15 -3.5q-44 78 -138 105q-13 6 -28.5 -2t-26 -22t-12 -28.5t13.5 -20.5
q27 -11 49 -23.5t39 -29.5q-7 -2 -16.5 -3.5t-28.5 -5.5q-7 -1 -11.5 -2t-6.5 -1q-22 -5 -38 -9.5t-27.5 -10.5t-20 -15.5t-15.5 -23.5q-11 -11 -9 -16q-2 -26 35 -18h3q23 5 48.5 12t69.5 16q16 3 22.5 4.5t10.5 2t9 1.5t19 4q15 -41 13 -101q-41 23 -101 23
q-50 0 -95.5 -14t-82 -42.5t-63.5 -71t-39 -99.5q-21 -101 24 -152t137 -51q46 0 89.5 12.5t80 37.5t63.5 63.5t40 90.5q2 11 4.5 21t4.5 20q18 87 20.5 156.5t-11.5 124.5q25 7 40 18t28 35q5 6 8.5 14t3.5 10z" />
    <glyph glyph-name="ntilde" unicode="&#xf1;" horiz-adv-x="499" 
d="M480 47q4 25 7.5 57.5t11.5 67.5l16 73l13 62q18 85 -9.5 135.5t-90.5 54.5q-17 1 -36.5 -3.5t-40.5 -13t-42 -21t-40 -27.5l-18 -15q-10 1 -14 3t-5 5t-0.5 6.5t0.5 8.5q2 4 2.5 7.5t2.5 7.5q2 14 0 24.5t-13 10.5q-4 2 -16.5 1.5t-26 -4t-25.5 -10.5t-15 -18
q-4 -10 -5 -22t-4 -23l-4 -21q-11 -31 -20.5 -68t-18.5 -73.5t-16 -71t-13 -59.5q-6 -30 -10 -54.5t-2.5 -41t9 -25.5t22.5 -9q20 0 44 22.5t29 64.5q1 11 3.5 23.5t4.5 23.5q12 54 31 106t45.5 93.5t61 67t76.5 25.5q35 1 53 -23.5t6 -81.5q-4 -17 -11.5 -45.5t-12.5 -54.5
l-12 -54q-6 -27 -10.5 -56t-5.5 -53t4 -40.5t19 -18.5q5 0 16.5 -3t21.5 5q17 1 26.5 18t11.5 37zM541 622q14 8 19 21.5t2.5 23.5t-11.5 13.5t-24 -8.5q-34 -28 -68 -31t-58 33q-32 32 -79.5 27t-93.5 -47q-9 -6 -13.5 -19t-3.5 -24.5t8.5 -15.5t22.5 8q16 13 33.5 21.5
t34 9t31 -7.5t26.5 -26q33 -32 80 -26.5t95 48.5h-1z" />
    <glyph glyph-name="ograve" unicode="&#xf2;" horiz-adv-x="497" 
d="M516 229q16 55 13 103.5t-22 84.5t-53.5 57t-82.5 21q-50 0 -96.5 -20.5t-85 -56.5t-66.5 -84.5t-40 -105.5q-11 -51 -6 -95t25 -77t53.5 -52t79.5 -19t90 19t81.5 52t66 77.5t43.5 95.5zM430 240q-8 -36 -24.5 -67.5t-39 -54t-49.5 -35.5t-56 -13q-30 0 -50 14t-31 38
t-12.5 55.5t5.5 66.5q8 36 24.5 68t39 55.5t50 37.5t56.5 14q30 0 50 -13.5t31 -37.5t12.5 -56.5t-6.5 -71.5zM443 569q11 9 9 27.5t-11 38.5t-20 39t-18 30q-14 22 -34 29.5t-43 -13.5q-22 -19 -19 -38.5t16 -39.5q9 -9 24.5 -25.5t33 -30.5t34.5 -20.5t29 3.5h-1z" />
    <glyph glyph-name="oacute" unicode="&#xf3;" horiz-adv-x="497" 
d="M516 229q16 55 13 103.5t-22 84.5t-53.5 57t-82.5 21q-50 0 -96.5 -20.5t-85 -56.5t-66.5 -84.5t-40 -105.5q-11 -51 -6 -95t25 -77t53.5 -52t79.5 -19t90 19t81.5 52t66 77.5t43.5 95.5zM430 240q-8 -36 -24.5 -67.5t-39 -54t-49.5 -35.5t-56 -13q-30 0 -50 14t-31 38
t-12.5 55.5t5.5 66.5q8 36 24.5 68t39 55.5t50 37.5t56.5 14q30 0 50 -13.5t31 -37.5t12.5 -56.5t-6.5 -71.5zM293 569q-6 9 4.5 27.5t27.5 38.5t36.5 39t30.5 30q23 22 46 29.5t39 -13.5q13 -19 2 -38.5t-33 -39.5q-12 -9 -34.5 -25.5t-46.5 -30.5t-44 -20.5t-28 3.5z" />
    <glyph glyph-name="ocircumflex" unicode="&#xf4;" horiz-adv-x="497" 
d="M516 229q16 55 13 103.5t-22 84.5t-53.5 57t-82.5 21q-50 0 -96.5 -20.5t-85 -56.5t-66.5 -84.5t-40 -105.5q-11 -51 -6 -95t25 -77t53.5 -52t79.5 -19t90 19t81.5 52t66 77.5t43.5 95.5zM430 240q-8 -36 -24.5 -67.5t-39 -54t-49.5 -35.5t-56 -13q-30 0 -50 14t-31 38
t-12.5 55.5t5.5 66.5q8 36 24.5 68t39 55.5t50 37.5t56.5 14q30 0 50 -13.5t31 -37.5t12.5 -56.5t-6.5 -71.5zM503 585q1 5 -3.5 15.5t-11.5 23.5t-14.5 26.5t-13.5 23.5q-9 16 -16 32t-17 21q-3 6 -10.5 5.5t-11.5 -0.5q-15 0 -32 -12q-22 -18 -44 -38t-40.5 -38t-31 -32.5
t-14.5 -22.5q-2 -3 -1.5 -9t5 -11t13.5 -8t25 0q6 2 18.5 13t27.5 26t31 30.5t29 27.5q8 -6 16 -21.5t16.5 -31.5t16.5 -29t16 -14q46 0 46 23h1z" />
    <glyph glyph-name="otilde" unicode="&#xf5;" horiz-adv-x="497" 
d="M516 229q16 55 13 103.5t-22 84.5t-53.5 57t-82.5 21q-50 0 -96.5 -20.5t-85 -56.5t-66.5 -84.5t-40 -105.5q-11 -51 -6 -95t25 -77t53.5 -52t79.5 -19t90 19t81.5 52t66 77.5t43.5 95.5zM430 240q-8 -36 -24.5 -67.5t-39 -54t-49.5 -35.5t-56 -13q-30 0 -50 14t-31 38
t-12.5 55.5t5.5 66.5q8 36 24.5 68t39 55.5t50 37.5t56.5 14q30 0 50 -13.5t31 -37.5t12.5 -56.5t-6.5 -71.5zM541 622q13 8 18 21.5t2.5 23.5t-11.5 13.5t-24 -8.5q-34 -28 -68 -31t-58 33q-32 32 -79.5 27t-93.5 -47q-9 -6 -13.5 -19t-3.5 -24.5t8.5 -15.5t22.5 8
q16 13 33.5 21.5t34 9t31 -7.5t26.5 -26q33 -32 80 -26.5t95 48.5z" />
    <glyph glyph-name="odieresis" unicode="&#xf6;" horiz-adv-x="497" 
d="M516 229q16 55 13 103.5t-22 84.5t-53.5 57t-82.5 21q-50 0 -96.5 -20.5t-85 -56.5t-66.5 -84.5t-40 -105.5q-11 -51 -6 -95t25 -77t53.5 -52t79.5 -19t90 19t81.5 52t66 77.5t43.5 95.5zM430 240q-8 -36 -24.5 -67.5t-39 -54t-49.5 -35.5t-56 -13q-30 0 -50 14t-31 38
t-12.5 55.5t5.5 66.5q8 36 24.5 68t39 55.5t50 37.5t56.5 14q30 0 50 -13.5t31 -37.5t12.5 -56.5t-6.5 -71.5zM342 637q9 26 0 45t-29 18q-17 0 -34 -16.5t-25 -40.5q-5 -26 1 -45.5t27 -18.5q17 0 35 16t26 42h-1zM514 637q8 26 -0.5 45t-29.5 18q-17 0 -34 -16.5
t-25 -40.5q-5 -26 1 -45.5t27 -18.5q17 0 35 16t26 42z" />
    <glyph glyph-name="divide" unicode="&#xf7;" horiz-adv-x="576" 
d="M618 333q3 12 -7 17t-24 6t-29 0t-22 -1h-42q-58 0 -116 0.5t-116 0.5q-12 0 -28.5 1t-34.5 0.5t-34.5 -3.5t-27.5 -10q-11 -8 -24.5 -19t-14.5 -25q0 -9 6 -15t14.5 -9.5t18 -4.5t17.5 -1q90 4 177.5 3t176.5 -1q34 0 61 9t45 43q4 4 4 9zM445 472l-1 13q0 26 -12 37.5
t-40 11.5q-26 0 -46 -17.5t-25 -42.5q-5 -31 9 -54.5t43 -23.5q15 0 28.5 6t24 16.5t15.5 24.5t4 29zM374 166l1 19q2 29 -11 38t-41 9h-2q-29 0 -48.5 -19.5t-23.5 -48.5q-2 -14 0 -27.5t8 -24t16.5 -17t27.5 -6.5q15 0 28.5 6.5t23.5 17.5t15.5 24.5t5.5 28.5z" />
    <glyph glyph-name="oslash" unicode="&#xf8;" horiz-adv-x="497" 
d="M185 113q-14 25 -17 59t5 72q8 36 24.5 68t39 55.5t50 37.5t56.5 14q16 0 28 -4l-5 -6q-30 -42 -53 -79.5t-44 -73.5t-41 -71t-43 -72zM423 370q24 -50 7 -130q-8 -36 -24.5 -67.5t-39 -54t-49.5 -35.5t-56 -13q-13 0 -23 3l12 20t13 21l125 201zM548 548q2 11 -9 18
t-25 2q-32 0 -55.5 -22.5t-43.5 -55.5q-11 2 -21.5 3.5t-22.5 1.5q-50 0 -96.5 -20.5t-85 -56.5t-66.5 -84.5t-40 -105.5q-14 -64 -2.5 -117.5t46.5 -85.5l-12 -17l-9 -13q-12 -25 -19 -30q-4 -11 6 -18.5t18 -7.5q22 0 40.5 14.5t35.5 37.5q22 -6 48 -6q46 0 90 19t81.5 52
t66 77.5t43.5 95.5q21 72 10 132t-48 95q16 22 30 40t34 43q2 2 3 4.5t3 4.5z" />
    <glyph glyph-name="ugrave" unicode="&#xf9;" horiz-adv-x="475" 
d="M540 439q8 29 -0.5 41t-25.5 12q-9 0 -21.5 -5t-24 -13.5t-20 -18t-9.5 -18.5q-8 -29 -15 -60.5t-15 -63.5t-16 -63.5t-17 -58.5q-6 -30 -22 -52.5t-37 -37t-45.5 -20.5t-48.5 -3q-42 5 -50 42t9 117q4 19 11 43.5l15 52.5t16 57.5t14 59.5q5 20 -9 32t-33 9
q-27 -4 -40.5 -15.5t-20 -27.5t-9 -34.5t-7.5 -36.5q-8 -26 -13.5 -50t-12.5 -50q-4 -18 -8.5 -40t-8 -44.5t-5 -44t0.5 -40.5q7 -50 35 -81.5t85 -34.5q11 -1 34 -0.5t49.5 6t51.5 18.5t40 37q1 0 1 -6v-14v-14v-6q0 -8 5 -12t11 -5.5t12 -2t8 -0.5q22 0 33 9.5t13 25.5
q1 2 2.5 10.5t3.5 18t3 19t0 12.5q2 13 4.5 28t6.5 34l7 29q14 66 29 130t34 130zM432 569q11 9 9 27.5t-11 38.5t-20 39t-18 30q-14 22 -34 29.5t-43 -13.5q-22 -19 -19 -38.5t16 -39.5q9 -9 24.5 -25.5t33 -30.5t34.5 -20.5t29 3.5h-1z" />
    <glyph glyph-name="uacute" unicode="&#xfa;" horiz-adv-x="475" 
d="M540 439q8 29 -0.5 41t-25.5 12q-9 0 -21.5 -5t-24 -13.5t-20 -18t-9.5 -18.5q-8 -29 -15 -60.5t-15 -63.5t-16 -63.5t-17 -58.5q-6 -30 -22 -52.5t-37 -37t-45.5 -20.5t-48.5 -3q-42 5 -50 42t9 117q4 19 11 43.5l15 52.5t16 57.5t14 59.5q5 20 -9 32t-33 9
q-27 -4 -40.5 -15.5t-20 -27.5t-9 -34.5t-7.5 -36.5q-8 -26 -13.5 -50t-12.5 -50q-4 -18 -8.5 -40t-8 -44.5t-5 -44t0.5 -40.5q7 -50 35 -81.5t85 -34.5q11 -1 34 -0.5t49.5 6t51.5 18.5t40 37q1 0 1 -6v-14v-14v-6q0 -8 5 -12t11 -5.5t12 -2t8 -0.5q22 0 33 9.5t13 25.5
q1 2 2.5 10.5t3.5 18t3 19t0 12.5q2 13 4.5 28t6.5 34l7 29q14 66 29 130t34 130zM282 569q-6 9 4.5 27.5t27.5 38.5t36.5 39t30.5 30q23 22 46 29.5t39 -13.5q13 -19 2 -38.5t-33 -39.5q-12 -9 -34.5 -25.5t-46.5 -30.5t-44 -20.5t-28 3.5z" />
    <glyph glyph-name="ucircumflex" unicode="&#xfb;" horiz-adv-x="475" 
d="M540 439q8 29 -0.5 41t-25.5 12q-9 0 -21.5 -5t-24 -13.5t-20 -18t-9.5 -18.5q-8 -29 -15 -60.5t-15 -63.5t-16 -63.5t-17 -58.5q-6 -30 -22 -52.5t-37 -37t-45.5 -20.5t-48.5 -3q-42 5 -50 42t9 117q4 19 11 43.5l15 52.5t16 57.5t14 59.5q5 20 -9 32t-33 9
q-27 -4 -40.5 -15.5t-20 -27.5t-9 -34.5t-7.5 -36.5q-8 -26 -13.5 -50t-12.5 -50q-4 -18 -8.5 -40t-8 -44.5t-5 -44t0.5 -40.5q7 -50 35 -81.5t85 -34.5q11 -1 34 -0.5t49.5 6t51.5 18.5t40 37q1 0 1 -6v-14v-14v-6q0 -8 5 -12t11 -5.5t12 -2t8 -0.5q22 0 33 9.5t13 25.5
q1 2 2.5 10.5t3.5 18t3 19t0 12.5q2 13 4.5 28t6.5 34l7 29q14 66 29 130t34 130zM491 585q1 5 -3.5 15.5t-11 23.5t-14 26.5t-13.5 23.5q-9 16 -16 32t-17 21q-3 6 -10.5 5.5t-11.5 -0.5q-15 0 -32 -12q-22 -18 -44 -38t-40.5 -38t-31 -32.5t-14.5 -22.5q-2 -3 -1.5 -9
t5 -11t13.5 -8t25 0q6 2 18.5 13t27.5 26t31 30.5t29 27.5q8 -6 16 -21.5t16.5 -31.5t16.5 -29t16 -14q46 0 46 23z" />
    <glyph glyph-name="udieresis" unicode="&#xfc;" horiz-adv-x="475" 
d="M540 439q8 29 -0.5 41t-25.5 12q-9 0 -21.5 -5t-24 -13.5t-20 -18t-9.5 -18.5q-8 -29 -15 -60.5t-15 -63.5t-16 -63.5t-17 -58.5q-6 -30 -22 -52.5t-37 -37t-45.5 -20.5t-48.5 -3q-42 5 -50 42t9 117q4 19 11 43.5l15 52.5t16 57.5t14 59.5q5 20 -9 32t-33 9
q-27 -4 -40.5 -15.5t-20 -27.5t-9 -34.5t-7.5 -36.5q-8 -26 -13.5 -50t-12.5 -50q-4 -18 -8.5 -40t-8 -44.5t-5 -44t0.5 -40.5q7 -50 35 -81.5t85 -34.5q11 -1 34 -0.5t49.5 6t51.5 18.5t40 37q1 0 1 -6v-14v-14v-6q0 -8 5 -12t11 -5.5t12 -2t8 -0.5q22 0 33 9.5t13 25.5
q1 2 2.5 10.5t3.5 18t3 19t0 12.5q2 13 4.5 28t6.5 34l7 29q14 66 29 130t34 130zM331 637q9 26 0 45t-29 18q-17 0 -34 -16.5t-25 -40.5q-5 -26 1 -45.5t27 -18.5q17 0 35 16t26 42h-1zM503 637q8 26 -0.5 45t-29.5 18q-17 0 -34 -16.5t-25 -40.5q-5 -26 1 -45.5t27 -18.5
q17 0 35 16t26 42z" />
    <glyph glyph-name="yacute" unicode="&#xfd;" horiz-adv-x="522" 
d="M589 448q2 7 0 14.5t-6.5 14t-11 10.5t-13.5 4q-24 0 -43 -14.5t-35 -36t-28 -45t-22 -41.5q-29 -51 -64.5 -111t-68.5 -110q-11 12 -19 43t-15 70.5t-13.5 82.5t-14.5 78.5t-18.5 58.5t-23.5 23q-9 0 -20 -4.5t-21 -12t-17 -17t-8 -19.5q-1 -12 2 -28.5t7.5 -34.5t9 -35
t7.5 -29q11 -48 23 -95.5t24 -95.5q7 -25 13.5 -49.5t11.5 -50.5q-5 -15 -15.5 -31t-22 -32.5t-22 -32.5t-15.5 -31q-17 -29 -31 -64.5t-9 -62.5q0 -14 13 -21t26 -4q25 6 33 13.5t13.5 23.5t15.5 44.5t39 76.5q40 67 74 123t67 110t67 110.5t74 123.5q13 20 26 43.5
t31 40.5zM306 569q-6 9 4 27.5t27.5 38.5t36.5 39l30 30q23 22 46.5 29.5t38.5 -13.5q14 -19 3 -38.5t-33 -39.5q-12 -9 -34.5 -25.5t-46.5 -30.5t-44 -20.5t-28 3.5z" />
    <glyph glyph-name="thorn" unicode="&#xfe;" horiz-adv-x="501" 
d="M527 257q10 50 5 95t-25 78t-54 51t-80 14q-38 -3 -76 -20.5t-65 -40.5q0 2 5.5 28t11.5 56.5t11 56t4 27.5q5 20 2 35t-27 15t-45.5 -16t-29.5 -48q-7 -30 -18 -83.5t-23.5 -111.5t-24.5 -112t-19 -86q-11 -42 -23.5 -98t-23.5 -109l-13 -59q-7 -36 -13.5 -67.5t-8 -55
t5.5 -37t27 -13.5q7 0 18 4.5t21.5 12.5t18.5 20.5t9 28.5q4 24 8 49t12 63l15 67q3 15 5.5 21t4.5 10q18 -10 31 -17t24.5 -12t23.5 -7.5t28 -2.5q43 0 87 19t82.5 54t67.5 83.5t41 107.5zM434 252q-7 -38 -21.5 -71t-36 -57t-48.5 -38t-60 -14q-35 0 -55.5 16t-37.5 39
q-2 23 -0.5 51t8.5 58q8 39 23 72t36 57t47 38t56 15q28 1 48 -12t31.5 -35.5t13.5 -53.5t-4 -65z" />
    <glyph glyph-name="ydieresis" unicode="&#xff;" horiz-adv-x="522" 
d="M589 448q2 7 0 14.5t-6.5 14t-11 10.5t-13.5 4q-24 0 -43 -14.5t-35 -36t-28 -45t-22 -41.5q-29 -51 -64.5 -111t-68.5 -110q-11 12 -19 43t-15 70.5t-13.5 82.5t-14.5 78.5t-18.5 58.5t-23.5 23q-9 0 -20 -4.5t-21 -12t-17 -17t-8 -19.5q-1 -12 2 -28.5t7.5 -34.5t9 -35
t7.5 -29q11 -48 23 -95.5t24 -95.5q7 -25 13.5 -49.5t11.5 -50.5q-5 -15 -15.5 -31t-22 -32.5t-22 -32.5t-15.5 -31q-17 -29 -31 -64.5t-9 -62.5q0 -14 13 -21t26 -4q25 6 33 13.5t13.5 23.5t15.5 44.5t39 76.5q40 67 74 123t67 110t67 110.5t74 123.5q13 20 26 43.5
t31 40.5zM355 637q8 26 -0.5 45t-28.5 18q-18 0 -34.5 -16.5t-24.5 -40.5q-5 -26 1 -45.5t26 -18.5q17 0 35 16t26 42zM526 637q8 26 -0.5 45t-28.5 18q-18 0 -34.5 -16.5t-24.5 -40.5q-5 -26 1 -45.5t26 -18.5q17 0 35 16t26 42z" />
    <glyph glyph-name="OE" unicode="&#x152;" horiz-adv-x="916" 
d="M903 82q0 26 -28 26q-4 0 -10 -2q-57 -12 -109 -17.5t-104 -6.5q-32 0 -53 5t-28 18q0 10 1.5 28t4.5 40t7.5 47t9.5 49q2 11 5 21t5 20q11 9 25.5 13.5t35.5 7.5t49 4t65 3q23 1 37.5 2.5t31.5 6.5h18q22 7 37.5 21t16.5 28q1 13 -7.5 20.5t-29.5 7.5q-19 0 -50 -2.5
t-66 -5.5t-71 -6t-64 -4q-2 27 3.5 58.5t13 60t15 50.5t10.5 30q13 7 32 11.5t40.5 6.5t43.5 2.5t40 0.5h31q15 0 30 -0.5t29.5 0t26.5 3t20 8.5q14 6 21.5 17.5t9.5 21.5q2 23 -26.5 29.5t-85.5 6.5h-19q-14 0 -29 -0.5t-30 -0.5l-314 -7q-64 -2 -126.5 -31.5t-115.5 -80.5
t-92.5 -120.5t-56.5 -150.5q-15 -71 -6 -132.5t38 -107t76 -71.5t109 -26q9 -2 36 -2q28 0 64 0.5t75.5 2.5t72.5 4t54.5 4t21.5 3q58 0 106.5 5.5t83 16t53 26.5t16.5 38zM466 76q-41 -2 -73.5 -2.5t-43.5 -0.5q-47 0 -81.5 21t-54 57t-24 85t7.5 105q13 61 39.5 113t62 89
t79 58t90.5 21q0 3 23 4.5t60 2.5q3 -6 7 -13.5t6.5 -16.5t3 -21t-3.5 -28q-9 -42 -26 -93.5t-28 -99.5q-2 -10 -3.5 -19.5t-3.5 -19.5l-8 -36q-16 -75 -23.5 -124.5t-5.5 -81.5z" />
    <glyph glyph-name="oe" unicode="&#x153;" horiz-adv-x="857" 
d="M430 240q-8 -36 -24.5 -67.5t-39 -54t-49.5 -35.5t-56 -13q-30 0 -50 14t-31 38t-12.5 55.5t5.5 66.5q8 36 24.5 68t39 55.5t50 37.5t56.5 14q30 0 50 -13.5t31 -37.5t12.5 -56.5t-6.5 -71.5zM856 135q2 10 -5.5 17t-17.5 7q-12 -1 -29 -15q-33 -29 -73 -52t-97 -23h-3
q-42 0 -71.5 19.5t-39.5 54.5q-12 37 3 52q20 2 35.5 2.5t34.5 2t44.5 6.5t65.5 17q60 17 100.5 49.5t51.5 84.5q7 31 0 57t-25.5 45t-46.5 30t-64 11q-59 0 -111 -26.5t-94 -71.5q-17 43 -53.5 68t-89.5 25q-50 0 -96.5 -20.5t-85 -56.5t-66.5 -84.5t-40 -105.5
q-11 -51 -6 -95t25 -77t53.5 -52t79.5 -19q56 0 108.5 27t93.5 74q20 -45 63 -69t106 -24q41 0 85.5 13t81 33.5t60 45.5t23.5 50zM768 382q-1 -23 -17 -43.5t-45 -41.5q-31 -9 -65.5 -15.5t-69.5 -9.5q-14 -2 -25 -1.5t-20 2.5q0 3 0.5 6t0.5 6q8 28 24 55.5t37.5 48.5
t47.5 34t53 13q26 0 45.5 -10.5t27.5 -29.5q1 -1 2.5 -7t3.5 -7z" />
    <glyph glyph-name="Scaron" unicode="&#x160;" horiz-adv-x="583" 
d="M597 204q13 39 6.5 71.5t-29 56.5t-60.5 40.5t-88 24.5q-23 6 -47.5 11t-44.5 10q-86 25 -86 78q0 23 12.5 43.5t34.5 36.5t50.5 25.5t61.5 11.5q15 1 36.5 -1t40.5 -8.5t31.5 -17.5t8.5 -28q1 -11 -4 -22t0 -12q9 1 24 8t29.5 17t23.5 21t6 22q6 4 6.5 10t-1.5 12t-5 12
t-4 12q-6 16 -21.5 26t-35 16t-40.5 8t-39 2q-50 0 -105 -16t-101 -44t-77.5 -67.5t-34.5 -85.5q-5 -65 39.5 -101.5t146.5 -55.5q30 -6 61.5 -13.5t56.5 -20t40 -31t14 -45.5q-2 -33 -24 -59.5t-56.5 -44.5t-76.5 -27.5t-82 -7.5q-23 1 -43.5 5.5t-37.5 14t-28.5 24
t-15.5 35.5q2 9 -7.5 14.5t-16.5 5.5q-23 0 -37.5 -18t-18.5 -37q-6 -30 9 -54.5t44.5 -41.5t70 -25.5t84.5 -5.5q29 2 60 5t61.5 12t61.5 25t60 43q14 7 27.5 23t25 35t20.5 38.5t14 34.5zM619 918q-1 -5 -10 -15.5t-21.5 -23.5t-25.5 -26.5t-23 -23.5q-16 -16 -30 -32
t-26 -21q-5 -6 -12.5 -5.5t-11.5 0.5q-15 0 -27 12q-14 18 -27.5 38t-24.5 38t-17 32.5t-5 22.5q0 3 3 9t9 11t16.5 8t25.5 0q5 -2 13 -13t16.5 -26t18 -30.5t17.5 -27.5q10 6 25 21.5t30 31.5t28.5 29t22.5 14q46 0 36 -23z" />
    <glyph glyph-name="scaron" unicode="&#x161;" horiz-adv-x="451" 
d="M450 134q10 33 4.5 58t-29 44.5t-64.5 37t-102 35.5q-23 7 -34 16.5t-13 20.5q0 14 9.5 26.5t25 23t35.5 17.5t42 9q24 2 48 2.5t37 -12.5l2 -16t4.5 -14t11.5 -9.5t24 -1.5q14 2 20.5 10t14.5 24q-1 1 1 5t4 10t3.5 15.5t0.5 23.5q-4 17 -14.5 26.5t-25 14.5t-31 5.5
t-33.5 -0.5q-41 -2 -83.5 -13.5t-78.5 -31.5t-63.5 -47.5t-38.5 -62.5q-9 -29 -6.5 -49.5t18.5 -37t46.5 -29.5t78.5 -26l22 -6q86 -22 71 -77q-7 -28 -43 -44t-80 -16q-48 0 -78 17t-40 33v1q-5 5 -7 6q-6 1 -17.5 -4.5t-22 -15t-16.5 -21.5t-3 -24q9 -33 53.5 -52
t106.5 -19q38 0 76 10t71 29t57.5 46.5t35.5 62.5zM515 708q-1 -5 -10 -15.5t-21 -23.5t-25.5 -26.5l-23.5 -23.5q-15 -16 -29.5 -32t-25.5 -21q-6 -6 -13 -5.5t-11 0.5q-14 0 -28 12q-14 18 -27.5 38t-24 38t-17 32.5t-5.5 22.5q0 3 3 9t9.5 11t16.5 8t25 0q5 -2 13 -13
t16.5 -26t18 -30.5t17.5 -27.5q10 6 25 21.5t30 31.5t28.5 29t22.5 14q46 0 36 -23z" />
    <glyph glyph-name="Ydieresis" unicode="&#x178;" horiz-adv-x="623" 
d="M741 689q1 12 -8 22.5t-23 10.5q-24 0 -43 -13t-34.5 -31t-28 -38.5t-22.5 -35.5q-38 -53 -67.5 -90t-52 -63t-38.5 -43.5t-28 -31.5q-8 11 -21 38t-29 63t-33 78.5t-32 85.5q-10 28 -18.5 41.5t-24.5 13.5q-18 0 -36 -13t-29 -33q4 -22 17 -62t30 -82.5t36 -80.5t34 -55
q4 -11 12.5 -21.5t16 -22t12 -25t0.5 -28.5q-18 -64 -28.5 -119.5t-23.5 -98.5q-9 -30 -5.5 -48t21.5 -20q11 -1 25 6t27.5 17.5t24.5 23.5t16 24q9 38 14.5 75t14.5 73t24.5 72.5t43.5 74.5q22 31 52 69t61 76.5t59.5 74t48.5 61.5q14 15 24.5 32.5t10.5 22.5zM450 847
q9 26 0 45t-29 18q-17 0 -34 -16.5t-25 -40.5q-5 -26 1 -45.5t26 -18.5q17 0 35 16t27 42h-1zM622 847q8 26 -1 45t-29 18q-17 0 -34 -16.5t-25 -40.5q-5 -26 1 -45.5t26 -18.5q17 0 35.5 16t26.5 42z" />
    <glyph glyph-name="florin" unicode="&#x192;" horiz-adv-x="649" 
d="M763 671q0 5 -2.5 14.5t-11.5 18t-27 14t-48 3.5q-44 -3 -80.5 -21.5t-67 -49t-55 -72t-44.5 -90.5q-4 -10 -15.5 -11t-26.5 0t-30.5 -0.5t-26.5 -11.5q-4 -3 -9 -9l-10 -12t-8 -11.5t-2 -6.5q-3 -10 1.5 -17.5t22.5 -7.5h31q20 2 23.5 -8.5t-7.5 -36.5l-24 -60
l-100 -263q-30 -78 -65 -120.5t-73 -42.5q-27 -3 -33 6t-4.5 20t2 19.5t-14.5 6.5q-11 0 -17.5 -4.5t-12 -14.5t-11.5 -25t-16 -36q0 -5 2.5 -14.5t11.5 -18t27 -14t48 -3.5q44 3 81 21.5t67.5 49t55 72t43.5 90.5l86 220q7 18 14 35t13 32q9 21 14 35.5t11 25t16 16.5
t28 10q34 2 54 5t32 8.5t17.5 13.5t10.5 19q15 35 -37 35h-19q-4 0 -8 -0.5t-9 -0.5h-26q-11 0 -15 1q23 76 61 119.5t76 43.5q27 3 33 -6t4.5 -20t-2 -19.5t14.5 -6.5q11 0 17.5 4.5t12 14.5t11.5 25t16 36z" />
    <glyph glyph-name="circumflex" unicode="&#x2c6;" horiz-adv-x="323" 
d="M421 593q1 5 -3.5 15.5t-11.5 23.5t-14.5 26.5t-13.5 23.5q-8 16 -15.5 32t-16.5 21q-4 6 -11 5.5t-11 -0.5q-8 0 -16.5 -3.5t-16.5 -8.5q-21 -18 -43 -38t-40.5 -38t-31 -32.5t-15.5 -22.5q-2 -3 -1.5 -9t4.5 -11t13 -8t25 0q6 2 18.5 13t27.5 26t31 30.5t30 27.5
q8 -6 16 -21.5t16 -31.5t16.5 -29t16.5 -14q45 0 47 23z" />
    <glyph glyph-name="tilde" unicode="&#x2dc;" horiz-adv-x="407" 
d="M501 646q13 8 18 21.5t3 23.5t-11 13.5t-24 -8.5q-33 -28 -67.5 -31t-58.5 33q-32 32 -79.5 27t-93.5 -47q-9 -6 -13.5 -19t-3.5 -24.5t8 -15.5t22 8q34 27 68 30.5t57 -33.5q33 -32 80 -26.5t95 48.5z" />
    <glyph glyph-name="endash" unicode="&#x2013;" horiz-adv-x="590" 
d="M621 278q1 11 -5.5 16t-17.5 7q-32 0 -57 -0.5t-42 -0.5h-66q-54 0 -105 1.5t-102 1.5h-15q-43 0 -67.5 -6.5t-36.5 -15.5t-15.5 -19t-4.5 -16q0 -28 34 -28h9q44 0 94.5 1t99.5 2q35 0 73 -1t76 -1h74q11 0 24 7.5t24.5 17t18.5 19.5t7 15z" />
    <glyph glyph-name="emdash" unicode="&#x2014;" horiz-adv-x="965" 
d="M996 279q2 13 -6.5 18.5t-20.5 5.5h-3q-38 0 -67 -2t-48 -2h-68h-112q-51 0 -108.5 0.5t-116.5 0.5q-58 0 -116 0.5t-109 0.5q-13 0 -14 1h-15q-33 0 -53 -6.5t-31.5 -15.5t-16 -18.5t-4.5 -15.5q-1 -14 7.5 -21t23.5 -7h6q26 0 46.5 1t50.5 1h228q96 0 190.5 -0.5
t190.5 -0.5h49q25 0 46.5 5.5t37 14t24 19t9.5 21.5z" />
    <glyph glyph-name="quoteleft" unicode="&#x2018;" horiz-adv-x="201" 
d="M150 539q-4 -14 -0.5 -27t11.5 -22.5t20 -15t26 -5.5q26 0 47 18.5t26 44.5q2 34 -16 53q7 16 17.5 35.5t19.5 37t15 30.5t6 15q2 14 -8.5 19.5t-27.5 3.5q-26 -5 -41.5 -20t-25.5 -32q-11 -18 -23.5 -39t-23 -40.5t-17 -34.5t-5.5 -21z" />
    <glyph glyph-name="quoteright" unicode="&#x2019;" horiz-adv-x="201" 
d="M311 656q7 28 -11 49t-46 21q-26 0 -47 -18.5t-26 -44.5q-2 -34 16 -53q-8 -16 -18 -35.5t-19 -37t-15 -30.5t-6 -15q-2 -14 8.5 -19.5t27.5 -3.5q26 5 41.5 20t25.5 32q10 18 23 39t23.5 40.5t17 34.5t5.5 21z" />
    <glyph glyph-name="quotesinglbase" unicode="&#x201a;" horiz-adv-x="201" 
d="M184 59q7 28 -11 49t-46 21q-26 0 -46.5 -18.5t-25.5 -44.5q-3 -33 15 -53q-8 -16 -18 -35.5t-19 -37t-15 -30.5t-6 -15q-2 -14 8.5 -19.5t27.5 -3.5q26 5 41.5 20t25.5 32q10 18 23 39t23.5 40.5t17 34.5t5.5 21z" />
    <glyph glyph-name="quotedblleft" unicode="&#x201c;" horiz-adv-x="392" 
d="M150 539q-4 -14 -0.5 -27t11.5 -22.5t20 -15t26 -5.5q26 0 47 18.5t26 44.5q2 34 -16 53q7 16 17.5 35.5t19.5 37t15 30.5t6 15q2 14 -8.5 19.5t-27.5 3.5q-26 -5 -41.5 -20t-25.5 -32q-11 -18 -23.5 -39t-23 -40.5t-17 -34.5t-5.5 -21zM341 539q-4 -14 -0.5 -27
t11.5 -22.5t20 -15t26 -5.5q26 0 47 18.5t26 44.5q2 34 -16 53q7 16 17.5 35.5t19.5 37t15 30.5t6 15q2 14 -8.5 19.5t-27.5 3.5q-26 -5 -41.5 -20t-25.5 -32q-11 -18 -23.5 -39t-23 -40.5t-17 -34.5t-5.5 -21z" />
    <glyph glyph-name="quotedblright" unicode="&#x201d;" horiz-adv-x="392" 
d="M502 656q7 28 -11 49t-46 21q-26 0 -47 -18.5t-26 -44.5q-2 -34 16 -53q-8 -16 -18 -35.5t-19 -37t-15 -30.5t-6 -15q-2 -14 8.5 -19.5t27.5 -3.5q26 5 41.5 20t25.5 32q10 18 23 39t23.5 40.5t17 34.5t5.5 21zM311 656q7 28 -11 49t-46 21q-26 0 -47 -18.5t-26 -44.5
q-2 -34 16 -53q-8 -16 -18 -35.5t-19 -37t-15 -30.5t-6 -15q-2 -14 8.5 -19.5t27.5 -3.5q26 5 41.5 20t25.5 32q10 18 23 39t23.5 40.5t17 34.5t5.5 21z" />
    <glyph glyph-name="quotedblbase" unicode="&#x201e;" horiz-adv-x="400" 
d="M383 59q7 28 -11 49t-46 21q-26 0 -46.5 -18.5t-25.5 -44.5q-3 -33 15 -53q-8 -16 -18 -35.5t-19 -37t-15 -30.5t-6 -15q-2 -14 8.5 -19.5t27.5 -3.5q26 5 41.5 20t25.5 32q10 18 23 39t23.5 40.5t17 34.5t5.5 21zM184 59q7 28 -11 49t-46 21q-26 0 -46.5 -18.5
t-25.5 -44.5q-3 -33 15 -53q-8 -16 -18 -35.5t-19 -37t-15 -30.5t-6 -15q-2 -14 8.5 -19.5t27.5 -3.5q26 5 41.5 20t25.5 32q10 18 23 39t23.5 40.5t17 34.5t5.5 21z" />
    <glyph glyph-name="dagger" unicode="&#x2020;" horiz-adv-x="419" 
d="M494 489q1 11 -5.5 12t-14.5 4h-39q-12 0 -20.5 -0.5t-17.5 -0.5h-28l13 54q21 85 -20 85q-4 0 -13.5 -3t-20.5 -11.5t-21.5 -23.5t-16.5 -38q-4 -15 -8 -30.5t-8 -31.5h-21q-7 1 -12 1h-6q-41 0 -62 -6t-34 -33q-11 -9 -8 -15q-2 -27 33 -27h3q18 0 38 1t50 2
q-13 -58 -25 -113t-25 -103q-8 -26 -13 -52.5t-11 -54.5q-24 -112 -28 -166.5t27 -54.5q6 0 17 7t22.5 19t20.5 27.5t12 32.5q7 42 18 99t25 122q12 57 26 115.5t29 119.5h36q20 0 34.5 1t25.5 5t20 12t17 23q5 5 8 12.5t3 9.5z" />
    <glyph glyph-name="daggerdbl" unicode="&#x2021;" horiz-adv-x="419" 
d="M410 91q1 11 -6 12t-15 4h-40t-21.5 -0.5t-18.5 -0.5h-32q5 20 9 41t9 44q12 57 26 115.5t29 119.5h36q20 0 34.5 1t25.5 5t20 12t17 23q5 5 8 12.5t3 9.5q1 11 -5.5 12t-14.5 4h-39q-12 0 -20.5 -0.5t-17.5 -0.5h-28l13 54q21 85 -20 85q-4 0 -13.5 -3t-20.5 -11.5
t-21.5 -23.5t-16.5 -38q-4 -15 -8 -30.5t-8 -31.5h-21q-7 1 -12 1h-6q-41 0 -62 -6t-34 -33q-11 -9 -8 -15q-2 -27 33 -27h3q18 0 38 1t50 2q-13 -58 -25 -113t-25 -103q-8 -26 -13 -52t-11 -53h-13q-7 1 -12 1h-6q-41 0 -62 -6t-34 -33q-9 -9 -8 -15q-2 -27 33 -27h3
q17 0 36.5 1t47.5 2q-14 -74 -12.5 -110t26.5 -36q6 0 17 7t22.5 19t20.5 27.5t12 32.5q2 13 4.5 27.5t5.5 30.5h2h37q20 0 34.5 1t26 5t20 12t16.5 23q5 5 8 12.5t4 9.5z" />
    <glyph glyph-name="bullet" unicode="&#x2022;" horiz-adv-x="341" 
d="M378 321q13 31 11 59.5t-16.5 50.5t-40 35t-59.5 13q-50 0 -93 -29.5t-63 -74.5q-12 -29 -11.5 -54.5t12 -46t32.5 -33.5t50 -17q27 -4 54.5 2t51.5 19t42.5 32.5t29.5 43.5z" />
    <glyph glyph-name="ellipsis" unicode="&#x2026;" horiz-adv-x="649" 
d="M632 62q-2 20 -16 35t-39 15q-16 0 -29.5 -7t-23.5 -18.5t-15 -26t-4 -30.5q1 -23 16 -36t37 -13q16 0 29.5 6.5t23.5 17.5t15.5 25.5t5.5 31.5zM403 38q6 29 -9 50t-45 21q-27 0 -45.5 -16.5t-24.5 -44.5q-5 -29 9.5 -48.5t42.5 -19.5q27 0 47 16.5t25 41.5zM168 39
q7 32 -9 52.5t-45 20.5q-27 0 -45 -16.5t-24 -45.5q-6 -32 10 -50t42 -18t46 16t25 41z" />
    <glyph glyph-name="perthousand" unicode="&#x2030;" horiz-adv-x="1112" 
d="M1117 159q11 37 8.5 70t-16.5 57.5t-39 38.5t-60 14q-36 0 -69.5 -14t-61 -38t-47 -57t-27.5 -71q-7 -34 -3 -64t18.5 -52.5t39 -35.5t57.5 -13t64.5 13t58.5 35t47 52t30 65zM765 159q11 37 8.5 70t-16.5 57.5t-39 38.5t-60 14q-36 0 -69.5 -14t-61 -38t-47 -57
t-27.5 -71q-7 -34 -3 -64t18.5 -52.5t39 -35.5t57.5 -13t64.5 13t58.5 35t47 52t30 65zM743 676q2 10 -5 17t-18 7q-10 0 -24.5 -5.5t-29 -14.5t-27 -19.5t-18.5 -20.5q-14 -20 -35 -51t-38 -56q-36 -51 -72 -101.5t-74.5 -105t-81 -116t-92.5 -134.5q-17 -24 -29.5 -36
t-11.5 -21q-2 -8 5.5 -15.5t18.5 -7.5q18 0 33 9.5t29.5 25t28.5 36.5t30 44q34 48 65.5 96t66.5 96q70 99 134 185t113 150q16 17 25 25t7 13zM458 525q11 37 8.5 70t-16.5 57.5t-39 39t-60 14.5q-36 0 -69.5 -14t-61 -38.5t-47 -57.5t-27.5 -71q-7 -34 -3 -64t18.5 -52
t39 -35t58.5 -13q33 0 64.5 12.5t58 35t46.5 52t30 64.5zM1047 167q-5 -23 -15.5 -43t-25 -34t-32.5 -22t-37 -8q-39 0 -53.5 32t-5.5 77q5 23 16 43t25.5 35t32.5 23.5t37 8.5q38 0 53.5 -31t4.5 -81zM695 167q-5 -23 -15.5 -43t-25 -34t-32.5 -22t-37 -8q-39 0 -53.5 32
t-5.5 77q5 23 16 43t25.5 35t32.5 23.5t37 8.5q38 0 53.5 -31t4.5 -81zM388 533q-5 -23 -15.5 -43t-25 -34t-32.5 -22t-37 -8q-38 0 -53 32.5t-6 77.5q5 23 15.5 43t25.5 35t33 23.5t37 8.5q38 0 53.5 -31t4.5 -82z" />
    <glyph glyph-name="guilsinglleft" unicode="&#x2039;" horiz-adv-x="273" 
d="M267 114q3 7 -5.5 24.5t-22 38.5t-29 42.5t-26.5 38.5q1 8 12 20t26.5 25.5t32.5 28t29 26.5q7 8 15.5 16.5t15.5 16.5t12 14.5t6 9.5q2 9 -5 21.5t-16 12.5q-29 0 -76 -38.5t-122 -118.5q-22 -19 -24 -33q-1 -5 11.5 -28.5t29 -52t33.5 -55t25 -37.5q8 -9 12 -12t12 -3
q6 0 14.5 4t16.5 10.5t14.5 14t8.5 14.5z" />
    <glyph glyph-name="guilsinglright" unicode="&#x203a;" horiz-adv-x="273" 
d="M61 114q0 7 15.5 24.5t38 38.5t47 42.5t42.5 38.5q3 8 -3 20t-15.5 25.5t-20.5 27.5t-17 27q-8 15 -17.5 32.5t-7.5 24.5q2 9 14 21.5t21 12.5q29 0 59.5 -38.5t72.5 -118.5q12 -18 10 -33q-1 -5 -23.5 -28.5t-51.5 -52t-57.5 -55t-40.5 -37.5q-13 -9 -17.5 -12t-12.5 -3
q-6 0 -12.5 4t-12 10.5t-9 14t-2.5 14.5z" />
    <glyph glyph-name="trademark" unicode="&#x2122;" horiz-adv-x="767" 
d="M429 636q20 3 36.5 11.5t21.5 29.5q3 11 -6 15.5t-23 4.5q-11 0 -23 -1.5t-17 -1.5q-39 -2 -78.5 -4t-78.5 -2q-11 0 -21.5 2.5t-21.5 0.5t-23.5 -11.5t-18.5 -20.5t-0.5 -19.5t31.5 -8.5h36t36 1q5 0 7.5 -0.5t0.5 -6.5q0 -2 -1 -4t-2 -5l-14 -60t-13 -61
q-9 -40 -19.5 -86.5t-10.5 -84.5q1 -8 4 -15.5t14 -7.5q10 0 20.5 7t16.5 12q11 9 13.5 17t2.5 19q1 16 4 35.5t6.5 40t8 40.5t7.5 36q6 26 12.5 52.5t13.5 53.5q1 2 1 4q0 3 1 5q0 5 1.5 8.5t8.5 3.5q11 1 29.5 0t37.5 1zM804 332q5 12 8.5 23.5t5.5 18.5q8 51 16 103.5
t9 104.5q0 7 1 20.5t1.5 28.5t0.5 27q0 13 -2 17q-2 7 -5 11t-11 6q-26 8 -48 -10t-36 -47q-4 -12 -12 -28q-23 -48 -47 -95.5t-53 -92.5q-3 14 -4.5 29.5t-3.5 29.5q-5 45 -8.5 90.5t-8.5 90.5q-2 14 -11.5 27t-29.5 8q-13 -3 -30.5 -10.5t-22.5 -24.5q-8 -26 -16.5 -52.5
t-17.5 -52.5q-13 -38 -20 -76t-21 -76q-3 -7 -6 -17.5t-6 -21.5t-5.5 -21.5t-3.5 -16.5q-2 -9 -2.5 -15.5t10.5 -11.5q5 -2 12 0.5t14.5 7t13.5 9.5t9 9q6 6 11 22.5t7 33.5q4 18 6.5 33.5t4.5 21.5q5 14 11 36.5t13 45.5q5 17 11 32.5t11 26.5q2 -15 3 -30.5t3 -30.5
q5 -35 8 -70t8 -70l2.5 -20t4.5 -23.5t9 -19.5t17 -8q20 0 34 17t22 33l20 38t19 38q17 34 35.5 67.5t36.5 67.5q2 3 3.5 6.5t3.5 6.5q2 -12 0 -26q-1 -27 -2.5 -48.5t-4 -45t-7.5 -52.5t-14 -71q-2 -11 1.5 -24t20.5 -13q11 0 19 10t13 24z" />
    <glyph glyph-name="Euro" unicode="&#xe000;" horiz-adv-x="632" 
d="M719 566q8 37 -15.5 62.5t-60 40.5t-76 21t-63.5 5q-65 -3 -118 -34.5t-94.5 -84.5t-70.5 -124.5t-45 -154.5q-13 -67 -9 -123t26 -96.5t61 -63t97 -22.5q65 0 128 27.5t115 81.5q4 6 11 17t14 23t12 23.5t5 17.5q1 11 -7.5 19.5t-21.5 6.5q-13 -1 -26 -11t-26 -23
t-25 -26t-22 -21q-29 -23 -54 -32t-56 -11q-45 -3 -72 11t-40 44t-13.5 76t9.5 106q9 57 24 107.5t37.5 89t54 62.5t75.5 28q15 1 35.5 -1t39.5 -7t34 -11t20 -12q9 -9 12.5 -23.5t3.5 -28.5t-1.5 -25t-0.5 -12q6 -10 22 -10q17 0 30.5 8t23.5 20.5t17 28t10 31.5zM571 452
q-2 5 -9 7t-12 2h-1q-35 0 -58 -1.5t-34 -1.5h-31q-47 0 -93 1t-93 1h-27q-25 0 -42 -6t-28 -14.5t-15.5 -17t-4.5 -14.5q-1 -12 8 -20t24 -8h3q17 0 31 1t40 1q56 1 102.5 0t102.5 -1h42q13 0 27 0.5t26 3t20.5 8.5t11.5 17q10 11 11 24t-1 18zM498 283q1 11 -6 12t-15 4
h-41q-11 0 -19 -0.5t-19 -0.5h-38q-45 0 -86.5 0.5t-82.5 0.5q-7 1 -12 1h-6q-41 0 -62 -6t-34 -33q-9 -9 -8 -15q-2 -27 33 -27h3q22 0 46.5 1.5t66.5 1.5q33 0 67 -1t72 -1h32q20 0 34.5 1t26 5t20 12t16.5 23q5 5 8 12.5t4 9.5z" />
    <glyph glyph-name="minus" unicode="&#xe001;" horiz-adv-x="576" 
d="M618 333q3 12 -7 17t-24 6t-29 0t-22 -1h-42q-58 0 -116 0.5t-116 0.5q-12 0 -28.5 1t-34.5 0.5t-34.5 -3.5t-27.5 -10q-11 -8 -24.5 -19t-14.5 -25q0 -9 6 -15t14.5 -9.5t18 -4.5t17.5 -1q90 4 177.5 3t176.5 -1q34 0 61 9t45 43q4 4 4 9z" />
    <glyph glyph-name="mu1" unicode="&#xe002;" horiz-adv-x="488" 
d="M440 -73q9 8 8 22t-6.5 30.5t-14.5 33.5t-17 31q27 24 48.5 61.5t33.5 94.5l6 29q7 33 12.5 57.5t11.5 47.5t13 47.5t16 57.5q8 29 -0.5 41t-25.5 12q-9 0 -21.5 -5t-24 -13.5t-20 -18t-9.5 -18.5q-15 -57 -24.5 -117.5t-26.5 -115.5q-6 -30 -21 -54.5t-36 -41.5
t-48.5 -25t-59.5 -5q-42 4 -50 41.5t9 117.5q4 19 11 43.5l15 52.5t16 57.5t14 59.5q5 20 -9 32t-33 9q-27 -4 -40.5 -15.5t-20 -27.5t-9 -34.5t-7.5 -36.5q-8 -26 -13 -50t-13 -50q-17 -58 -30.5 -120t-28.5 -113q-3 -9 -7.5 -30t-9.5 -44.5t-9.5 -45t-6.5 -30.5
q-15 -73 -15 -109t32 -36q7 0 18 4.5t21.5 12.5t19 18t9.5 21q1 12 6.5 39t11.5 58t12 61t10 48q26 -16 66 -19q11 -1 43 -3t74 9q9 -10 24.5 -26t33 -29.5t34 -19.5t28.5 4z" />
    <glyph glyph-name="nonbreakingspace" unicode="&#xe003;" horiz-adv-x="465" 
 />
    </font>
</defs>
</svg>
